<ttFont>
<head>
    <!-- Most of this table will be recalculated by the compiler -->
    <tableVersion value="1.0"/>
    <fontRevision value="2.004"/>
    <checkSumAdjustment value="0xeb99bb8c"/>
    <magicNumber value="0x5f0f3cf5"/>
    <flags value="00000000 00000011"/>
    <unitsPerEm value="1000"/>
    <created value="Thu Oct  8 09:59:54 2009"/>
    <modified value="Thu Oct  8 09:59:54 2009"/>
    <xMin value="-400"/>
    <yMin value="-286"/>
    <xMax value="1338"/>
    <yMax value="1125"/>
    <macStyle value="00000000 00000000"/>
    <lowestRecPPEM value="3"/>
    <fontDirectionHint value="2"/>
    <indexToLocFormat value="0"/>
    <glyphDataFormat value="0"/>
  </head>
          <CharString index="0">
            rmoveto
            20 -10 18 -17 11 vhcurveto
            13 -19 -23 4 -28 hhcurveto
            -44 -39 -27 -39 -1 hvcurveto
            -16 12 -9 13 14 11 9 16 1 vhcurveto
            15 -12 10 -14 vhcurveto
            -6 -1 rlineto
            19 12 25 12 28 hhcurveto
            19 15 -4 -11 10 hvcurveto
            9 -8 2 -12 -20 vvcurveto
            -14 -5 -12 -9 -7 vhcurveto
            -28 -24 -19 -31 -34 vvcurveto
            -20 vlineto
            -3 3 -3 3 33 callgsubr
            vhcurveto
            20 vlineto
            32 25 26 39 21 vhcurveto
            16 9 11 16 18 vvcurveto
            endchar
          </CharString>
          <CharString index="1">
            rmoveto
            -11 11 rlineto
            -33 -34 -19 -19 -31 hhcurveto
            -22 -15 11 15 -21 hvcurveto
            14 -20 -16 12 -22 hhcurveto
            -36 -25 -29 -46 -42 hvcurveto
            11 -11 rlineto
            33 34 19 19 31 hhcurveto
            22 15 -11 -15 21 hvcurveto
            -14 20 16 -12 22 hhcurveto
            36 25 29 46 42 hvcurveto
            endchar
          </CharString>
          <CharString index="2">
            641 657 rmoveto
            110 callgsubr
            -25 hhcurveto
            -25 -43 0 2 -23 -30 callsubr
            80 0 -47 -25 hvcurveto
            -356 vlineto
            -134 -87 -85 -95 -51 -46 27 42 -28 vhcurveto
            -32 48 -4 62 35 vvcurveto
            388 -97 callsubr
            -383 vlineto
            -144 109 -101 116 130 75 133 98 vhcurveto
            380 vlineto
            56 51 6 29 vhcurveto
            return
          </CharString>
          <CharString index="3">
            hstemhm
            hintmask 11100000
            -106 callgsubr
            return
          </CharString>
          <CharString index="4">
            -20 -104 callsubr
            hintmask 00011000
            return
          </CharString>
          <CharString index="5">
            -72 callgsubr
            -203 146 -153 167 171 143 156 200 vhcurveto
            -76 13 rmoveto
            -241 -127 -110 -110 -114 -124 114 237 236 136 92 101 106 132 -95 -233 vhcurveto
            return
          </CharString>
          <CharString index="6">
            21 -17 15 -19 -21 -15 -17 -19 -22 17 -15 19 21 15 17 20 vhcurveto
            return
          </CharString>
          <CharString index="7">
            rmoveto
            -93 callgsubr
            endchar
          </CharString>
          <CharString index="8">
            rmoveto
            19 -15 20 -32 vhcurveto
            hintmask 000010010001010000000000
            -40 -35 -19 -26 -28 hvcurveto
            27 -30 -36 10 -32 hhcurveto
            -79 -68 -62 -83 -57 33 -36 10 -10 hvcurveto
            hintmask 101000000010100100000000
            -30 -35 0 -41 -5 vvcurveto
            -26 10 -38 34 -21 vhcurveto
            -52 -13 -41 -40 -50 vvcurveto
            -72 95 -53 114 110 99 51 75 136 -148 0 -77 vhcurveto
            hintmask 010100100000111000000000
            -23 -41 0 1 -5 hvcurveto
            -31 5 -21 28 35 vvcurveto
            9 0 22 19 22 vhcurveto
            -15 19 33 -17 40 hhcurveto
            79 68 62 83 26 -8 40 -30 31 hvcurveto
            30 28 41 10 23 hhcurveto
            4 6 0 -3 5 hvcurveto
            -4 -1 -9 -4 -16 vvcurveto
            hintmask 000001000000000010000000
            -13 9 -9 13 vhcurveto
            hintmask 100100110001011010000000
            15 8 10 13 hvcurveto
            -160 -114 rmoveto
            -20 0 -108 -88 -88 0 108 20 20 0 108 88 88 0 -108 -20 vhcurveto
            107 -372 rmoveto
            -55 -69 -53 -100 vhcurveto
            hintmask 010000000010000000000000
            -100 -69 53 55 31 17 29 22 16 hvcurveto
            hintmask 001000000000000100000000
            17 25 10 0 68 hhcurveto
            82 114 0 -93 hvcurveto
            return
          </CharString>
          <CharString index="9">
            rmoveto
            -16 hlineto
            -89 -2 -57 -57 -64 hhcurveto
            -64 -57 56 90 -2 hvcurveto
            -16 hlineto
            -103 2 61 -71 76 hhcurveto
            76 61 71 103 2 hvcurveto
            return
          </CharString>
          <CharString index="10">
            vlineto
            45 11 0 69 66 callgsubr
            -53 0 -31 hhcurveto
            -31 -53 0 2 -29 hvcurveto
            -50 callgsubr
            return
          </CharString>
          <CharString index="11">
            385 251 rmoveto
            102 -54 89 -114 -106 -84 -101 -123 -130 95 -96 106 112 44 106 21 7 -8 0 0 -7 -1 -2 -12 -4 vhcurveto
            -68 -22 -55 -34 -52 hhcurveto
            -43 -43 24 44 -27 hvcurveto
            -31 51 0 59 47 vvcurveto
            290 hlineto
            return
          </CharString>
          <CharString index="12">
            474 404 rmoveto
            26 vlineto
            -63 -2 rlineto
            -21 -33 0 2 -20 -30 callsubr
            38 -3 1 -28 -8 vvcurveto
            -10 -2 -5 -5 -12 vhcurveto
            -109 -270 -119 292 rlineto
            -5 12 0 8 0 vvcurveto
            22 23 2 24 vhcurveto
            98 callsubr
            -43 0 -25 hhcurveto
            -27 -32 0 2 -22 -30 callsubr
            54 6 -5 -32 13 hvcurveto
            149 -367 rlineto
            -118 -45 -26 -69 -63 hhcurveto
            -11 -25 3 18 -18 hvcurveto
            23 2 10 14 17 vvcurveto
            17 -12 15 -20 -22 -11 -15 -18 -40 41 -29 45 58 36 56 50 20 vhcurveto
            178 439 rlineto
            61 25 45 1 14 hhcurveto
            return
          </CharString>
          <CharString index="13">
            690 657 rmoveto
            26 vlineto
            -2 -23 -26 50 callsubr
            -40 0 2 -24 -30 callsubr
            25 -1 13 -13 -19 vvcurveto
            -12 -5 -8 -8 -13 vhcurveto
            -180 -289 -197 315 rlineto
            -7 12 -1 1 7 vvcurveto
            20 35 0 14 24 callgsubr
            -32 -49 0 -33 hhcurveto
            -26 -50 0 2 -24 -30 callsubr
            57 16 -3 -29 18 hvcurveto
            221 -352 rlineto
            -202 26 callsubr
            52 -44 callsubr
            26 vlineto
            -72 -9 0 49 hvcurveto
            198 vlineto
            201 321 rlineto
            62 39 54 1 18 hhcurveto
            return
          </CharString>
          <CharString index="14">
            rmoveto
            -151 117 -151 -117 10 -16 140 66 140 -66 rlineto
            return
          </CharString>
          <CharString index="15">
            -20 hstemhm
            27 64 240 53 hintmask 11010011
            -96 callsubr
            hintmask 00100000
            -28 callsubr
            hintmask 01010001
            -65 callgsubr
            return
          </CharString>
          <CharString index="16">
            -20 53 callsubr
            hintmask 11001100
            -102 callsubr
            hintmask 00110000
            return
          </CharString>
          <CharString index="17">
            430 214 rmoveto
            59 -20 57 -39 45 vhcurveto
            -2 2 -2 3 -2 2 rrcurveto
            36 7 24 36 39 vvcurveto
            26 -17 23 -24 -28 -14 -20 -21 -21 14 -21 28 4 5 1 1 4 vhcurveto
            -10 -18 -17 -14 -20 -4 rrcurveto
            29 -34 -41 17 -45 hhcurveto
            -54 -51 -26 -41 -35 hvcurveto
            -39 -45 -20 -57 -59 vvcurveto
            -58 20 -56 39 -43 vhcurveto
            -40 36 50 -25 54 hhcurveto
            54 51 25 40 36 hvcurveto
            39 43 20 56 58 vvcurveto
            -65 10 rmoveto
            -54 -3 -55 -29 -45 vhcurveto
            -36 -22 -38 -24 -43 hhcurveto
            -42 -38 24 36 -22 hvcurveto
            -29 45 -3 55 54 vvcurveto
            50 4 52 28 42 vhcurveto
            35 23 38 23 41 hhcurveto
            42 38 -23 -35 23 hvcurveto
            28 -42 4 -52 -50 vvcurveto
            return
          </CharString>
          <CharString index="18">
            137 hlineto
            155 18 -62 -133 14 hvcurveto
            18 hlineto
            -24 221 rlineto
            -506 -26 hlineto
            -61 callsubr
            return
          </CharString>
          <CharString index="19">
            22 -2 74 -52 -22 -19 -15 -26 -26 19 -15 22 9 17 3 16 9 vhcurveto
            2 -11 1 -4 -17 vvcurveto
            -63 -25 -58 -39 -41 vhcurveto
            -4 -4 -2 -3 -4 vvcurveto
            -4 4 -4 4 7 71 70 110 vhcurveto
            return
          </CharString>
          <CharString index="20">
            rmoveto
            0 0 2 -9 8 vhcurveto
            -136 122 rlineto
            8 -10 -5 5 -8 hhcurveto
            -17 -13 -15 -17 3 hvcurveto
            2 -11 3 -1 14 -9 168 -105 rcurveline
            1 2 7 11 0 vvcurveto
            endchar
          </CharString>
          <CharString index="21">
            542 253 rmoveto
            -18 hlineto
            -99 -8 -13 -128 -171 hhcurveto
            -93 hlineto
            -40 -2 5 34 hvcurveto
            546 vlineto
            36 2 10 76 vhcurveto
            22 26 hlineto
            -2 -41 -48 0 -41 hhcurveto
            -31 -56 -35 callsubr
            467 vlineto
            return
          </CharString>
          <CharString index="22">
            rmoveto
            15 -15 11 -13 -16 -4 -10 -14 -6 vhcurveto
            -55 -137 -4 -12 rlineto
            -3 11 -6 3 -1 vhcurveto
            89 133 rlineto
            10 14 0 6 4 vvcurveto
            157 hmoveto
            15 -15 11 -13 -16 -4 -10 -14 -6 vhcurveto
            -55 -137 -4 -12 rlineto
            -3 11 -6 3 -1 vhcurveto
            89 133 rlineto
            10 14 0 6 4 vvcurveto
            endchar
          </CharString>
          <CharString index="23">
            -115 -11 callgsubr
            56 8 -6 -48 hvcurveto
            -278 -87 callgsubr
            43 0 25 hhcurveto
            24 41 0 -2 23 hvcurveto
            return
          </CharString>
          <CharString index="24">
            131 66 cntrmask 11100000
            685 hmoveto
            26 vlineto
            -48 -15 6 46 -30 hvcurveto
            -223 341 173 173 36 35 38 28 56 2 rlinecurve
            26 vlineto
            -65 -2 rlineto
            -27 -47 0 2 -26 -30 callsubr
            26 -2 4 -18 -7 vvcurveto
            -7 -4 -11 -4 -6 vhcurveto
            -332 -333 rlineto
            339 -97 callsubr
            -541 -80 callgsubr
            26 vlineto
            -69 -11 0 45 hvcurveto
            177 vlineto
            128 127 189 -290 rlineto
            6 -10 7 -13 -10 vvcurveto
            -26 -28 0 -13 124 callsubr
            46 0 33 hhcurveto
            24 41 0 -2 23 hvcurveto
            return
          </CharString>
          <CharString index="25">
            -89 callsubr
            vlineto
            hintmask 1000000001000000
            520 hlineto
            hintmask 0000000000100000
            return
          </CharString>
          <CharString index="26">
            11 0 2 18 hvcurveto
            237 -2 callgsubr
            -12 -7 vhcurveto
            -44 -84 rlineto
            62 -49 -60 36 -77 hhcurveto
            -171 -155 -151 -206 return
          </CharString>
          <CharString index="27">
            621 234 rmoveto
            10 0 4 -9 -8 0 -3 -9 -1 vhcurveto
            -140 -8 -100 -86 -108 hhcurveto
            -102 -163 72 260 261 166 70 97 -3 callsubr
            -81 callsubr
            return
          </CharString>
          <CharString index="28">
            -84 callgsubr
            2 return
          </CharString>
          <CharString index="29">
            -73 callgsubr
            vlineto
            2 29 53 -44 callsubr
            return
          </CharString>
          <CharString index="30">
            -20 79 callsubr
            hintmask 0001010010000000
            -15 callgsubr
            hintmask 0001000001000000
            -12 -23 -25 -16 -29 -4 rrcurveto
            40 vlineto
            hintmask 0010000000000000
            -1 -4 -4 -1 -3 hhcurveto
            hintmask 1101000101000000
            -68 callsubr
            hintmask 0010000000000000
            -116 -2 rlineto
            hintmask 1101000110000000
            -41 callsubr
            55 52 27 44 36 hvcurveto
            hintmask 0100000001000000
            9 callgsubr
            hintmask 0000101000000000
            return
          </CharString>
          <CharString index="31">
            rmoveto
            -101 callsubr
            156 hmoveto
            -101 callsubr
            endchar
          </CharString>
          <CharString index="32">
            -103 callsubr
            174 return
          </CharString>
          <CharString index="33">
            rmoveto
            0 0 2 -7 9 vhcurveto
            -113 144 rlineto
            12 -10 -4 5 -12 hhcurveto
            -14 -13 -12 -15 -11 3 -2 12 -11 hvcurveto
            147 -133 rlineto
            endchar
          </CharString>
          <CharString index="34">
            -20 119 callsubr
            hintmask 0100100100000000
            -64 callsubr
            hintmask 0001000000000000
            2 callsubr
            hintmask 1010100101000000
            -52 callsubr
            hintmask 1000000011000000
            13 callgsubr
            hintmask 0000011000000000
            return
          </CharString>
          <CharString index="35">
            26 vlineto
            -64 -4 4 39 hvcurveto
            return
          </CharString>
          <CharString index="36">
            521 261 rmoveto
            -18 hlineto
            -131 -9 -7 -102 -191 hhcurveto
            -174 hlineto
            394 635 rlineto
            19 -1 1 -21 vhcurveto
            -425 hlineto
            -10 -221 rlineto
            18 hlineto
            114 6 30 81 162 hhcurveto
            165 hlineto
            -387 -625 rlineto
            -7 -11 0 -1 -7 vvcurveto
            -13 2 0 20 vhcurveto
            439 hlineto
            return
          </CharString>
          <CharString index="37">
            26 -19 15 -22 -9 -17 -3 -16 -9 vhcurveto
            -2 11 -1 4 17 vvcurveto
            63 25 58 39 41 vhcurveto
            4 4 2 3 4 vvcurveto
            4 -4 4 -4 -7 -71 -70 -110 -22 2 -74 52 22 19 15 26 vhcurveto
            return
          </CharString>
          <CharString index="38">
            -26 vlineto
            18 24 0 -10 11 hvcurveto
            11 -9 0 -19 -17 vvcurveto
            -185 vlineto
            -83 -49 -70 -68 -33 -26 7 19 -15 vhcurveto
            -15 19 -3 24 43 vvcurveto
            318 71 callsubr
            19 24 0 -10 10 hvcurveto
            11 -9 0 -19 -17 vvcurveto
            -226 vlineto
            -39 9 -34 24 -24 vhcurveto
            return
          </CharString>
          <CharString index="39">
            -95 2 rlineto
            -26 vlineto
            22 23 -3 -13 17 hvcurveto
            15 -10 6 -18 -18 vvcurveto
            -367 vlineto
            -59 -17 -55 -35 -42 vhcurveto
            -38 -32 -47 -23 -48 hhcurveto
            -46 -43 23 38 -28 hvcurveto
            -30 41 -11 52 63 vvcurveto
            394 vlineto
            12 4 13 10 4 vhcurveto
            6 14 32 0 23 hhcurveto
            26 vlineto
            return
          </CharString>
          <CharString index="40">
            74 11 83 17 hvcurveto
            -191 420 rmoveto
            -129 -106 -25 -75 vhcurveto
            -114 268 hlineto
            34 2 5 40 vhcurveto
            73 hlineto
            83 97 -29 -124 hvcurveto
            return
          </CharString>
          <CharString index="41">
            -46 callgsubr
            183 hmoveto
            -55 callsubr
          </CharString>
          <CharString index="42">
            -26 vlineto
            -51 callgsubr
            return
          </CharString>
          <CharString index="43">
            333 124 rmoveto
            51 -27 27 -13 12 vhcurveto
            -30 31 -35 7 -42 8 rrcurveto
            -55 12 -70 14 61 vvcurveto
            26 14 55 101 107 6 -100 -32 2 vhcurveto
            -5 1 5 -1 3 hhcurveto
            9 0 3 17 hvcurveto
            112 vlineto
            return
          </CharString>
          <CharString index="44">
            3 12 -15 5 -5 -10 rrcurveto
            -36 -17 -28 -20 -32 hhcurveto
            -36 -51 23 46 return
          </CharString>
          <CharString index="45">
            -88 callgsubr
            hintmask 1000000000001000
            53 callgsubr
            return
          </CharString>
          <CharString index="46">
            -66 callgsubr
            -539 -67 callgsubr
            return
          </CharString>
          <CharString index="47">
            796 49 callsubr
            -127 vlineto
            -21 -1 -1 -15 -6 hvcurveto
            -216 -586 -216 586 rlineto
            15 -6 -1 1 -21 hhcurveto
            -128 72 callgsubr
            -514 vlineto
            -25 0 -47 -80 vhcurveto
            -26 vlineto
            2 23 42 112 callgsubr
            42 0 -2 23 hvcurveto
            26 vlineto
            -80 0 47 25 hvcurveto
            555 1 vlineto
            235 -637 rlineto
            -10 4 2 -6 8 hhcurveto
            8 2 6 10 4 hvcurveto
            237 642 rlineto
            1 -587 hlineto
            -73 callgsubr
            vlineto
            2 27 54 0 29 hhcurveto
            29 55 98 callgsubr
            return
          </CharString>
          <CharString index="48">
            419 657 rmoveto
            26 vlineto
            -98 -2 rlineto
            -42 -46 0 2 -42 hvcurveto
            -26 24 vlineto
            78 2 -11 -36 hvcurveto
            -463 vlineto
            -92 -50 -55 -51 -26 -60 12 61 -26 vhcurveto
            -1 4 5 -1 4 hhcurveto
            19 24 13 30 24 -17 18 -25 -24 -19 -15 -29 -67 61 -61 82 78 72 56 84 12 hvcurveto
            1 7 0 2 34 vvcurveto
            420 vlineto
            17 0 28 2 6 vhcurveto
            19 4 23 0 31 hhcurveto
            return
          </CharString>
          <CharString index="49">
            rmoveto
            -10 16 -140 -66 -140 66 -12 -16 151 -117 rlineto
            endchar
          </CharString>
          <CharString index="50">
            -8 callgsubr
            165 vlineto
            96 41 90 75 7 7 -1 -3 7 vhcurveto
            0 -22 -7 -26 vvcurveto
            -24 19 -10 15 12 22 7 28 vhcurveto
            return
          </CharString>
          <CharString index="51">
            673 340 rmoveto
            101 -37 103 -78 74 vhcurveto
            73 109 -14 10 -72 -106 rlineto
            37 -51 -58 31 -76 hhcurveto
            -170 -144 -156 -203 -63 13 -114 102 -98 hvcurveto
            -73 -109 14 -10 72 106 rlineto
            -62 79 72 -6 34 hhcurveto
            171 143 156 200 hvcurveto
            -147 264 rmoveto
            -346 -511 rlineto
            -44 59 -24 76 112 vvcurveto
            284 166 59 81 92 60 -60 -19 15 vhcurveto
            81 -264 rmoveto
            -278 -162 -62 -86 -88 -53 53 25 -26 vhcurveto
            346 512 rlineto
            48 -63 21 -82 -105 vvcurveto
            return
          </CharString>
          <CharString index="52">
            -88 callsubr
            endchar
          </CharString>
          <CharString index="53">
            668 -8 16 110 15 99 16 -13 15 46 15 115 16 hstemhm
            42 61 28 53 123 53 -53 54 232 53 -53 54 hintmask 1110111110100000
            647 253 rmoveto
            100 -51 89 -104 -46 -55 -20 -63 -43 vhcurveto
            48 -25 -55 35 -64 hhcurveto
            -79 -57 -62 -66 -37 30 -2 6 13 23 8 28 25 -19 11 -17 -4 -5 -1 -1 -3 hvcurveto
            64 21 56 17 33 hhcurveto
            48 57 -40 -90 hvcurveto
            -48 vlineto
            -57 -3 -56 -3 -63 -30 rrcurveto
            -55 -25 -34 -47 -51 vvcurveto
            -73 83 -24 59 81 58 46 49 20 vhcurveto
            -77 50 68 -18 42 hhcurveto
            106 37 111 15 6 -3 2 -5 -7 -1 -2 -11 -3 hvcurveto
            -72 -21 -50 -31 -47 hhcurveto
            -30 -51 13 61 -37 hvcurveto
            hintmask 0001000010010000
            -31 52 0 61 38 vvcurveto
            263 hlineto
            23 1 1 17 hvcurveto
            -54 -3 rmoveto
            hintmask 1001011001100000
            -232 hlineto
            143 10 79 33 40 hhcurveto
            98 4 -141 -35 1 hvcurveto
            -277 -117 rmoveto
            -70 -58 -55 -67 -52 -36 39 42 vhcurveto
            hintmask 0110000010000000
            57 44 82 160 4 vhcurveto
            -28 0 -14 6 -28 vhcurveto
            3 -14 0 -5 -10 vvcurveto
            endchar
          </CharString>
          <CharString index="54">
            rmoveto
            22 -235 vlineto
            -117 -2 13 19 -4 hvcurveto
            -18 hlineto
            -29 -187 rlineto
            18 hlineto
            3 19 7 51 12 19 rrcurveto
            8 6 74 0 17 hhcurveto
            220 hlineto
            -111 -165 rlineto
            -74 -111 -51 -150 -131 vvcurveto
            -12 0 -34 36 36 0 34 13 vhcurveto
            46 vlineto
            164 28 108 46 69 vhcurveto
            endchar
          </CharString>
          <CharString index="55">
            -55 callgsubr
            hintmask 0000000010000000
            14 -3 0 1 -8 hhcurveto
            hintmask 0000000100000000
            -9 callgsubr
            return
          </CharString>
          <CharString index="56">
            -6 callgsubr
            183 hmoveto
            -70 callsubr
            endchar
          </CharString>
          <CharString index="57">
            639 459 rmoveto
            -17 221 rlineto
            -577 hlineto
            -17 -221 rlineto
            18 hlineto
            166 13 14 29 154 hhcurveto
            return
          </CharString>
          <CharString index="58">
            942 -16 16 93 callsubr
            0 16 hstemhm
            59 74 239 74 31 56 227 18 99 18 -10 18 0 18 hintmask 0111000111010000
            921 253 rmoveto
            -18 hlineto
            -148 -22 -12 -79 -170 hhcurveto
            -124 hlineto
            -40 -2 5 34 hvcurveto
            277 115 vlineto
            99 13 -31 -86 hvcurveto
            18 260 -18 hlineto
            -85 -12 -32 -100 vhcurveto
            -115 250 hlineto
            34 2 5 40 vhcurveto
            125 hlineto
            148 15 -65 -130 14 hvcurveto
            18 hlineto
            -24 221 rlineto
            -362 hlineto
            -13 -14 0 7 -38 hvcurveto
            hintmask 1000111000100000
            8 -41 -13 1 -19 hhcurveto
            -163 -149 -152 -207 -205 149 -151 163 18 13 1 8 44 hvcurveto
            7 37 13 0 13 hhcurveto
            376 hlineto
            hintmask 0101011100010000
            -408 186 rmoveto
            -148 -23 -38 -81 -128 -112 152 202 196 117 133 122 81 24 -36 -150 vhcurveto
            endchar
          </CharString>
          <CharString index="59">
            rmoveto
            103 -2 -61 71 -76 hhcurveto
            -76 -61 -71 -103 -2 hvcurveto
            16 hlineto
            89 2 57 57 64 hhcurveto
            64 57 -56 -90 2 hvcurveto
            endchar
          </CharString>
          <CharString index="60">
            rmoveto
            120 -78 93 -97 -51 -43 -19 -36 -34 vhcurveto
            225 vlineto
            -4 10 41 -13 42 hhcurveto
            93 51 50 29 29 hvcurveto
            8 0 5 -6 vhcurveto
            0 -3 0 -8 -4 vhcurveto
            -15 -35 -41 -12 -50 hhcurveto
            hintmask 0000010000000000
            -30 -45 4 22 -49 hvcurveto
            hintmask 0000001000000000
            -11 5 -3 0 0 vvcurveto
            return
          </CharString>
          <CharString index="61">
            -8 -1 -6 -4 hvcurveto
            -65 -5 -29 -22 -31 hhcurveto
            -55 -6 63 61 -6 hvcurveto
            -3 21 -2 15 -2 22 rrcurveto
            return
          </CharString>
          <CharString index="62">
            450 -115 rmoveto
            -63 callsubr
            40 39 36 35 24 hvcurveto
            -6 9 11 -3 12 hhcurveto
            21 53 14 79 hvcurveto
            56 -18 -57 vlineto
            -61 -27 -8 -13 -41 0 52 44 vhcurveto
            144 vlineto
            66 0 35 -42 39 vhcurveto
            33 -37 -43 10 -34 hhcurveto
            -79 -57 -62 -66 -37 30 -2 6 13 23 8 28 25 -19 11 -17 -4 -5 -1 -1 -3 hvcurveto
            63 21 54 18 35 hhcurveto
            50 55 -44 -84 hvcurveto
            -44 vlineto
            -59 -2 -71 -8 -56 -30 rrcurveto
            -63 -35 -18 -50 -38 vvcurveto
            -77 90 -22 53 55 51 31 57 22 vhcurveto
            1 -23 9 -20 13 -16 rrcurveto
            -47 -33 -56 -57 52 callsubr
            -153 254 rmoveto
            -87 -62 -44 -55 -50 -39 37 46 30 13 53 58 32 vhcurveto
            48 27 55 4 32 2 rrcurveto
            return
          </CharString>
          <CharString index="63">
            62 callgsubr
            53 24 callsubr
            return
          </CharString>
          <CharString index="64">
            vvcurveto
            -46 47 -44 64 50 52 39 57 16 vhcurveto
            return
          </CharString>
          <CharString index="65">
            199 -39 callsubr
            return
          </CharString>
          <CharString index="66">
            -117 2 rlineto
            -26 vlineto
            23 32 0 -6 14 hvcurveto
            10 -4 4 -13 -12 vvcurveto
            -394 vlineto
            -64 23 -62 42 -46 vhcurveto
            -45 42 57 -26 61 hhcurveto
            return
          </CharString>
          <CharString index="67">
            -106 -50 -79 -55 -26 -65 24 161 162 65 23 26 55 50 -79 -106 vhcurveto
            return
          </CharString>
          <CharString index="68">
            605 rmoveto
            -101 callsubr
            132 hmoveto
            -101 callsubr
            return
          </CharString>
          <CharString index="69">
            459 404 16 -16 26 -16 16 hstemhm
            99 51 27 56 -31 51 101 58 -32 58 cntrmask 11100000
            hintmask 11110110
            438 174 rmoveto
            114 -69 102 -100 30 vhcurveto
            71 17 72 51 74 vvcurveto
            79 -72 61 -86 -66 -89 -42 -105 vhcurveto
            -125 -68 -26 68 -335 -79 callsubr
            19 44 0 21 hhcurveto
            17 18 -2 0 hvcurveto
            557 vlineto
            106 70 23 33 56 45 -47 -75 -67 -45 -60 -93 -7 vhcurveto
            -11 -1 -3 0 -7 vvcurveto
            -7 2 0 10 -1 vhcurveto
            hintmask 11101001
            107 -10 59 -108 -123 vvcurveto
            -118 -61 -47 -50 -8 -30 0 22 -24 vhcurveto
            12 2 14 7 19 vvcurveto
            21 -17 7 -11 -9 -19 -5 -24 -39 42 -26 52 81 86 68 114 vhcurveto
            endchar
          </CharString>
          <CharString index="70">
            173 rmoveto
            97 -80 70 -95 11 vhcurveto
            76 16 73 68 91 vvcurveto
            78 -79 57 -90 -91 -80 -56 -80 -35 26 -6 13 21 18 13 26 26 -18 13 -21 vhcurveto
            hintmask 0000101000100000
            -4 -5 0 -2 -4 hvcurveto
            66 29 79 12 35 hhcurveto
            35 66 -17 -96 -28 -4 -50 -34 -44 hvcurveto
            -30 -39 -34 -2 -33 -3 rrcurveto
            -5 -23 -2 -4 hhcurveto
            hintmask 0000000000010000
            -7 -1 -4 -1 -7 vvcurveto
            hintmask 0001100000000110
            -7 1 -1 20 vhcurveto
            49 hlineto
            89 39 -77 -89 hvcurveto
            hintmask 1100000001010000
            -120 -64 -46 -58 -53 -86 26 77 -27 vhcurveto
            -2 5 5 0 5 hhcurveto
            hintmask 0010000000100000
            24 18 16 26 hvcurveto
            hintmask 1001000000001010
            29 -22 13 -20 -17 -26 -8 -37 -92 90 -72 106 111 85 87 102 vhcurveto
            endchar
          </CharString>
          <CharString index="71">
            459 -80 -21 93 16 418 16 90 -20 hstemhm
            33 53 -20 53 253 53 hintmask 00111000
            425 214 rmoveto
            71 -29 71 -56 46 vhcurveto
            65 122 -13 8 -65 -120 rlineto
            13 -19 -36 17 -43 hhcurveto
            -107 -89 -101 -127 hvcurveto
            hintmask 11000110
            -74 31 -67 55 -43 vhcurveto
            -66 -123 13 -8 66 122 rlineto
            -19 30 33 -10 34 hhcurveto
            105 91 95 127 hvcurveto
            -110 177 rmoveto
            -183 -337 rlineto
            hintmask 01101010
            -36 40 -10 54 66 vvcurveto
            206 123 6 20 42 31 -23 -12 13 vhcurveto
            57 -177 rmoveto
            -32 -2 -59 -27 -46 vhcurveto
            -48 -28 -45 -21 -41 hhcurveto
            -32 -30 12 21 -23 hvcurveto
            183 337 rlineto
            41 -49 4 -69 -46 vvcurveto
            endchar
          </CharString>
          <CharString index="72">
            0 2 -29 hvcurveto
            -50 callgsubr
            -541 -67 callgsubr
            return
          </CharString>
          <CharString index="73">
            2 0 1 -1 1 vhcurveto
            -63 67 -48 79 -29 87 rrcurveto
            3 -1 -2 1 -3 hhcurveto
            -4 hlineto
            -3 -3 -2 -4 0 0 -1 1 hvcurveto
            20 -83 34 -79 47 -72 -47 -71 -34 -79 -20 -84 rrcurveto
            -1 0 -1 0 42 callgsubr
            hvcurveto
            4 hlineto
            3 2 2 2 1 hvcurveto
            29 87 48 80 63 66 rrcurveto
            1 1 0 2 1 vvcurveto
            return
          </CharString>
          <CharString index="74">
            945 657 rmoveto
            26 vlineto
            -70 -2 rlineto
            -25 23 callgsubr
            45 -1 19 -25 -24 vvcurveto
            -7 -1 -4 -4 -11 vhcurveto
            return
          </CharString>
          <CharString index="75">
            26 vlineto
            -69 -11 0 45 hvcurveto
            return
          </CharString>
          <CharString index="76">
            333 386 rmoveto
            32 -32 20 -34 -76 -33 -74 -35 -10 vhcurveto
            -1 109 hlineto
            return
          </CharString>
          <CharString index="77">
            hvcurveto
            -26 vlineto
            return
          </CharString>
          <CharString index="78">
            384 118 rmoveto
            4 -1 3 -7 -7 -1 -1 -13 -4 vhcurveto
            -81 -26 -57 -20 -43 hhcurveto
            return
          </CharString>
          <CharString index="79">
            4 4 0 2 10 vvcurveto
            -54 -1 rmoveto
            return
          </CharString>
          <CharString index="80">
            18 callgsubr
            25 78 callgsubr
            110 vlineto
            69 63 101 -150 rlineto
            12 -18 10 -14 -13 vvcurveto
            -18 -18 -3 -12 vhcurveto
            -26 vlineto
            9 callsubr
            return
          </CharString>
          <CharString index="81">
            rmoveto
            23 -340 -23 vlineto
            endchar
          </CharString>
          <CharString index="82">
            rlineto
            -5 14 0 4 0 vvcurveto
            28 44 0 20 66 callgsubr
            -50 0 -31 hhcurveto
            -26 23 callgsubr
            return
          </CharString>
          <CharString index="83">
            431 214 rmoveto
            128 -93 100 -109 -109 -93 -100 -128 -112 74 -89 93 -18 vhcurveto
            -37 -33 -33 -43 -40 -43 callsubr
            -63 callsubr
            20 10 19 14 17 hvcurveto
            10 12 11 10 13 9 rrcurveto
            109 1 92 95 126 vvcurveto
            -64 8 rmoveto
            -39 -2 -60 -27 -48 vhcurveto
            -46 -28 -43 -19 -38 hhcurveto
            -47 -40 28 39 -23 hvcurveto
            -25 45 -3 56 44 vvcurveto
            42 2 52 26 45 vhcurveto
            33 20 39 32 51 hhcurveto
            45 38 -25 -35 24 hvcurveto
            31 -47 0 -66 -31 vvcurveto
            return
          </CharString>
          <CharString index="84">
            25 -20 16 -21 -20 -21 -16 -25 -25 20 -16 21 20 21 16 25 vhcurveto
            return
          </CharString>
          <CharString index="85">
            rmoveto
            82 -119 31 -65 vhcurveto
            -11 hlineto
            -62 -6 -83 -25 -15 -72 rrcurveto
            -3 -1 -4 -3 vvcurveto
            -5 1 -4 7 -1 vhcurveto
            1 hlineto
            11 -2 14 9 3 hvcurveto
            56 23 74 21 58 hhcurveto
            56 81 -16 -64 23 hvcurveto
            -11 2 -2 -9 14 hhcurveto
            4 1 2 4 5 vvcurveto
            endchar
          </CharString>
          <CharString index="86">
            -68 -69 -79 -122 -122 68 -79 69 67 57 84 117 return
          </CharString>
          <CharString index="87">
            707 0 26 303 26 302 48 callgsubr
            -257 -80 -26 80 -258 -67 callgsubr
            318 vlineto
            161 129 148 188 hvcurveto
            -74 hmoveto
            -141 -41 -57 -19 -27 vhcurveto
            -31 -24 -57 -54 -95 hhcurveto
            -112 hlineto
            -40 -2 5 34 hvcurveto
            264 157 26 -157 263 93 callgsubr
          </CharString>
          <CharString index="88">
            135 rmoveto
            274 -112 57 -76 -99 -95 -87 -134 -124 81 -92 102 84 37 78 33 10 vhcurveto
            -39 vlineto
            -220 -91 -68 -75 -23 -56 3 39 -23 vhcurveto
            hintmask 1100001010000000
            26 -4 19 14 25 vvcurveto
            27 -22 9 -14 -9 -27 -4 -34 -68 59 -31 72 115 117 126 220 vhcurveto
            -70 87 rmoveto
            -71 -32 -106 -95 vhcurveto
            hintmask 0000010000000000
            -27 -38 5 60 -31 hvcurveto
            hintmask 0011100100000000
            -21 39 0 46 49 vvcurveto
            59 0 41 28 44 vhcurveto
            21 14 26 34 58 hhcurveto
            118 0 -181 -40 hvcurveto
            endchar
          </CharString>
          <CharString index="89">
            18 -1 1 -6 -4 -1 -1 return
          </CharString>
          <CharString index="90">
            -119 -78 callgsubr
            -234 vlineto
            5 -4 -41 64 -81 hhcurveto
            -102 -99 -91 -132 -131 93 -92 98 85 44 66 7 5 hvcurveto
            -73 vlineto
            return
          </CharString>
          <CharString index="91">
            276 89 callgsubr
            177 68 11 16 hstemhm
            34 68 0 51 92 68 hintmask 11011000
            313 641 rmoveto
            38 -36 23 -40 -57 -78 -47 -106 vhcurveto
            -119 -80 -26 80 -335 -87 callgsubr
            46 0 26 hhcurveto
            29 51 98 callgsubr
            26 vlineto
            hintmask 01110110
            -8 callgsubr
            333 114 26 -116 121 vlineto
            83 42 52 43 13 15 -4 -7 10 vhcurveto
            -8 -2 -21 -7 -25 vvcurveto
            -26 20 -8 14 14 20 8 26 vhcurveto
            endchar
          </CharString>
          <CharString index="92">
            26 vlineto
            -19 -24 0 9 -10 hvcurveto
            -11 9 0 20 16 vvcurveto
            294 vlineto
            51 8 43 33 48 vvcurveto
            return
          </CharString>
          <CharString index="93">
            281 -115 rmoveto
            -63 callsubr
            20 9 19 14 17 hvcurveto
            15 17 17 14 20 10 rrcurveto
            34 43 24 callsubr
            -7 callsubr
            541 vlineto
            45 12 0 72 24 callgsubr
            -32 -51 0 -34 hhcurveto
            -34 -51 0 2 -32 -30 callsubr
            72 12 0 -45 hvcurveto
            -541 vlineto
            -45 -12 0 -72 vhcurveto
            -26 vlineto
            83 2 rlineto
            -40 -33 -38 -47 126 callsubr
            return
          </CharString>
          <CharString index="94">
            321 rmoveto
            61 -1 104 -42 80 vhcurveto
            70 -37 -59 25 -52 hhcurveto
            -48 -61 -22 -72 -38 hvcurveto
            -40 -75 -4 -93 -78 vvcurveto
            -57 1 -87 31 -76 vhcurveto
            -103 43 77 -14 39 hhcurveto
            46 70 19 95 41 hvcurveto
            30 69 4 81 73 vvcurveto
            -64 11 rmoveto
            -65 0 -80 -12 -59 vhcurveto
            -109 -21 -59 -19 -35 hhcurveto
            -64 -38 55 76 -14 hvcurveto
            -11 59 0 86 56 vvcurveto
            77 0 64 13 61 vhcurveto
            85 19 56 26 39 hhcurveto
            41 53 -27 -82 19 hvcurveto
            13 -57 1 -67 -80 vvcurveto
            endchar
          </CharString>
          <CharString index="95">
            16 vstem
            179 20 callgsubr
            return
          </CharString>
          <CharString index="96">
            225 rmoveto
            64 -8 66 -40 50 vhcurveto
            43 -34 -54 18 -55 hhcurveto
            -55 -54 -18 -43 -34 hvcurveto
            -40 -50 -8 -66 -64 vvcurveto
            -64 8 -66 40 -50 vhcurveto
            -43 34 54 -18 55 hhcurveto
            55 54 18 43 34 hvcurveto
            40 50 8 66 64 vvcurveto
            -64 hmoveto
            -58 -3 -60 -29 -50 vhcurveto
            -35 -20 -35 -22 -40 hhcurveto
            -40 -35 22 35 -20 hvcurveto
            -29 50 -3 60 58 vvcurveto
            58 3 60 29 50 vhcurveto
            35 20 35 22 40 hhcurveto
            40 35 -22 -35 20 hvcurveto
            29 -50 3 -60 -58 vvcurveto
            endchar
          </CharString>
          <CharString index="97">
            rmoveto
            22 -18 19 -23 -22 -19 -18 -23 -22 18 -19 23 22 19 18 23 vhcurveto
            return
          </CharString>
          <CharString index="98">
            1 8 29 0 18 hhcurveto
            153 15 -29 -166 13 hvcurveto
            return
          </CharString>
          <CharString index="99">
            120 rmoveto
            -9 hlineto
            -12 1 -10 -7 -2 hvcurveto
            -36 -6 -19 -12 -31 hhcurveto
            -233 hlineto
            180 106 rlineto
            67 40 64 52 80 vvcurveto
            93 -3 -127 40 -69 hhcurveto
            hintmask 01000100
            -67 -104 -34 -92 -21 12 -12 19 18 13 12 19 hvcurveto
            hintmask 00110000
            20 -16 11 -19 vhcurveto
            52 29 46 19 52 hhcurveto
            hintmask 11001010
            63 83 -29 -78 -78 -82 -68 -56 -39 hvcurveto
            -161 -115 rlineto
            -6 -6 -6 -4 -10 -4 1 -6 -3 vvcurveto
            355 hlineto
            endchar
          </CharString>
          <CharString index="100">
            26 vlineto
            -8 callgsubr
            return
          </CharString>
          <CharString index="101">
            582 471 rmoveto
            -13 13 -12 -12 -10 -10 -187 -188 rcurveline
            -188 188 -10 10 -12 12 -12 -12 rlinecurve
            -13 -13 12 -12 10 -10 188 -187 rcurveline
            -188 -188 -10 -10 -12 -12 12 -12 rlinecurve
            13 -13 12 12 10 10 188 188 rcurveline
            187 -188 10 -10 12 -12 12 12 rlinecurve
            13 13 -12 12 -10 10 -188 188 rcurveline
            188 187 10 10 12 12 -12 12 rlinecurve
            return
          </CharString>
          <CharString index="102">
            16 0 26 45 16 -16 26 237 16 307 26 return
          </CharString>
          <CharString index="103">
            187 511 rmoveto
            -101 callsubr
            156 hmoveto
            -101 callsubr
            return
          </CharString>
          <CharString index="104">
            113 82 -98 -139 19 hvcurveto
            -12 2 0 -2 9 hhcurveto
            return
          </CharString>
          <CharString index="105">
            107 rmoveto
            -101 callsubr
            156 hmoveto
            -101 callsubr
            return
          </CharString>
          <CharString index="106">
            hstemhm
            20 40 -4 59 -46 23 52 59 88 59 48 40 -10 23 return
          </CharString>
          <CharString index="107">
            hmoveto
            -72 callsubr
            625 vlineto
            return
          </CharString>
          <CharString index="108">
            -98 callsubr
            -42 146 -105 callgsubr
          </CharString>
          <CharString index="109">
            -18 callsubr
            -15 -12 vhcurveto
            -3 -4 -9 -10 -3 -4 rrcurveto
            return
          </CharString>
          <CharString index="110">
            628 0 12 callsubr
            return
          </CharString>
          <CharString index="111">
            30 61 206 53 81 18 return
          </CharString>
          <CharString index="112">
            hstemhm
            4 callsubr
            return
          </CharString>
          <CharString index="113">
            vlineto
            39 37 -22 -36 -58 -93 0 -78 hvcurveto
            -9 -18 18 hlineto
            103 123 0 76 return
          </CharString>
          <CharString index="114">
            170 rmoveto
            26 -102 451 vlineto
            21 -1 1 -18 vhcurveto
            -297 -473 rlineto
            -26 258 -98 vlineto
            -36 -2 -10 -70 vhcurveto
            -19 -26 hlineto
            2 32 54 0 34 hhcurveto
            113 callsubr
            98 vlineto
            -55 26 rmoveto
            -241 hlineto
            241 385 rlineto
            endchar
          </CharString>
          <CharString index="115">
            -234 -21 146 61 return
          </CharString>
          <CharString index="116">
            2 24 43 0 25 hhcurveto
            return
          </CharString>
          <CharString index="117">
            hmoveto
            26 -30 vlineto
            -86 -2 11 36 hvcurveto
            566 vlineto
            21 -1 1 -14 vhcurveto
            -39 -47 -59 -15 -56 -2 rrcurveto
            -3 -5 0 -2 -1 hvcurveto
            -1 -2 0 -2 -21 vvcurveto
            31 52 6 24 40 hvcurveto
            -527 vlineto
            -35 -2 -12 -86 vhcurveto
            -30 -26 hlineto
            146 2 rlineto
            endchar
          </CharString>
          <CharString index="118">
            511 -8 34 375 37 return
          </CharString>
          <CharString index="119">
            26 315 26 288 26 return
          </CharString>
          <CharString index="120">
            -23 26 35 -8 42 hhcurveto
            57 45 40 56 20 hvcurveto
            -96 vlineto
            return
          </CharString>
          <CharString index="121">
            26 215 26 440 return
          </CharString>
          <CharString index="122">
            720 -16 18 679 18 return
          </CharString>
          <CharString index="123">
            276 303 rmoveto
            15 -21 vlineto
            -62 -1 7 21 hvcurveto
            340 vlineto
            13 -1 0 -10 vhcurveto
            -28 -28 -43 -9 -40 -1 rrcurveto
            return
          </CharString>
          <CharString index="124">
            8 callsubr
            48 26 return
          </CharString>
          <CharString index="125">
            64 0 76 -41 76 30 76 -9 18 return
          </CharString>
          <CharString index="126">
            406 -200 18 116 18 hstem
            185 36 40 64 vstem
            325 -124 rmoveto
            48 -51 28 -53 vhcurveto
            52 -36 -70 6 callsubr
            hvcurveto
            endchar
          </CharString>
          <CharString index="127">
            24 101 84 -42 23 0 19 147 19 125 78 -2 78 0 23 hstemhm
            return
          </CharString>
          <CharString index="128">
            663 132 callgsubr
            -367 -644 rlineto
            -1 59 callsubr
            7 5 3 6 3 vhcurveto
            367 643 rlineto
            1 2 1 3 3 vvcurveto
            endchar
          </CharString>
          <CharString index="129">
            328 0 26 631 26 return
          </CharString>
          <CharString index="130">
            31 callgsubr
            -409 402 rmoveto
            return
          </CharString>
          <CharString index="131">
            0 -2 29 hvcurveto
            return
          </CharString>
          <CharString index="132">
            116 -57 85 -67 -21 callsubr
            vhcurveto
            -311 hmoveto
            116 -57 85 -67 -21 callsubr
            vhcurveto
            return
          </CharString>
          <CharString index="133">
            -67 callgsubr
            vlineto
            2 29 return
          </CharString>
          <CharString index="134">
            125 callsubr
            -26 37 return
          </CharString>
          <CharString index="135">
            955 5 -21 575 26 0 26 -18 26 38 26 return
          </CharString>
          <CharString index="136">
            66 callsubr
            343 21 return
          </CharString>
          <CharString index="137">
            111 12 123 96 58 49 -39 -54 14 vhcurveto
            2 -4 -5 1 -4 hhcurveto
            -20 -16 -16 -20 -20 16 -16 20 20 16 16 20 79 -65 65 -79 -111 -51 -127 -125 return
          </CharString>
          <CharString index="138">
            107 -76 callsubr
          </CharString>
          <CharString index="139">
            302 193 44 hstem
            4 251 vstem
            255 193 rmoveto
            44 -251 -44 vlineto
            endchar
          </CharString>
          <CharString index="140">
            -16 24 197 24 -23 23 176 16 103 71 43 23 hstemhm
            return
          </CharString>
          <CharString index="141">
            10 callgsubr
            631 26 return
          </CharString>
          <CharString index="142">
            vlineto
            -14 0 -19 20 20 0 19 14 vhcurveto
            return
          </CharString>
          <CharString index="143">
            451 407 rmoveto
            19 -15 20 -32 vhcurveto
            return
          </CharString>
          <CharString index="144">
            97 callgsubr
            2 29 56 0 31 hhcurveto
            41 44 callsubr
            return
          </CharString>
          <CharString index="145">
            rmoveto
            23 -188 -23 vlineto
            113 -38 0 113 hhcurveto
            endchar
          </CharString>
          <CharString index="146">
            65 -21 133 -20 hstemhm
            return
          </CharString>
          <CharString index="147">
            rmoveto
            15 1 -13 12 -15 hhcurveto
            -16 -12 -12 -15 1 hvcurveto
            18 -252 rlineto
            18 hlineto
            return
          </CharString>
          <CharString index="148">
            668 13 -21 350 26 10 26 0 26 return
          </CharString>
          <CharString index="149">
            250 58 callgsubr
            -26 37 hstemhm
            102 51 hintmask 00101100
            -4 callgsubr
            return
          </CharString>
          <CharString index="150">
            162 300 -98 callsubr
            return
          </CharString>
          <CharString index="151">
            48 0 -2 41 hvcurveto
            26 -22 vlineto
            -76 -2 10 36 hvcurveto
            return
          </CharString>
          <CharString index="152">
            514 -8 34 -26 34 361 37 -31 37 0 34 return
          </CharString>
          <CharString index="153">
            101 82 callsubr
            return
          </CharString>
          <CharString index="154">
            71 452 -98 callsubr
            return
          </CharString>
          <CharString index="155">
            hstemhm
            117 18 250 61 196 18 112 18 -10 18 0 18 return
          </CharString>
          <CharString index="156">
            118 callgsubr
            541 vlineto
            45 11 0 69 vhcurveto
            26 return
          </CharString>
          <CharString index="157">
            0 -25 hhcurveto
            -25 return
          </CharString>
          <CharString index="158">
            -265 265 hlineto
            14 0 17 -17 -18 0 -16 -15 vhcurveto
            -265 -265 vlineto
            -14 -17 0 -17 -18 16 0 15 hvcurveto
            265 return
          </CharString>
          <CharString index="159">
            -52 -43 callsubr
            return
          </CharString>
          <CharString index="160">
            hstemhm
            50 callgsubr
            return
          </CharString>
          <CharString index="161">
            20 10 19 14 17 vhcurveto
            14 17 18 14 20 10 rrcurveto
            24 35 0 -2 21 hvcurveto
            26 vlineto
            -59 -2 6 36 83 callgsubr
            return
          </CharString>
          <CharString index="162">
            rmoveto
            -7 29 -17 31 -11 29 rrcurveto
            32 -12 -11 54 -29 hhcurveto
            -13 -14 -11 -14 -13 11 -14 8 -11 hvcurveto
            79 -120 rlineto
            return
          </CharString>
          <CharString index="163">
            14 -15 12 -12 -27 -9 -44 -24 -9 vhcurveto
            -43 -107 17 -8 24 40 28 40 27 39 rlinecurve
            7 11 12 13 14 vvcurveto
            return
          </CharString>
          <CharString index="164">
            694 -15 26 614 26 6 24 -24 26 return
          </CharString>
          <CharString index="165">
            128 vmoveto
            -30 -18 -27 -23 -20 vhcurveto
            return
          </CharString>
          <CharString index="166">
            -2 -1 -3 -3 vvcurveto
            -9 8 -8 9 return
          </CharString>
          <CharString index="167">
            406 -8 18 269 71 74 18 return
          </CharString>
          <CharString index="168">
            75 callgsubr
            hstemhm
            return
          </CharString>
          <CharString index="169">
            rmoveto
            18 -17 0 -17 vhcurveto
            -559 hlineto
            -17 -17 0 -18 -17 15 0 15 hvcurveto
            567 hlineto
            15 15 0 17 hvcurveto
            return
          </CharString>
          <CharString index="170">
            42 vlineto
            17 0 4 -9 -9 0 -4 -17 vhcurveto
            -36 vlineto
            -84 -32 -86 -75 -69 vhcurveto
            -34 -30 -6 -42 -28 vvcurveto
            return
          </CharString>
          <CharString index="171">
            hlineto
            77 302 rlineto
            3 10 1 5 3 vvcurveto
            10 -8 8 -10 -14 -3 -14 -8 -2 vhcurveto
            -80 -316 rlineto
            return
          </CharString>
          <CharString index="172">
            -1 -6 -2 0 -12 hhcurveto
            -114 117 hlineto
            95 76 44 60 19 43 -5 -34 22 vhcurveto
            -10 -32 0 -35 return
          </CharString>
          <CharString index="173">
            hstemhm
            131 66 return
          </CharString>
          <CharString index="174">
            34 callsubr
            hstemhm
            return
          </CharString>
          <CharString index="175">
            vstem
            472 266 rmoveto
            68 -55 44 -57 -55 -57 -44 -68 -68 55 -44 57 55 57 44 68 vhcurveto
            return
          </CharString>
          <CharString index="176">
            561 95 callgsubr
            return
          </CharString>
          <CharString index="177">
            46 87 callgsubr
            return
          </CharString>
          <CharString index="178">
            138 callgsubr
            -26 vlineto
            return
          </CharString>
          <CharString index="179">
            -79 -41 -61 -40 -15 return
          </CharString>
          <CharString index="180">
            -335 -74 callgsubr
            return
          </CharString>
          <CharString index="181">
            302 193 44 hstem
            25 251 vstem
            276 193 rmoveto
            44 -251 -44 vlineto
            endchar
          </CharString>
          <CharString index="182">
            86 -1 rlineto
            16 -14 vlineto
            -50 -1 6 21 hvcurveto
            59 vlineto
            -8 561 rmoveto
            10 -7 7 -10 return
          </CharString>
          <CharString index="183">
            -83 -58 -80 -9 -41 hhcurveto
            -100 -61 58 18 -19 hvcurveto
            return
          </CharString>
          <CharString index="184">
            837 0 26 39 26 224 26 316 26 return
          </CharString>
          <CharString index="185">
            vlineto
            -119 -78 callgsubr
            return
          </CharString>
          <CharString index="186">
            hstemhm
            133 67 301 67 -31 23 return
          </CharString>
          <CharString index="187">
            139 callsubr
            hstem
            return
          </CharString>
          <CharString index="188">
            0 15 vhcurveto
            35 hlineto
            64 28 -47 -53 -72 -46 -28 -42 -38 -62 16 46 -19 hvcurveto
            -1 return
          </CharString>
          <CharString index="189">
            53 208 53 return
          </CharString>
          <CharString index="190">
            633 144 rmoveto
            -18 hlineto
            -69 -46 -62 -65 -65 -50 43 41 -51 vhcurveto
            2 vlineto
            return
          </CharString>
          <CharString index="191">
            vhcurveto
            -318 100 callsubr
            return
          </CharString>
          <CharString index="192">
            511 -8 16 -8 26 17 37 342 16 return
          </CharString>
          <CharString index="193">
            119 callgsubr
            hstem
            381 return
          </CharString>
          <CharString index="194">
            563 0 28 629 26 return
          </CharString>
          <CharString index="195">
            26 316 26 289 26 return
          </CharString>
          <CharString index="196">
            vlineto
            18 -1 1 -6 return
          </CharString>
          <CharString index="197">
            rmoveto
            19 -17 17 -19 -20 -16 -17 -19 -20 16 -16 20 19 17 16 20 vhcurveto
            return
          </CharString>
          <CharString index="198">
            rmoveto
            13 -6 21 -31 -21 -29 -8 -6 -21 vhcurveto
            -3 -1 -25 -7 -20 -2 1 return
          </CharString>
          <CharString index="199">
            146 -20 -1 callsubr
            return
          </CharString>
          <CharString index="200">
            0 88 callsubr
            return
          </CharString>
          <CharString index="201">
            26 627 27 -26 26 return
          </CharString>
          <CharString index="202">
            vlineto
            27 7 0 41 vhcurveto
            16 -76 vlineto
            -13 0 -1 -9 -4 hvcurveto
            -130 return
          </CharString>
          <CharString index="203">
            -22 -36 -58 -92 0 -78 hvcurveto
            -9 -18 18 hlineto
            103 122 0 76 48 return
          </CharString>
          <CharString index="204">
            693 90 callgsubr
            95 26 -24 24 215 26 440 -20 return
          </CharString>
          <CharString index="205">
            26 vlineto
            -2 -24 return
          </CharString>
          <CharString index="206">
            hlineto
            3 2 1 3 1 hvcurveto
            4 16 rlineto
            3 1 -3 3 -4 hhcurveto
            return
          </CharString>
          <CharString index="207">
            72 callgsubr
            -541 -67 callgsubr
            return
          </CharString>
          <CharString index="208">
            hlineto
            -3 -2 -2 -3 -1 hvcurveto
            -4 -14 rlineto
            -4 -1 3 -3 4 hhcurveto
            return
          </CharString>
          <CharString index="209">
            rrcurveto
            -3 -1 -4 -4 vvcurveto
            -6 1 -4 7 -1 vhcurveto
            1 hlineto
            12 -3 return
          </CharString>
          <CharString index="210">
            37 callgsubr
            111 callsubr
            return
          </CharString>
          <CharString index="211">
            vlineto
            1 17 32 0 17 hhcurveto
            18 33 0 -1 16 hvcurveto
            endchar
          </CharString>
          <CharString index="212">
            26 396 16 219 26 -26 37 return
          </CharString>
          <CharString index="213">
            -229 -21 1000 -20 hstem
            return
          </CharString>
          <CharString index="214">
            82 hstem
            84 81 vstem
            165 return
          </CharString>
          <CharString index="215">
            8 callsubr
            32 return
          </CharString>
          <CharString index="216">
            462 426 16 71 -20 return
          </CharString>
          <CharString index="217">
            91 61 callsubr
            return
          </CharString>
          <CharString index="218">
            hstemhm
            25 36 -27 36 return
          </CharString>
          <CharString index="219">
            762 -7 -21 555 -20 hstem
            82 597 vstem
            679 return
          </CharString>
          <CharString index="220">
            34 54 0 -2 32 hvcurveto
            26 -19 vlineto
            -70 -2 10 36 hvcurveto
            return
          </CharString>
          <CharString index="221">
            4 5 34 30 50 hhcurveto
            73 60 -91 -114 hvcurveto
            endchar
          </CharString>
          <CharString index="222">
            133 callsubr
            cntrmask 11100000
            return
          </CharString>
          <CharString index="223">
            940 22 -21 232 35 232 -20 hstem
            887 return
          </CharString>
          <CharString index="224">
            -43 callsubr
            endchar
          </CharString>
          <CharString index="225">
            hstemhm
            46 76 433 66 -11 76 return
          </CharString>
          <CharString index="226">
            111 callsubr
            227 36 return
          </CharString>
          <CharString index="227">
            136 callgsubr
            76 return
          </CharString>
          <CharString index="228">
            459 517 28 return
          </CharString>
          <CharString index="229">
            140 callgsubr
            hstemhm
            return
          </CharString>
          <CharString index="230">
            459 537 -21 return
          </CharString>
          <CharString index="231">
            vhcurveto
            -26 vlineto
            2 32 return
          </CharString>
          <CharString index="232">
            26 375 26 return
          </CharString>
          <CharString index="233">
            -43 -43 callsubr
            return
          </CharString>
          <CharString index="234">
            -24 16 -12 20 18 18 10 27 50 -48 39 -62 return
          </CharString>
          <CharString index="235">
            -195 26 -24 24 169 26 453 -20 hstemhm
            return
          </CharString>
          <CharString index="236">
            hstemhm
            107 48 209 48 return
          </CharString>
          <CharString index="237">
            hstemhm
            46 callsubr
            return
          </CharString>
          <CharString index="238">
            68 -49 70 223 70 -68 68 hintmask 1111110010000000
            return
          </CharString>
          <CharString index="239">
            35 296 -20 hstem
            342 35 vstem
            673 return
          </CharString>
          <CharString index="240">
            727 95 callgsubr
            131 66 return
          </CharString>
          <CharString index="241">
            99 callgsubr
            631 26 return
          </CharString>
          <CharString index="242">
            439 -21 194 82 hstem
            return
          </CharString>
          <CharString index="243">
            23 66 callsubr
            return
          </CharString>
          <CharString index="244">
            -6 -6 -3 -5 -3 return
          </CharString>
          <CharString index="245">
            0 34 615 34 return
          </CharString>
          <CharString index="246">
            -21 183 -20 return
          </CharString>
          <CharString index="247">
            vlineto
            -17 0 -4 9 9 0 4 17 vhcurveto
            return
          </CharString>
          <CharString index="248">
            59 callsubr
            vhcurveto
            return
          </CharString>
          <CharString index="249">
            0 55 252 26 -26 62 71 26 hstemhm
            return
          </CharString>
          <CharString index="250">
            -1 -3 hhcurveto
            -5 -1 -3 0 -5 vvcurveto
            -4 return
          </CharString>
          <CharString index="251">
            693 93 callsubr
            return
          </CharString>
          <CharString index="252">
            641 118 callgsubr
            return
          </CharString>
          <CharString index="253">
            vhcurveto
            -318 72 callgsubr
            return
          </CharString>
          <CharString index="254">
            26 405 26 return
          </CharString>
        <CharString name=".notdef">
          280 endchar
        </CharString>
        <CharString name="A">
          -24 callgsubr
          hstem
          -106 callgsubr
          endchar
        </CharString>
        <CharString name="AE">
          77 callsubr
          48 callsubr
          hintmask 1111111101000000
          -62 callgsubr
          hintmask 1000000010000000
          455 hlineto
          hintmask 0010010001000000
          44 callgsubr
          endchar
        </CharString>
        <CharString name="AE.dup">
          77 callsubr
          48 callsubr
          hintmask 1111111101000000
          -62 callgsubr
          hintmask 1000000010000000
          455 hlineto
          hintmask 0010010001000000
          44 callgsubr
          endchar
        </CharString>
        <CharString name="AEacute">
          77 callsubr
          75 -21 158 -20 48 callsubr
          hintmask 1111001111010000
          -62 callgsubr
          hintmask 1000000000100000
          455 hlineto
          hintmask 0010000100010000
          44 callgsubr
          hintmask 0000110000000000
          163 254 -105 callgsubr
        </CharString>
        <CharString name="Aacute">
          -24 callgsubr
          71 -21 158 -103 callsubr
          153 252 -105 callgsubr
        </CharString>
        <CharString name="Abreve">
          -24 callgsubr
          50 28 146 -103 callsubr
          43 callsubr
          endchar
        </CharString>
        <CharString name="Abreveacute">
          -24 callgsubr
          50 28 324 -103 callsubr
          162 300 1 callsubr
        </CharString>
        <CharString name="Abrevedotbelow">
          693 -200 82 118 14 callsubr
          -20 50 122 callsubr
          306 81 hintmask 01111100
          -106 callgsubr
          43 callsubr
          hintmask 10000010
          -98 -1070 -100 callsubr
        </CharString>
        <CharString name="Abrevegrave">
          -24 callgsubr
          50 28 146 -103 callsubr
          43 callsubr
          -41 33 -81 callgsubr
        </CharString>
        <CharString name="Abrevehookabove">
          -24 callgsubr
          50 28 360 -103 callsubr
          43 callsubr
          -48 148 -107 callsubr
        </CharString>
        <CharString name="Abrevetilde">
          693 951 95 callgsubr
          cntrmask 11100000
          -106 callgsubr
          hintmask 11100000
          43 callsubr
          18 115 -106 callsubr
        </CharString>
        <CharString name="Acaron">
          -24 callgsubr
          61 -21 133 -75 callsubr
          233 -58 callsubr
        </CharString>
        <CharString name="Acircumflex">
          -24 callgsubr
          61 -21 133 -75 callsubr
          132 -52 callgsubr
        </CharString>
        <CharString name="Acircumflexacute">
          -24 callgsubr
          61 -21 311 -75 callsubr
          132 -93 callsubr
          -42 279 -105 callgsubr
        </CharString>
        <CharString name="Acircumflexdotbelow">
          693 -200 82 118 14 callsubr
          -20 61 -21 133 -20 hstemhm
          306 81 hintmask 01111100
          -106 callgsubr
          174 132 -93 callsubr
          hintmask 10000010
          -98 -886 -100 callsubr
        </CharString>
        <CharString name="Acircumflexgrave">
          -24 callgsubr
          61 -21 133 -75 callsubr
          132 -93 callsubr
          -41 166 -81 callgsubr
        </CharString>
        <CharString name="Acircumflexhookabove">
          -24 callgsubr
          61 -21 347 -75 callsubr
          132 -93 callsubr
          42 281 -107 callsubr
        </CharString>
        <CharString name="Acircumflextilde">
          693 900 95 callgsubr
          cntrmask 11100000
          -106 callgsubr
          hintmask 11100000
          174 132 -93 callsubr
          18 248 -106 callsubr
        </CharString>
        <CharString name="Adblgrave">
          -24 callgsubr
          71 -21 183 -103 callsubr
          109 136 -98 callgsubr
        </CharString>
        <CharString name="Adieresis">
          -24 callgsubr
          40 73 hstemhm
          232 72 84 72 hintmask 11100000
          -106 callgsubr
          hintmask 00011100
          -19 153 -76 callsubr
        </CharString>
        <CharString name="Adotbelow">
          693 -200 82 118 14 callsubr
          -20 hstemhm
          306 81 hintmask 01110000
          -106 callgsubr
          hintmask 10001000
          64 -770 -100 callsubr
        </CharString>
        <CharString name="Agrave">
          -24 callgsubr
          71 -21 158 -103 callsubr
          89 139 -87 callsubr
        </CharString>
        <CharString name="Ahookabove">
          -24 callgsubr
          77 -21 214 -103 callsubr
          114 280 -107 callsubr
        </CharString>
        <CharString name="Alpha">
          -24 callgsubr
          hstem
          -106 callgsubr
          endchar
        </CharString>
        <CharString name="Amacron">
          -24 callgsubr
          60 23 -104 callsubr
          hintmask 00010000
          193 136 -26 callsubr
        </CharString>
        <CharString name="Aogonek">
          97 callsubr
          hstemhm
          23 166 134 166 -48 48 -32 48 hintmask 1100000100000000
          670 -115 rmoveto
          -63 callsubr
          hvcurveto
          hintmask 0001000001000000
          126 callgsubr
          hintmask 0010011000000000
          26 50 5 callgsubr
          -53 -18 0 37 -13 hvcurveto
          -222 628 rlineto
          13 -5 -2 3 -10 hhcurveto
          -10 -2 -3 -13 -5 hvcurveto
          -212 -600 rlineto
          -54 -19 -40 -11 -35 hhcurveto
          -26 vlineto
          hintmask 0001000000000000
          2 18 40 0 19 hhcurveto
          hintmask 0010101001000000
          25 40 5 callgsubr
          -47 2 -7 32 12 vvcurveto
          9 2 5 2 6 vhcurveto
          53 149 rlineto
          262 hlineto
          60 -170 rlineto
          5 -12 0 -2 -4 vvcurveto
          -27 -43 0 -19 vhcurveto
          -26 vlineto
          hintmask 1101100010000000
          52 callgsubr
          hintmask 0000100100000000
          122 344 rlineto
          endchar
        </CharString>
        <CharString name="Aogonekacute">
          97 callsubr
          71 -21 158 -20 hstemhm
          23 166 134 166 -48 48 -32 48 hintmask 1100000001000000
          670 -115 rmoveto
          -63 callsubr
          hvcurveto
          hintmask 0001000000010000
          126 callgsubr
          hintmask 0010010010000000
          26 50 5 callgsubr
          -53 -18 0 37 -13 hvcurveto
          -222 628 rlineto
          13 -5 -2 3 -10 hhcurveto
          -10 -2 -3 -13 -5 hvcurveto
          -212 -600 rlineto
          -54 -19 -40 -11 -35 hhcurveto
          -26 vlineto
          hintmask 0001000000000000
          2 18 40 0 19 hhcurveto
          hintmask 0010100010010000
          25 40 5 callgsubr
          -47 2 -7 32 12 vvcurveto
          9 2 5 2 6 vhcurveto
          53 149 rlineto
          262 hlineto
          60 -170 rlineto
          5 -12 0 -2 -4 vvcurveto
          -27 -43 0 -19 vhcurveto
          -26 vlineto
          hintmask 1101100000100000
          52 callgsubr
          hintmask 0000100001000000
          122 344 rlineto
          hintmask 0000001100010000
          153 252 -105 callgsubr
        </CharString>
        <CharString name="Aring">
          693 0 14 callsubr
          125 callgsubr
          hstemhm
          260 25 124 25 hintmask 11100000
          -106 callgsubr
          hintmask 00111100
          86 184 -53 callgsubr
        </CharString>
        <CharString name="Aringacute">
          693 0 14 callsubr
          125 callgsubr
          20 23 135 -20 hstemhm
          260 25 124 25 hintmask 11100000
          -106 callgsubr
          hintmask 00111111
          86 184 -77 callgsubr
          10 234 -105 callgsubr
        </CharString>
        <CharString name="Atilde">
          693 727 95 callgsubr
          cntrmask 11100000
          -106 callgsubr
          hintmask 11100000
          180 191 -106 callsubr
        </CharString>
        <CharString name="B">
          -29 callgsubr
        </CharString>
        <CharString name="Beta">
          -29 callgsubr
        </CharString>
        <CharString name="C">
          61 callgsubr
          hstem
          46 76 479 20 vstem
          -80 callsubr
          -208 155 -150 172 153 95 135 115 hvcurveto
          endchar
        </CharString>
        <CharString name="Cacute">
          61 callgsubr
          59 -21 158 -20 hstemhm
          46 76 479 20 hintmask 11001100
          -80 callsubr
          -208 155 -150 172 153 95 135 115 hvcurveto
          hintmask 00110000
          -124 629 -105 callgsubr
        </CharString>
        <CharString name="Ccaron">
          61 callgsubr
          120 callsubr
          479 20 hintmask 11001100
          -80 callsubr
          -208 155 -150 172 153 95 135 115 hvcurveto
          hintmask 00110000
          -103 610 -58 callsubr
        </CharString>
        <CharString name="Ccedilla">
          61 callgsubr
          hstem
          46 76 227 76 176 20 vstem
          -80 callsubr
          -198 141 -146 162 -13 hvcurveto
          -51 6 callsubr
          48 -51 28 -53 hvcurveto
          32 vlineto
          146 7 90 131 112 vvcurveto
          endchar
        </CharString>
        <CharString name="Ccircumflex">
          61 callgsubr
          120 callsubr
          479 20 hintmask 11001100
          -80 callsubr
          -208 155 -150 172 153 95 135 115 hvcurveto
          hintmask 00110000
          -103 509 -52 callgsubr
        </CharString>
        <CharString name="Cdotaccent">
          61 callgsubr
          44 82 hstemhm
          46 76 204 81 194 20 hintmask 11010100
          -80 callsubr
          -208 155 -150 172 153 95 135 115 hvcurveto
          hintmask 00101000
          -214 550 -100 callsubr
        </CharString>
        <CharString name="Chi">
          -49 callgsubr
        </CharString>
        <CharString name="D">
          707 0 26 631 26 hstem
          132 64 390 74 vstem
          -58 callgsubr
          endchar
        </CharString>
        <CharString name="Dcaron">
          707 0 26 631 26 39 callsubr
          132 64 390 74 hintmask 11001100
          -58 callgsubr
          hintmask 00110000
          -141 508 -58 callsubr
        </CharString>
        <CharString name="Dcroat">
          -20 callsubr
        </CharString>
        <CharString name="Ddotbelow">
          707 67 callsubr
          132 64 57 81 252 74 hintmask 01110100
          -58 callgsubr
          hintmask 10001000
          -252 -495 -100 callsubr
        </CharString>
        <CharString name="Delta">
          772 0 56 651 -20 hstem
          37 697 vstem
          734 5 rmoveto
          0 -4 10 -1 2 vhcurveto
          -323 673 rlineto
          17 -8 -4 0 -8 hhcurveto
          -12 -1 -2 -14 -7 hvcurveto
          -324 -674 rlineto
          -1 -2 -4 -10 0 vvcurveto
          -4 1 -1 18 vhcurveto
          659 hlineto
          18 1 1 4 hvcurveto
          -96 51 rmoveto
          -555 hlineto
          278 575 rlineto
          endchar
        </CharString>
        <CharString name="Dlinebelow">
          707 -170 23 147 26 631 26 hstemhm
          132 64 390 74 hintmask 01111000
          -58 callgsubr
          hintmask 10000000
          -122 -506 -26 callsubr
        </CharString>
        <CharString name="E">
          3 callsubr
          66 callsubr
          179 18 0 18 151 18 -10 18 0 18 hintmask 1111010010000000
          -97 callgsubr
          hintmask 1011101000000000
          -89 callsubr
          vlineto
          hintmask 1000000100000000
          520 hlineto
          hintmask 0000000010000000
          endchar
        </CharString>
        <CharString name="Eacute">
          3 callsubr
          77 -21 158 -99 callgsubr
          hintmask 0001100100000000
          -127 863 -105 callgsubr
        </CharString>
        <CharString name="Ebreve">
          3 callsubr
          56 28 146 -99 callgsubr
          hintmask 0001100000000000
          -118 911 -98 callsubr
          endchar
        </CharString>
        <CharString name="Ecaron">
          3 callsubr
          67 -21 133 -99 callgsubr
          hintmask 0001100000000000
          -106 844 -58 callsubr
        </CharString>
        <CharString name="Ecircumflex">
          3 callsubr
          67 -21 133 -99 callgsubr
          hintmask 0001100000000000
          -106 74 callgsubr
        </CharString>
        <CharString name="Ecircumflexacute">
          3 callsubr
          67 -21 311 -99 callgsubr
          hintmask 0001100000000000
          -106 743 -93 callsubr
          -42 279 -105 callgsubr
        </CharString>
        <CharString name="Ecircumflexdotbelow">
          628 -200 82 118 12 callsubr
          67 -21 133 -20 66 callsubr
          76 81 22 18 0 18 151 18 -10 18 0 18 hintmask 0111001001001000
          -97 callgsubr
          hintmask 0101001010100000
          -89 callsubr
          vlineto
          hintmask 0100000000010000
          520 hlineto
          hintmask 0000110000001000
          -106 743 -93 callsubr
          hintmask 1000000100000000
          -99 -886 -100 callsubr
        </CharString>
        <CharString name="Ecircumflexgrave">
          3 callsubr
          67 -21 133 -99 callgsubr
          hintmask 0001100100000000
          -106 743 -93 callsubr
          -41 166 -81 callgsubr
        </CharString>
        <CharString name="Ecircumflexhookabove">
          3 callsubr
          67 -21 347 -99 callgsubr
          hintmask 0001100000000000
          -106 743 -93 callsubr
          42 281 -107 callsubr
        </CharString>
        <CharString name="Ecircumflextilde">
          628 900 95 callgsubr
          131 66 179 18 0 18 151 18 -10 18 0 18 cntrmask 1110000000000000
          hintmask 1111010010000000
          -97 callgsubr
          hintmask 1111101000000000
          -89 callsubr
          vlineto
          hintmask 1110000100000000
          520 hlineto
          hintmask 1110000010000000
          hintmask 1110100000000000
          -106 743 -93 callsubr
          18 248 -106 callsubr
        </CharString>
        <CharString name="Edblgrave">
          3 callsubr
          77 -21 183 -99 callgsubr
          hintmask 0001100100000000
          -145 747 -98 callgsubr
        </CharString>
        <CharString name="Edieresis">
          3 callsubr
          46 73 66 callsubr
          3 72 84 72 -52 18 0 18 151 18 -10 18 0 18 hintmask 1110100010010000
          -97 callgsubr
          hintmask 1010100101000000
          -89 callsubr
          vlineto
          hintmask 1000000000100000
          520 hlineto
          hintmask 0000000000010000
          hintmask 0001011000000000
          -299 764 -76 callsubr
        </CharString>
        <CharString name="Edotaccent">
          3 callsubr
          62 82 66 callsubr
          76 81 22 18 0 18 151 18 -10 18 0 18 hintmask 1110100100100000
          -97 callgsubr
          hintmask 1010101010000000
          -82 callsubr
          hintmask 0001010000000000
          -217 784 -100 callsubr
        </CharString>
        <CharString name="Edotbelow">
          628 -200 82 118 12 callsubr
          66 callsubr
          76 81 22 18 0 18 151 18 -10 18 0 18 hintmask 0111100100100000
          -97 callgsubr
          hintmask 0101101010000000
          -89 callsubr
          vlineto
          hintmask 0100000001000000
          520 hlineto
          hintmask 0000000000100000
          hintmask 1000010000000000
          -217 -159 -100 callsubr
        </CharString>
        <CharString name="Egrave">
          3 callsubr
          77 -21 158 -99 callgsubr
          hintmask 0001100000000000
          -191 750 -87 callsubr
        </CharString>
        <CharString name="Ehookabove">
          3 callsubr
          83 -21 214 -99 callgsubr
          hintmask 0001100000000000
          -166 891 -107 callsubr
        </CharString>
        <CharString name="Emacron">
          3 callsubr
          66 136 callsubr
          179 18 0 18 151 18 -10 18 0 18 hintmask 1110101001000000
          -97 callgsubr
          hintmask 1010110100000000
          -89 callsubr
          vlineto
          hintmask 1000000010000000
          520 hlineto
          hintmask 0000000001000000
          hintmask 0001000000000000
          -87 747 -26 callsubr
        </CharString>
        <CharString name="Eng">
          693 -16 72 -56 26 -24 18 637 26 -2 18 66 callsubr
          392 76 hintmask 00001100
          665 342 rmoveto
          185 -112 172 -172 -77 -67 -41 -62 -40 vhcurveto
          hintmask 00010100
          87 vlineto
          hintmask 00001000
          -1 -11 -11 -1 -11 hhcurveto
          hintmask 01010100
          -34 -51 0 2 -32 -30 callsubr
          72 12 0 -45 hvcurveto
          -541 vlineto
          -45 -12 0 -72 vhcurveto
          -26 vlineto
          hintmask 00100000
          2 32 51 0 34 hhcurveto
          hintmask 01001110
          34 51 0 -2 32 hvcurveto
          -7 callsubr
          491 vlineto
          70 35 68 49 81 hhcurveto
          147 61 -172 -167 -142 0 -163 -93 -30 hvcurveto
          hintmask 00100000
          1 4 1 4 5 vvcurveto
          hintmask 10000000
          20 -16 16 -20 vhcurveto
          hintmask 00100000
          -20 -16 -16 -20 hvcurveto
          hintmask 10000010
          -20 16 -16 20 151 52 183 175 vhcurveto
          endchar
        </CharString>
        <CharString name="Eogonek">
          628 90 callgsubr
          95 12 callsubr
          hstem
          553 18 0 18 0 18 cntrmask 00000111
          -97 callgsubr
          -89 callsubr
          366 vlineto
          -47 -34 -29 -35 52 callsubr
          -63 callsubr
          40 38 31 35 24 hvcurveto
          109 hlineto
          endchar
        </CharString>
        <CharString name="Eogonekacute">
          628 90 callgsubr
          95 12 callsubr
          77 -21 158 -20 66 callsubr
          144 48 -13 18 0 18 141 18 -8 18 8 18 hintmask 0011100100100100
          -97 callgsubr
          hintmask 0010100101001000
          -89 callsubr
          366 vlineto
          hintmask 1110000010010100
          -47 -34 -29 -35 52 callsubr
          -63 callsubr
          40 38 31 35 24 hvcurveto
          109 hlineto
          hintmask 0000011000100000
          -127 863 -105 callgsubr
        </CharString>
        <CharString name="Epsilon">
          3 callsubr
          66 callsubr
          179 18 0 18 151 18 -10 18 0 18 hintmask 1111010010000000
          -97 callgsubr
          hintmask 1011101000000000
          -89 callsubr
          vlineto
          hintmask 1000000100000000
          520 hlineto
          hintmask 0000000010000000
          endchar
        </CharString>
        <CharString name="Ereversed">
          3 callsubr
          hstemhm
          51 18 0 18 -10 18 151 18 0 18 179 66 hintmask 1110010110000000
          607 118 callgsubr
          539 vlineto
          45 11 0 69 vhcurveto
          26 -506 vlineto
          -24 -221 rlineto
          18 hlineto
          133 14 18 62 155 hhcurveto
          137 hlineto
          40 2 -5 -34 hvcurveto
          -249 -94 vlineto
          -94 -9 34 83 hvcurveto
          hintmask 1100101010000000
          -18 -260 18 hlineto
          83 9 34 94 vhcurveto
          94 -276 hlineto
          -34 -2 -5 -40 vhcurveto
          -139 hlineto
          -176 -13 80 147 -22 hvcurveto
          hintmask 0001000000000000
          -18 hlineto
          hintmask 1000100000000000
          36 -253 rlineto
          endchar
        </CharString>
        <CharString name="Eta">
          693 0 26 316 26 289 26 hstem
          131 66 298 66 vstem
          -92 callgsubr
          endchar
        </CharString>
        <CharString name="Eth">
          -20 callsubr
        </CharString>
        <CharString name="Etilde">
          628 133 callsubr
          179 18 0 18 151 18 -10 18 0 18 cntrmask 1110000000000000
          hintmask 1111010010000000
          -97 callgsubr
          hintmask 1111101000000000
          -89 callsubr
          vlineto
          hintmask 1110000100000000
          520 hlineto
          hintmask 1110000010000000
          hintmask 1110100000000000
          -100 802 -106 callsubr
        </CharString>
        <CharString name="Euro">
          589 -16 26 267 26 78 26 266 26 hstem
          104 76 vstem
          536 -10 rmoveto
          158 vlineto
          3 -3 3 -3 vhcurveto
          -8 hlineto
          -3 -3 -2 -3 hvcurveto
          -74 -7 -51 -65 -71 hhcurveto
          -64 -56 40 54 -34 hvcurveto
          -32 52 -14 60 -5 61 rrcurveto
          266 99 callsubr
          -271 hlineto
          -1 39 1 39 rlineto
          297 99 callsubr
          -300 hlineto
          5 60 14 60 32 52 rrcurveto
          54 34 56 40 64 hhcurveto
          71 51 -65 -74 7 hvcurveto
          -3 3 -2 3 vhcurveto
          8 hlineto
          33 callgsubr
          hvcurveto
          158 vlineto
          4 -3 2 -3 vhcurveto
          -2 hlineto
          -2 -2 -1 -1 -1 hvcurveto
          -35 -51 rlineto
          33 -29 -40 20 -46 hhcurveto
          -76 -69 -44 -61 -46 hvcurveto
          -41 -55 -24 -65 -9 -67 rrcurveto
          -48 101 callsubr
          50 hlineto
          -1 -13 -1 -13 -13 vvcurveto
          -13 0 -13 2 -13 vhcurveto
          -46 101 callsubr
          52 hlineto
          9 -68 24 -65 41 -55 rrcurveto
          -61 46 69 -44 76 hhcurveto
          46 40 21 32 29 hvcurveto
          35 -50 rlineto
          -2 1 2 -1 2 hhcurveto
          2 hlineto
          33 callgsubr
          hvcurveto
          endchar
        </CharString>
        <CharString name="F">
          602 0 26 302 26 301 26 hstem
          131 66 192 18 143 18 vstem
          568 460 rmoveto
          -24 221 rlineto
          -493 37 callsubr
          256 90 vlineto
          93 9 -33 -84 hvcurveto
          18 260 -18 hlineto
          -84 -9 -33 -93 vhcurveto
          -90 262 hlineto
          34 2 5 40 vhcurveto
          129 hlineto
          151 17 -62 -133 14 hvcurveto
          endchar
        </CharString>
        <CharString name="G">
          726 -16 104 callgsubr
          hintmask 01000100
          686 242 rmoveto
          98 callsubr
          -54 0 -27 hhcurveto
          -144 2 rlineto
          -26 30 vlineto
          hintmask 10111000
          86 2 -11 -36 hvcurveto
          -66 vlineto
          -110 -130 -9 -31 -103 -169 71 261 3 callgsubr
          vhcurveto
          hintmask 00000100
          -12 2 0 -2 9 hhcurveto
          hintmask 10111000
          -81 callsubr
          -205 152 -153 176 81 79 29 57 31 hvcurveto
          -41 17 28 -28 5 hhcurveto
          5 1 1 18 hvcurveto
          179 vlineto
          hintmask 01000100
          38 3 5 62 vhcurveto
          endchar
        </CharString>
        <CharString name="Gacute">
          36 callgsubr
          59 -21 158 -82 callgsubr
          -193 621 -105 callgsubr
        </CharString>
        <CharString name="Gamma">
          576 0 26 629 26 hstem
          131 66 vstem
          542 460 rmoveto
          -24 221 rlineto
          -467 37 callsubr
          544 vlineto
          34 2 5 40 vhcurveto
          110 hlineto
          152 8 -70 -125 15 hvcurveto
          endchar
        </CharString>
        <CharString name="Gbreve">
          36 callgsubr
          38 28 146 -82 callgsubr
          -184 669 -98 callsubr
          endchar
        </CharString>
        <CharString name="Gcaron">
          36 callgsubr
          49 -21 133 -82 callgsubr
          -172 602 -58 callsubr
        </CharString>
        <CharString name="Gcedilla">
          -39 callgsubr
          hintmask 11010001
          38 3 5 62 vhcurveto
          -288 -361 -100 callgsubr
        </CharString>
        <CharString name="Gcircumflex">
          36 callgsubr
          49 -21 133 -82 callgsubr
          -172 501 -52 callgsubr
        </CharString>
        <CharString name="Gcommaaccent">
          -39 callgsubr
          hintmask 00010001
          38 3 5 62 vhcurveto
          hintmask 11000000
          -288 -361 -100 callgsubr
        </CharString>
        <CharString name="Gdotaccent">
          36 callgsubr
          44 82 hstemhm
          46 76 200 81 152 66 -11 76 hintmask 01000001
          686 242 rmoveto
          98 callsubr
          -54 0 -27 hhcurveto
          -144 2 rlineto
          -26 30 vlineto
          hintmask 10101010
          86 2 -11 -36 hvcurveto
          -66 vlineto
          -110 -130 -9 -31 -103 -169 71 261 3 callgsubr
          vhcurveto
          hintmask 00000001
          -12 2 0 -2 9 hhcurveto
          hintmask 10101010
          -63 callgsubr
          hintmask 00010100
          -283 542 -100 callsubr
        </CharString>
        <CharString name="H">
          693 0 26 316 26 289 26 hstem
          131 66 298 66 vstem
          -92 callgsubr
          endchar
        </CharString>
        <CharString name="H_uni0303">
          693 133 callsubr
          298 66 cntrmask 11100000
          -92 callgsubr
          hintmask 11100000
          -138 802 -106 callsubr
        </CharString>
        <CharString name="Hbar">
          99 callgsubr
          316 26 131 26 132 84 callgsubr
          428 80 26 -80 87 -97 callsubr
          -87 -298 87 -97 callsubr
          -87 -80 -26 80 -428 -80 callgsubr
          26 vlineto
          -69 -11 0 45 hvcurveto
          271 298 -271 -80 callgsubr
          -146 368 rmoveto
          -298 131 298 hlineto
          endchar
        </CharString>
        <CharString name="Hbrevebelow">
          693 -246 140 callgsubr
          92 88 callsubr
          66 callsubr
          298 66 hintmask 00111110
          -92 callgsubr
          hintmask 11000000
          -156 -72 -98 callsubr
          endchar
        </CharString>
        <CharString name="Hcircumflex">
          144 callsubr
          39 callsubr
          131 66 298 66 hintmask 11100110
          -92 callgsubr
          hintmask 00011000
          -144 74 callgsubr
        </CharString>
        <CharString name="Hdieresis">
          144 callsubr
          44 73 66 callsubr
          35 72 84 72 35 66 hintmask 11101001
          -92 callgsubr
          hintmask 00010110
          -337 764 -76 callsubr
        </CharString>
        <CharString name="Hdotbelow">
          693 -200 82 118 88 callsubr
          66 callsubr
          109 81 108 66 hintmask 01111010
          -92 callgsubr
          hintmask 10000100
          -254 -159 -100 callsubr
        </CharString>
        <CharString name="I">
          22 callsubr
          hstem
          131 66 vstem
          -96 callgsubr
          endchar
        </CharString>
        <CharString name="I_J">
          766 -16 16 0 26 45 85 456 26 19 26 66 callsubr
          151 85 157 64 -64 66 hintmask 0111111100000000
          -96 callgsubr
          433 657 rmoveto
          26 vlineto
          -98 -2 rlineto
          -42 -46 0 2 -42 hvcurveto
          -26 24 vlineto
          78 2 -11 -36 hvcurveto
          -463 vlineto
          -92 -50 -55 -51 -26 -60 12 61 -26 vhcurveto
          -1 4 5 -1 4 hhcurveto
          19 24 13 30 24 -17 18 -25 -24 -19 -15 -29 hvcurveto
          hintmask 1000000100000000
          -67 61 -61 82 78 72 56 84 12 vhcurveto
          1 7 0 2 34 vvcurveto
          420 vlineto
          hintmask 0001100010000000
          17 0 28 2 6 vhcurveto
          19 4 23 0 31 hhcurveto
          endchar
        </CharString>
        <CharString name="Iacute">
          22 callsubr
          75 -21 158 -20 66 callsubr
          hintmask 11001000
          -96 callgsubr
          hintmask 00110000
          12 863 -105 callgsubr
        </CharString>
        <CharString name="Ibreve">
          22 callsubr
          54 122 callsubr
          131 66 hintmask 11001000
          -96 callgsubr
          hintmask 00110000
          21 911 -98 callsubr
          endchar
        </CharString>
        <CharString name="Icaron">
          22 callsubr
          39 callsubr
          131 66 hintmask 11001000
          -96 callgsubr
          hintmask 00110000
          33 844 -58 callsubr
        </CharString>
        <CharString name="Icircumflex">
          22 callsubr
          39 callsubr
          131 66 hintmask 11001000
          -96 callgsubr
          hintmask 00110000
          33 74 callgsubr
        </CharString>
        <CharString name="Idblgrave">
          22 callsubr
          75 139 callsubr
          66 callsubr
          hintmask 11001000
          -96 callgsubr
          hintmask 00110000
          -6 747 -98 callgsubr
        </CharString>
        <CharString name="Idieresis">
          22 callsubr
          44 73 hstemhm
          49 72 10 66 8 72 hintmask 11001000
          -96 callgsubr
          hintmask 00110100
          -160 764 -76 callsubr
        </CharString>
        <CharString name="Idieresisacute">
          22 callsubr
          44 73 75 -21 158 -20 hstemhm
          49 72 10 66 8 72 hintmask 11000010
          -96 callgsubr
          hintmask 00111101
          -160 764 rmoveto
          -101 callsubr
          156 hmoveto
          -101 callsubr
          16 216 -105 callgsubr
        </CharString>
        <CharString name="Idotaccent">
          22 callsubr
          60 82 hstemhm
          123 81 -73 66 hintmask 11001000
          -96 callgsubr
          hintmask 00110000
          -77 784 -100 callsubr
        </CharString>
        <CharString name="Idotbelow">
          328 67 callsubr
          123 81 -73 66 hintmask 01101000
          -96 callgsubr
          hintmask 10010000
          -77 -159 -100 callsubr
        </CharString>
        <CharString name="Igrave">
          22 callsubr
          75 -21 158 -20 66 callsubr
          hintmask 11001000
          -96 callgsubr
          hintmask 00110000
          -52 750 -87 callsubr
        </CharString>
        <CharString name="Ihookabove">
          22 callsubr
          81 -21 214 -20 66 callsubr
          hintmask 11001000
          -96 callgsubr
          hintmask 00110000
          -27 891 -107 callsubr
        </CharString>
        <CharString name="Imacron">
          22 callsubr
          64 136 callsubr
          hintmask 11010000
          -96 callgsubr
          hintmask 00100000
          52 747 -26 callsubr
        </CharString>
        <CharString name="Imacron.alt">
          22 callsubr
          64 136 callsubr
          hintmask 11010000
          -96 callgsubr
          hintmask 00100000
          -24 747 38 callsubr
        </CharString>
        <CharString name="Iogonek">
          128 callgsubr
          hstem
          131 66 vstem
          -14 callsubr
          endchar
        </CharString>
        <CharString name="Iogonekacute">
          128 callgsubr
          75 -21 158 -20 66 callsubr
          hintmask 11110010
          -14 callsubr
          hintmask 00001100
          12 978 -105 callgsubr
        </CharString>
        <CharString name="Iota">
          22 callsubr
          hstem
          131 66 vstem
          -96 callgsubr
          endchar
        </CharString>
        <CharString name="Itilde">
          328 115 callsubr
          -96 callgsubr
          hintmask 11100000
          39 802 -106 callsubr
        </CharString>
        <CharString name="J">
          471 -16 16 71 85 501 26 hstem
          53 85 157 64 vstem
          -59 callsubr
          endchar
        </CharString>
        <CharString name="J_uni030C.cap">
          471.47826 -16 16 71 85 341 -21 146 61 -26 26 hstemhm
          53 85 157 64 hintmask 11001110
          -59 callsubr
          104 -45 143 callgsubr
          hintmask 00110000
          -19 14 -11 17 9 9 3 9 6 vhcurveto
          2 -7 0 -2 -12 vvcurveto
          -45 -15 -42 -32 -37 vhcurveto
          -3 -4 0 -3 0 vvcurveto
          42 callgsubr
          4 52 53 83 vhcurveto
          endchar
        </CharString>
        <CharString name="Jacute">
          471 -16 16 71 85 501 26 75 -21 158 -20 hstemhm
          53 85 157 64 hintmask 11100110
          -59 callsubr
          hintmask 00011000
          16 206 -105 callgsubr
        </CharString>
        <CharString name="Jcircumflex">
          471 -16 16 71 85 501 26 39 callsubr
          53 85 157 64 hintmask 11100110
          -59 callsubr
          hintmask 00011000
          37 86 -52 callgsubr
        </CharString>
        <CharString name="K">
          719 0 26 0 26 0 26 hstem
          -83 callsubr
          endchar
        </CharString>
        <CharString name="Kappa">
          719 0 26 0 26 0 26 hstem
          -83 callsubr
          endchar
        </CharString>
        <CharString name="Kcedilla">
          719 0 26 0 26 0 26 hstem
          -83 callsubr
          -291 -119 -100 callgsubr
        </CharString>
        <CharString name="Kcommaaccent">
          719 0 26 0 26 0 26 hstemhm
          -83 callsubr
          hintmask 11100000
          -291 -119 -100 callgsubr
        </CharString>
        <CharString name="L">
          576 0 26 631 26 hstem
          131 66 vstem
          -86 callsubr
          endchar
        </CharString>
        <CharString name="L_uni0303">
          576 115 callsubr
          -86 callsubr
          hintmask 11100000
          -194 802 -106 callsubr
        </CharString>
        <CharString name="Lacute">
          576 0 26 631 26 75 -21 158 -20 66 callsubr
          hintmask 11001000
          -86 callsubr
          hintmask 00110000
          -221 863 -105 callgsubr
        </CharString>
        <CharString name="Lambda">
          641 0 26 681 -20 hstem
          23 594 vstem
          617 hmoveto
          26 vlineto
          -44 -18 0 35 -12 hvcurveto
          -207 629 rlineto
          16 -5 -1 1 -10 hhcurveto
          -10 -1 -1 -16 -5 hvcurveto
          -197 -598 -18 -53 -33 -12 -33 -1 rlinecurve
          -26 vlineto
          70 2 rlineto
          25 39 5 callgsubr
          -53 2 -3 38 7 vvcurveto
          7 2 6 3 10 vhcurveto
          166 505 174 -528 rlineto
          5 -14 0 -2 -3 vvcurveto
          -28 -42 0 -21 vhcurveto
          -26 vlineto
          2 29 51 0 31 hhcurveto
          25 46 0 -2 23 hvcurveto
          endchar
        </CharString>
        <CharString name="Lcaron">
          576 0 26 471 -21 146 61 -26 26 66 callsubr
          hintmask 10011000
          -86 callsubr
          -100 612 rmoveto
          19 callgsubr
        </CharString>
        <CharString name="Lcedilla">
          576 58 callgsubr
          hstem
          131 66 vstem
          -86 callsubr
          -195 -119 -100 callgsubr
        </CharString>
        <CharString name="Lcommaaccent">
          576 58 callgsubr
          66 callsubr
          hintmask 00111000
          -86 callsubr
          hintmask 11000000
          -195 -119 -100 callgsubr
        </CharString>
        <CharString name="Ldot">
          576 0 26 335 82 214 26 hstem
          131 66 214 81 vstem
          -86 callsubr
          -26 402 -100 callsubr
        </CharString>
        <CharString name="Ldotbelow">
          576 67 callsubr
          131 66 50 81 hintmask 01110000
          -86 callsubr
          hintmask 10001000
          -190 -159 -100 callsubr
        </CharString>
        <CharString name="Ldotbelowmacron">
          576 34 callsubr
          64 136 callsubr
          50 81 hintmask 11101100
          -86 callsubr
          -190 -159 rmoveto
          -93 callgsubr
          hintmask 00010000
          16 906 -26 callsubr
        </CharString>
        <CharString name="Lslash">
          576 0 26 460 26 145 26 hstemhm
          65 66 0 66 hintmask 10110000
          542 253 rmoveto
          -24 -253 rlineto
          -467 26 hlineto
          69 11 0 45 hvcurveto
          229 vlineto
          -66 -55 -22 25 88 72 rlineto
          270 vlineto
          45 -11 0 -69 24 callgsubr
          29 56 0 31 hhcurveto
          41 48 0 2 41 hvcurveto
          -26 -22 vlineto
          hintmask 11001000
          -76 -2 -10 -36 hvcurveto
          -225 vlineto
          159 126 20 -26 -179 -142 rlineto
          -279 vlineto
          -34 2 -5 40 vhcurveto
          93 hlineto
          171 13 128 99 8 hvcurveto
          endchar
        </CharString>
        <CharString name="M">
          850 0 26 631 26 hstem
          133 20 502 61 vstem
          -60 callsubr
          endchar
        </CharString>
        <CharString name="Mdotbelow">
          850 67 callsubr
          133 20 231 81 190 61 hintmask 01110100
          -60 callsubr
          hintmask 10001000
          -331 -159 -100 callsubr
        </CharString>
        <CharString name="Mu">
          850 0 26 631 26 hstem
          133 20 502 61 vstem
          -60 callsubr
          endchar
        </CharString>
        <CharString name="N">
          134 callsubr
          hstem
          131 20 390 20 vstem
          -95 callgsubr
          endchar
        </CharString>
        <CharString name="Nacute">
          134 callsubr
          75 -21 158 -20 hstemhm
          131 20 390 20 hintmask 11001100
          -95 callgsubr
          hintmask 00110000
          -165 206 -105 callgsubr
        </CharString>
        <CharString name="Ncaron">
          134 callsubr
          39 callsubr
          131 20 390 20 hintmask 11001100
          -95 callgsubr
          hintmask 00110000
          -144 187 -58 callsubr
        </CharString>
        <CharString name="Ncedilla">
          693 58 callgsubr
          hstem
          131 20 390 20 vstem
          -95 callgsubr
          -260 -776 -100 callgsubr
        </CharString>
        <CharString name="Ncommaaccent">
          693 58 callgsubr
          hstemhm
          131 20 390 20 hintmask 00111100
          -95 callgsubr
          hintmask 11000000
          -260 -776 -100 callgsubr
        </CharString>
        <CharString name="Ndotaccent">
          134 callsubr
          44 82 146 callgsubr
          hintmask 11010100
          -95 callgsubr
          hintmask 00101000
          -254 111 -100 callsubr
        </CharString>
        <CharString name="Ndotbelow">
          693 -200 82 118 26 631 26 146 callgsubr
          hintmask 01110100
          -95 callgsubr
          hintmask 10001000
          -254 -816 -100 callsubr
        </CharString>
        <CharString name="Ntilde">
          693 727 95 callgsubr
          131 20 390 20 cntrmask 11100000
          -95 callgsubr
          hintmask 11100000
          -138 145 -106 callsubr
        </CharString>
        <CharString name="Nu">
          134 callsubr
          hstem
          131 20 390 20 vstem
          -95 callgsubr
          endchar
        </CharString>
        <CharString name="O">
          15 callsubr
          hstem
          50 callgsubr
          vstem
          -102 callsubr
          endchar
        </CharString>
        <CharString name="OE">
          -49 callsubr
        </CharString>
        <CharString name="OE.dup">
          -49 callsubr
        </CharString>
        <CharString name="Oacute">
          15 callsubr
          59 -21 158 -91 callsubr
          -107 510 -105 callgsubr
        </CharString>
        <CharString name="Obreve">
          15 callsubr
          38 28 146 -91 callsubr
          -98 558 -98 callsubr
          endchar
        </CharString>
        <CharString name="Ocaron">
          15 callsubr
          49 -21 133 -57 callgsubr
          491 -58 callsubr
        </CharString>
        <CharString name="Ocircumflex">
          15 callsubr
          49 -21 133 -57 callgsubr
          390 -52 callgsubr
        </CharString>
        <CharString name="Ocircumflexacute">
          15 callsubr
          49 -21 311 -57 callgsubr
          390 -93 callsubr
          -42 279 -105 callgsubr
        </CharString>
        <CharString name="Ocircumflexdotbelow">
          720 -200 82 102 18 679 18 120 callsubr
          197 81 197 76 hintmask 01111101
          -102 callsubr
          -86 390 -93 callsubr
          hintmask 10000010
          -99 -886 -100 callsubr
        </CharString>
        <CharString name="Ocircumflexgrave">
          15 callsubr
          49 -21 133 -57 callgsubr
          390 -93 callsubr
          -41 166 -81 callgsubr
        </CharString>
        <CharString name="Ocircumflexhookabove">
          15 callsubr
          49 -21 347 -57 callgsubr
          390 -93 callsubr
          42 281 -107 callsubr
        </CharString>
        <CharString name="Ocircumflextilde">
          720 900 34 -8 34 -8 34 53 callsubr
          cntrmask 11100000
          -102 callsubr
          hintmask 11100000
          -86 390 -93 callsubr
          18 248 -106 callsubr
        </CharString>
        <CharString name="Odblgrave">
          15 callsubr
          59 -21 183 -91 callsubr
          -125 394 -98 callgsubr
        </CharString>
        <CharString name="Odieresis">
          15 callsubr
          28 73 hstemhm
          46 76 124 72 84 72 123 76 hintmask 11010010
          -102 callsubr
          hintmask 00101100
          -279 411 -76 callsubr
        </CharString>
        <CharString name="Odotbelow">
          720 -200 82 102 18 679 18 hstemhm
          46 76 197 81 197 76 hintmask 01110100
          -102 callsubr
          hintmask 10001000
          -197 -512 -100 callsubr
        </CharString>
        <CharString name="Ograve">
          15 callsubr
          59 -21 158 -91 callsubr
          -171 397 -87 callsubr
        </CharString>
        <CharString name="Ohookabove">
          15 callsubr
          65 -21 214 -91 callsubr
          -146 538 -107 callsubr
        </CharString>
        <CharString name="Ohorn">
          106 callgsubr
          hstem
          51 81 455 81 vstem
          -90 callgsubr
          endchar
        </CharString>
        <CharString name="Ohornacute">
          106 callgsubr
          60 -21 158 -20 hstemhm
          51 81 455 81 hintmask 11001100
          -90 callgsubr
          hintmask 00110000
          -124 508 -105 callgsubr
        </CharString>
        <CharString name="Ohorndotbelow">
          720 -200 82 124 -21 696 17 hstemhm
          51 81 187 81 187 81 hintmask 01110100
          -90 callgsubr
          hintmask 10001000
          -187 -514 -100 callsubr
        </CharString>
        <CharString name="Ohorngrave">
          106 callgsubr
          60 -21 158 -20 hstemhm
          51 81 455 81 hintmask 11001100
          -90 callgsubr
          hintmask 00110000
          -162 395 -87 callsubr
        </CharString>
        <CharString name="Ohornhookabove">
          106 callgsubr
          66 -21 214 -20 hstemhm
          51 81 455 81 hintmask 11001100
          -90 callgsubr
          hintmask 00110000
          -137 536 -107 callsubr
        </CharString>
        <CharString name="Ohorntilde">
          720 727 95 callgsubr
          51 81 455 81 cntrmask 11100000
          -90 callgsubr
          hintmask 11100000
          -71 447 -106 callsubr
        </CharString>
        <CharString name="Ohungarumlaut">
          15 callsubr
          59 -21 183 -91 callsubr
          -235 541 -85 callsubr
        </CharString>
        <CharString name="Omacron">
          15 callsubr
          48 23 53 callsubr
          hintmask 11011000
          -102 callsubr
          hintmask 00100000
          -67 394 -26 callsubr
        </CharString>
        <CharString name="Omega">
          -42 callgsubr
        </CharString>
        <CharString name="Omicron">
          15 callsubr
          hstem
          50 callgsubr
          vstem
          -102 callsubr
          endchar
        </CharString>
        <CharString name="Oogonek">
          15 callsubr
          hstem
          50 callgsubr
          vstem
          -22 callgsubr
          endchar
        </CharString>
        <CharString name="Oogonekacute">
          15 callsubr
          59 -21 158 -20 53 callsubr
          hintmask 11001100
          -22 callgsubr
          hintmask 00110000
          -107 510 -105 callgsubr
        </CharString>
        <CharString name="Orogate">
          720 46 76 230 16 229 76 vstem
          673 340 rmoveto
          202 -142 152 -163 5 vhcurveto
          179 -16 -179 vlineto
          -166 -5 -140 -154 -200 vvcurveto
          -200 142 -152 164 -4 vhcurveto
          -179 16 179 vlineto
          167 6 138 154 196 vvcurveto
          -76 13 rmoveto
          -241 -127 -110 -110 -114 -124 114 237 236 136 92 101 106 132 -95 -233 vhcurveto
          endchar
        </CharString>
        <CharString name="Oslash">
          86 callgsubr
          hstem
          46 66 495 66 vstem
          -56 callsubr
          endchar
        </CharString>
        <CharString name="Oslash.dup">
          86 callgsubr
          hstem
          46 66 495 66 vstem
          -56 callsubr
          endchar
        </CharString>
        <CharString name="Oslashacute">
          86 callgsubr
          178 -20 hstemhm
          46 66 495 66 hintmask 11110110
          -56 callsubr
          hintmask 00011000
          -117 523 -105 callgsubr
        </CharString>
        <CharString name="Otilde">
          720 727 34 -8 34 -8 34 53 callsubr
          cntrmask 11100000
          -102 callsubr
          hintmask 11100000
          -80 449 -106 callsubr
        </CharString>
        <CharString name="P">
          -13 callgsubr
        </CharString>
        <CharString name="Phi">
          668 0 26 120 -20 432 -21 120 26 hstem
          46 74 181 63 183 74 vstem
          621 341 rmoveto
          101 -99 98 -158 14 vhcurveto
          57 54 callgsubr
          -57 vlineto
          -157 -14 -98 -99 -99 vvcurveto
          -103 102 -96 153 -14 vhcurveto
          -57 vlineto
          -36 -2 -10 -76 vhcurveto
          -22 -26 hlineto
          2 41 49 0 42 hhcurveto
          42 44 callsubr
          57 vlineto
          162 14 95 101 97 vvcurveto
          -320 -195 rmoveto
          -90 10 -91 52 133 vvcurveto
          137 94 50 87 9 vhcurveto
          246 -195 rmoveto
          -147 -108 -42 -75 -7 vhcurveto
          391 vlineto
          79 -7 104 -45 -143 vvcurveto
          endchar
        </CharString>
        <CharString name="Pi">
          99 callgsubr
          629 84 callgsubr
          539 vlineto
          45 11 0 69 vhcurveto
          26 -590 -26 vlineto
          69 11 0 -45 hvcurveto
          -539 -80 callgsubr
          26 vlineto
          -69 -11 0 45 hvcurveto
          584 298 -584 -80 callgsubr
          endchar
        </CharString>
        <CharString name="Psi">
          720 0 26 102 19 387 22 101 26 hstem
          119 63 145 63 147 63 vstem
          673 548 rmoveto
          8 -5 0 -17 vhcurveto
          -26 hlineto
          -66 -21 -52 -103 -1 hvcurveto
          -1 -106 -28 -123 -118 -25 rrcurveto
          464 54 callgsubr
          -464 vlineto
          -143 29 -2 184 52 vvcurveto
          95 -1 -25 49 -62 hhcurveto
          -26 hlineto
          -16 -5 0 -8 0 0 -7 5 hvcurveto
          28 -5 38 -6 1 -134 1 -93 33 -153 174 -20 rrcurveto
          -58 vlineto
          -36 -2 -10 -76 vhcurveto
          -22 -26 hlineto
          2 41 49 0 42 hhcurveto
          42 44 callsubr
          58 vlineto
          208 22 2 210 57 vvcurveto
          46 10 65 51 10 vhcurveto
          10 2 2 0 6 vvcurveto
          endchar
        </CharString>
        <CharString name="Q">
          720 -195 76 103 16 -16 18 -13 76 -56 16 104 16 536 18 hstemhm
          46 74 166 16 -16 74 89 16 134 74 hintmask 1010101101010000
          678 -11 rmoveto
          10 0 7 -7 -5 -1 -9 0 vhcurveto
          -96 -7 -54 -20 -32 hhcurveto
          -59 -21 53 75 -19 hvcurveto
          119 51 81 130 150 vvcurveto
          205 -147 154 -166 -170 -144 -156 -203 -200 144 -156 170 vhcurveto
          hintmask 1100000000000000
          23 32 3 13 38 hvcurveto
          -122 17 11 -73 86 hhcurveto
          hintmask 0001011101110000
          106 5 156 28 hvcurveto
          -79 351 rmoveto
          -169 -67 -94 -67 -43 vhcurveto
          51 -15 -24 60 -65 hhcurveto
          -48 -27 -42 -38 -23 9 -19 11 -13 hvcurveto
          -104 33 -82 111 186 vvcurveto
          238 131 103 108 112 128 -107 -234 vhcurveto
          -150 -315 rmoveto
          hintmask 0010000001000000
          -21 -40 -32 -2 -17 hhcurveto
          hintmask 0001010010000000
          -45 -13 41 22 31 21 33 38 hvcurveto
          hintmask 0000100000100000
          64 16 -57 -47 8 hvcurveto
          endchar
        </CharString>
        <CharString name="R">
          680 -16 55 callgsubr
          hintmask 0001000000100000
          14 callgsubr
          hintmask 0110000010010000
          -46 callsubr
          hintmask 0101111101000000
          -88 callgsubr
          hintmask 1000000000100000
          53 callgsubr
          hintmask 0000111001010000
          -67 callsubr
          endchar
        </CharString>
        <CharString name="Racute">
          680 -16 -5 callsubr
          75 -21 158 -75 callgsubr
          hintmask 0000001100000000
          -21 359 -105 callgsubr
        </CharString>
        <CharString name="Rcaron">
          680 -16 -5 callsubr
          65 -21 133 -75 callgsubr
          hintmask 0000001100010000
          340 vmoveto
          -10 16 -140 -66 -140 66 -12 -16 151 -117 rlineto
          endchar
        </CharString>
        <CharString name="Rcedilla">
          680 108 callsubr
          55 callgsubr
          hintmask 0000010000001000
          14 callgsubr
          hintmask 0001100000100100
          -46 callsubr
          hintmask 0001011111010000
          -88 callgsubr
          hintmask 0010000000001000
          53 callgsubr
          hintmask 1100001110010100
          -67 callsubr
          -116 -623 -100 callgsubr
        </CharString>
        <CharString name="Rcommaaccent">
          680 108 callsubr
          55 callgsubr
          hintmask 0000010000001000
          14 callgsubr
          hintmask 0001100000100100
          -46 callsubr
          hintmask 0001011111010000
          -88 callgsubr
          hintmask 0010000000001000
          53 callgsubr
          hintmask 0000001110010100
          -67 callsubr
          hintmask 1100000000000000
          -116 -623 -100 callgsubr
        </CharString>
        <CharString name="Rdblgrave">
          680 -16 -5 callsubr
          75 -21 183 -75 callgsubr
          hintmask 0000001100000000
          -65 243 -98 callgsubr
        </CharString>
        <CharString name="Rdotaccent">
          680 -16 -5 callsubr
          60 82 hstemhm
          132 64 103 81 12 18 callsubr
          hintmask 0001000000001000
          14 callgsubr
          hintmask 0110000000100100
          -46 callsubr
          hintmask 0101110101010000
          -62 callsubr
          hintmask 0000110100010100
          -67 callsubr
          hintmask 0000001010000000
          -111 280 -100 callsubr
        </CharString>
        <CharString name="Rdotbelow">
          680 -200 82 102 49 callgsubr
          103 81 12 18 callsubr
          hintmask 0000100000001000
          14 callgsubr
          hintmask 0011000000100100
          -46 callsubr
          hintmask 0010111101010000
          -88 callgsubr
          hintmask 0100000000001000
          53 callgsubr
          hintmask 0000011100010100
          -67 callsubr
          hintmask 1000000010000000
          -111 -663 -100 callsubr
        </CharString>
        <CharString name="Rdotbelowmacron">
          680 -200 82 102 -5 callsubr
          64 23 hstemhm
          132 64 103 81 12 18 callsubr
          hintmask 0000100000000100
          14 callgsubr
          hintmask 0011000000010010
          -46 callsubr
          hintmask 0010111010101000
          -88 callgsubr
          hintmask 0100000000000100
          53 callgsubr
          hintmask 1000011011001010
          -67 callsubr
          -111 -663 rmoveto
          -93 callgsubr
          hintmask 0000000100000000
          130 906 -26 callsubr
        </CharString>
        <CharString name="Rho">
          -13 callgsubr
        </CharString>
        <CharString name="S">
          108 callgsubr
          hstem
          70 callsubr
          vstem
          464 181 rmoveto
          -101 callgsubr
          rrcurveto
          -66 50 84 -14 48 hhcurveto
          109 77 91 106 hvcurveto
          endchar
        </CharString>
        <CharString name="S_S">
          1022 -16 26 665 24 hstem
          70 callsubr
          93 87 callgsubr
          vstem
          464 181 rmoveto
          -101 callgsubr
          rrcurveto
          -66 50 84 -14 48 hhcurveto
          109 77 91 106 hvcurveto
          511 hmoveto
          -101 callgsubr
          rrcurveto
          -66 50 84 -14 48 hhcurveto
          109 77 91 106 hvcurveto
          endchar
        </CharString>
        <CharString name="Sacute">
          108 callgsubr
          59 -21 158 -20 hstemhm
          70 callsubr
          hintmask 11001110
          464 181 rmoveto
          -101 callgsubr
          rrcurveto
          -66 50 84 -14 48 hhcurveto
          109 77 91 106 hvcurveto
          hintmask 00110000
          -79 682 -105 callgsubr
        </CharString>
        <CharString name="Scaron">
          108 callgsubr
          49 -21 133 -20 hstemhm
          70 callsubr
          hintmask 11001110
          464 181 rmoveto
          -101 callgsubr
          rrcurveto
          -66 50 84 -14 48 hhcurveto
          109 77 91 106 hvcurveto
          hintmask 00110000
          -58 663 -58 callsubr
        </CharString>
        <CharString name="Scedilla">
          108 callgsubr
          hstem
          46 48 136 48 51 48 39 48 vstem
          464 181 rmoveto
          -101 callgsubr
          38 -50 57 -20 46 -7 rrcurveto
          -53 vlineto
          39 37 -22 -36 -58 -93 0 -77 hvcurveto
          -9 -18 18 hlineto
          102 123 0 76 48 -51 28 -53 hvcurveto
          32 5 vlineto
          109 77 91 106 hvcurveto
          endchar
        </CharString>
        <CharString name="Scircumflex">
          108 callgsubr
          49 -21 133 -20 hstemhm
          70 callsubr
          hintmask 11001110
          464 181 rmoveto
          -101 callgsubr
          rrcurveto
          -66 50 84 -14 48 hhcurveto
          109 77 91 106 hvcurveto
          hintmask 00110000
          -58 562 -52 callgsubr
        </CharString>
        <CharString name="Sdotbelow">
          511 -200 82 102 26 665 24 hstemhm
          46 48 121 81 -66 48 138 48 hintmask 01110110
          464 181 rmoveto
          -101 callgsubr
          rrcurveto
          -66 50 84 -14 48 hhcurveto
          109 77 91 106 hvcurveto
          hintmask 10001000
          -168 -340 -100 callsubr
        </CharString>
        <CharString name="Sigma">
          668 0 34 623 26 hstem
          46 575 vstem
          621 229 rmoveto
          -18 hlineto
          -162 -16 -57 -33 -162 hhcurveto
          -276 hlineto
          231 295 rlineto
          7 8 0 2 3 vvcurveto
          4 -4 6 -1 2 vhcurveto
          -197 303 rlineto
          242 hlineto
          166 50 -36 -159 17 hvcurveto
          18 hlineto
          -24 221 rlineto
          -529 hlineto
          -21 -1 -1 -21 hvcurveto
          231 -356 -223 -286 rlineto
          -7 -9 0 -3 0 vvcurveto
          -7 6 0 15 vhcurveto
          529 hlineto
          endchar
        </CharString>
        <CharString name="T">
          668 0 94 callsubr
          47 callgsubr
          hintmask 11010000
          -70 callgsubr
          hintmask 00100000
          -9 callsubr
          endchar
        </CharString>
        <CharString name="T_uni0303">
          668 727 95 callgsubr
          301 66 cntrmask 11100000
          -50 callsubr
          -70 callgsubr
          -9 callsubr
          hintmask 11100000
          -131 343 -106 callsubr
        </CharString>
        <CharString name="T_uni0308">
          668 0 94 callsubr
          47 73 hstemhm
          219 72 10 66 8 72 hintmask 00100000
          -50 callsubr
          hintmask 11000100
          -70 callgsubr
          hintmask 00100000
          -9 callsubr
          hintmask 00011010
          -330 305 -76 callsubr
        </CharString>
        <CharString name="Tau">
          668 0 94 callsubr
          47 callgsubr
          hintmask 11010000
          -70 callgsubr
          hintmask 00100000
          -9 callsubr
          endchar
        </CharString>
        <CharString name="Tcaron">
          668 0 94 callsubr
          68 -21 133 -20 47 callgsubr
          hintmask 11000100
          -70 callgsubr
          hintmask 00100000
          -9 callsubr
          hintmask 00011000
          -137 385 -58 callsubr
        </CharString>
        <CharString name="Tcedilla">
          668 -200 18 116 18 48 94 callsubr
          hstemhm
          301 66 -51 36 40 64 hintmask 00001000
          -50 callsubr
          hintmask 00110100
          18 29 0 -1 8 hvcurveto
          19 -3 0 -12 -23 vvcurveto
          -542 vlineto
          -36 -3 -11 -83 vhcurveto
          -28 -26 hlineto
          hintmask 11100011
          129 2 rlineto
          -68 6 callsubr
          48 -51 28 -53 hvcurveto
          50 vlineto
          129 -2 rlineto
          26 -28 vlineto
          hintmask 00010100
          -83 -3 11 36 hvcurveto
          542 vlineto
          22 0 12 18 4 vhcurveto
          hintmask 00001000
          -9 callsubr
          endchar
        </CharString>
        <CharString name="Tdotbelow">
          668 -200 82 118 94 callsubr
          hstemhm
          293 81 -73 66 hintmask 00010000
          -50 callsubr
          hintmask 01100100
          -70 callgsubr
          hintmask 00010000
          -9 callsubr
          hintmask 10001000
          -247 -618 -100 callsubr
        </CharString>
        <CharString name="Theta">
          720 -16 17 313 56 313 16 hstem
          46 73 53 18 339 18 53 73 vstem
          -72 callgsubr
          -203 146 -153 167 171 143 156 200 vhcurveto
          -73 hmoveto
          -234 -130 -105 -110 -114 -127 108 231 238 131 105 109 113 128 -108 -235 vhcurveto
          -53 -60 rmoveto
          124 -18 -34 -339 34 -18 -124 18 34 339 -34 vlineto
          endchar
        </CharString>
        <CharString name="Thorn">
          576 -1 27 152 26 321 26 106 27 hstem
          131 63 259 74 vstem
          527 364 rmoveto
          85 -66 102 -139 vhcurveto
          -128 59 hlineto
          47 9 0 71 vhcurveto
          27 vlineto
          -111 -3 -112 3 rlineto
          -27 vlineto
          71 9 0 -47 hvcurveto
          -537 vlineto
          -47 -9 0 -71 vhcurveto
          -27 vlineto
          111 3 112 -3 rlineto
          27 vlineto
          -71 -9 0 47 hvcurveto
          105 137 vlineto
          117 79 91 95 hvcurveto
          -74 1 rmoveto
          -72 -49 -89 -103 vhcurveto
          -107 321 112 hlineto
          123 24 -116 -44 hvcurveto
          endchar
        </CharString>
        <CharString name="Tlinebelow">
          668 -170 23 147 94 callsubr
          hstemhm
          301 66 hintmask 00010000
          -50 callsubr
          hintmask 01101000
          -70 callgsubr
          hintmask 00010000
          -9 callsubr
          hintmask 10000000
          -118 -629 -26 callsubr
        </CharString>
        <CharString name="U">
          12 callgsubr
          hstem
          131 66 343 21 vstem
          -105 callsubr
          endchar
        </CharString>
        <CharString name="U_uni032F">
          693 -225 -21 146 28 56 26 647 26 29 callsubr
          hintmask 00111100
          -105 callsubr
          hintmask 11000000
          -135 -903 -48 callsubr
        </CharString>
        <CharString name="Uacute">
          12 callgsubr
          75 -21 158 -20 29 callsubr
          hintmask 11001100
          -105 callsubr
          hintmask 00110000
          -144 206 -105 callgsubr
        </CharString>
        <CharString name="Ubreve">
          12 callgsubr
          54 28 146 -20 29 callsubr
          hintmask 11001100
          -105 callsubr
          hintmask 00110000
          -135 254 -98 callsubr
          endchar
        </CharString>
        <CharString name="Ucaron">
          12 callgsubr
          65 -21 133 -20 29 callsubr
          hintmask 11001100
          -105 callsubr
          hintmask 00110000
          -123 187 -58 callsubr
        </CharString>
        <CharString name="Ucircumflex">
          12 callgsubr
          65 -21 133 -20 29 callsubr
          hintmask 11001100
          -105 callsubr
          hintmask 00110000
          -123 86 -52 callgsubr
        </CharString>
        <CharString name="Udblgrave">
          12 callgsubr
          75 139 callsubr
          29 callsubr
          hintmask 11001100
          -105 callsubr
          hintmask 00110000
          -162 90 -98 callgsubr
        </CharString>
        <CharString name="Udieresis">
          12 callgsubr
          44 73 66 callsubr
          56 72 84 72 59 21 hintmask 11010010
          -105 callsubr
          hintmask 00101100
          -21 callgsubr
          endchar
        </CharString>
        <CharString name="Udieresisacute">
          12 callgsubr
          44 73 75 -21 158 -20 66 callsubr
          56 72 84 72 59 21 hintmask 1100010010000000
          -105 callsubr
          hintmask 0011101100000000
          -21 callgsubr
          16 216 -105 callgsubr
        </CharString>
        <CharString name="Udieresiscaron">
          12 callgsubr
          44 73 39 callsubr
          131 66 56 72 84 72 59 21 hintmask 1100010010000000
          -105 callsubr
          hintmask 0011101100000000
          -21 callgsubr
          37 197 -58 callsubr
        </CharString>
        <CharString name="Udieresisgrave">
          12 callgsubr
          44 73 75 -21 158 -20 66 callsubr
          56 72 84 72 59 21 hintmask 1100010010000000
          -105 callsubr
          hintmask 0011101100000000
          -21 callgsubr
          -48 103 -87 callsubr
        </CharString>
        <CharString name="Udotbelow">
          693 -200 82 102 26 647 26 66 callsubr
          129 81 133 21 hintmask 01110100
          -105 callsubr
          hintmask 10001000
          -234 -816 -100 callsubr
        </CharString>
        <CharString name="Ugrave">
          12 callgsubr
          75 -21 158 -20 29 callsubr
          hintmask 11001100
          -105 callsubr
          hintmask 00110000
          -208 93 -87 callsubr
        </CharString>
        <CharString name="Uhookabove">
          12 callgsubr
          81 -21 214 -20 29 callsubr
          hintmask 11001100
          -105 callsubr
          hintmask 00110000
          -183 234 -107 callsubr
        </CharString>
        <CharString name="Uhorn">
          57 callsubr
          83 -20 79 callsubr
          hintmask 00011010
          -15 callgsubr
          hintmask 00010001
          -12 -23 -25 -16 -29 -4 rrcurveto
          40 vlineto
          hintmask 00100000
          -1 -4 -4 -1 -3 hhcurveto
          hintmask 11010101
          -68 callsubr
          hintmask 00100000
          -116 -2 rlineto
          hintmask 11010110
          -41 callsubr
          55 52 27 44 36 hvcurveto
          hintmask 01000001
          9 callgsubr
          endchar
        </CharString>
        <CharString name="Uhornacute">
          57 callsubr
          75 -21 29 -20 149 -77 callsubr
          -180 147 -105 callgsubr
        </CharString>
        <CharString name="Uhorndotbelow">
          694 -200 82 103 26 614 26 6 24 -24 26 83 -20 hstemhm
          133 67 106 81 114 67 -31 23 hintmask 0000110010000000
          -15 callgsubr
          hintmask 0000100001000000
          -12 -23 -25 -16 -29 -4 rrcurveto
          40 vlineto
          hintmask 0001000000000000
          -1 -4 -4 -1 -3 hhcurveto
          hintmask 0110101001000000
          -68 callsubr
          hintmask 0001000000000000
          -116 -2 rlineto
          hintmask 0110101010000000
          -41 callsubr
          55 52 27 44 36 hvcurveto
          hintmask 0010000001000000
          9 callgsubr
          hintmask 1000000100000000
          -264 -875 -100 callsubr
        </CharString>
        <CharString name="Uhorngrave">
          57 callsubr
          75 -21 29 -20 149 -77 callsubr
          -218 34 -87 callsubr
        </CharString>
        <CharString name="Uhornhookabove">
          57 callsubr
          81 -21 23 -20 211 -77 callsubr
          -193 175 -107 callsubr
        </CharString>
        <CharString name="Uhorntilde">
          694 727 34 -8 34 -8 34 79 callsubr
          cntrmask 11100000
          hintmask 11101000
          -15 callgsubr
          hintmask 11110100
          -12 -23 -25 -16 -29 -4 rrcurveto
          40 vlineto
          -1 -4 -4 -1 -3 hhcurveto
          -68 callsubr
          -116 -2 -41 callsubr
          hintmask 11101000
          55 52 27 44 36 hvcurveto
          hintmask 11100100
          9 callgsubr
          hintmask 11100000
          -127 86 -106 callsubr
        </CharString>
        <CharString name="Uhungarumlaut">
          12 callgsubr
          75 139 callsubr
          29 callsubr
          hintmask 11001100
          -105 callsubr
          hintmask 00110000
          -272 237 -85 callsubr
        </CharString>
        <CharString name="Umacron">
          12 callgsubr
          64 23 29 callsubr
          hintmask 11011000
          -105 callsubr
          hintmask 00110000
          -104 90 -26 callsubr
        </CharString>
        <CharString name="Uogonek">
          693 90 callgsubr
          79 26 647 26 hstem
          131 66 80 21 242 21 vstem
          641 657 rmoveto
          110 callgsubr
          -25 hhcurveto
          -25 -43 0 2 -23 -30 callsubr
          80 0 -47 -25 hvcurveto
          -356 vlineto
          -134 -87 -85 -95 -51 -46 27 42 -28 vhcurveto
          -32 48 -4 62 35 vvcurveto
          388 -97 callsubr
          -383 vlineto
          -126 84 -93 98 -21 vhcurveto
          -34 -32 -29 -40 -38 -43 callsubr
          -63 callsubr
          20 10 19 14 17 hvcurveto
          7 9 8 7 9 7 rrcurveto
          10 hlineto
          130 75 133 98 hvcurveto
          380 vlineto
          56 51 6 29 vhcurveto
          endchar
        </CharString>
        <CharString name="Upsilon">
          720 0 26 616 57 hstemhm
          46 27 254 66 -33 66 220 27 hintmask 01101000
          673 553 rmoveto
          53 -35 93 -87 -152 -31 -194 -51 -7 vhcurveto
          -1 hlineto
          52 -8 -32 193 -152 hhcurveto
          -88 -34 -94 -52 -10 1 -3 10 9 0 3 8 1 hvcurveto
          74 9 59 17 32 hhcurveto
          hintmask 10010000
          150 10 -229 -60 hvcurveto
          -281 vlineto
          -36 -2 -10 -76 vhcurveto
          -22 -26 hlineto
          hintmask 10001000
          2 42 49 0 42 hhcurveto
          42 49 0 -2 42 hvcurveto
          26 -22 vlineto
          hintmask 00010000
          -76 -2 10 36 hvcurveto
          281 vlineto
          hintmask 01001100
          44 6 85 27 65 vhcurveto
          65 28 44 30 54 hhcurveto
          32 59 -18 -73 9 hvcurveto
          -8 1 0 -3 9 hhcurveto
          10 1 3 10 hvcurveto
          endchar
        </CharString>
        <CharString name="Uring">
          12 callgsubr
          24 23 130 136 callsubr
          83 25 124 25 86 21 hintmask 11001001
          -105 callsubr
          hintmask 00110110
          -212 138 -53 callgsubr
        </CharString>
        <CharString name="Utilde">
          693 133 callsubr
          343 21 cntrmask 11100000
          -105 callsubr
          hintmask 11100000
          -117 145 -106 callsubr
        </CharString>
        <CharString name="V">
          693 5 -21 603 26 44 26 hstem
          10 672 vstem
          682 657 rmoveto
          26 vlineto
          -2 -23 -26 0 -25 hhcurveto
          -24 -41 0 2 -23 -30 callsubr
          50 -3 2 -35 -6 vvcurveto
          -11 -3 -7 -3 -8 vhcurveto
          -197 -513 -206 539 rlineto
          -3 7 -2 5 5 vvcurveto
          27 40 0 21 24 callgsubr
          -32 -47 0 -33 hhcurveto
          -26 -47 0 2 -24 -30 callsubr
          58 11 -4 -32 12 hvcurveto
          238 -621 rlineto
          -14 5 1 -2 11 hhcurveto
          11 1 2 14 5 hvcurveto
          227 591 9 22 16 43 67 1 rlinecurve
          endchar
        </CharString>
        <CharString name="W">
          28 callsubr
          hstemhm
          9 936 hintmask 00101100
          -33 callsubr
          -155 -494 -163 520 rlineto
          -3 10 -1 4 4 vvcurveto
          28 44 0 19 66 callgsubr
          -50 0 -31 hhcurveto
          -25 -45 0 2 -23 -30 callsubr
          46 12 -3 -18 10 hvcurveto
          4 -9 16 -52 -3 vvcurveto
          hintmask 01000000
          -4 -2 -6 -1 -3 vhcurveto
          -147 -467 rlineto
          hintmask 00101100
          -163 519 -25 callsubr
          hintmask 10011100
          60 4 -6 -32 10 hvcurveto
          195 -618 rlineto
          -15 5 0 -2 9 hhcurveto
          8 3 2 14 4 hvcurveto
          170 542 170 -542 rlineto
          -14 4 3 -2 8 hhcurveto
          9 0 2 15 5 hvcurveto
          187 592 9 27 15 35 58 2 rlinecurve
          endchar
        </CharString>
        <CharString name="Wacute">
          28 callsubr
          75 -21 158 -76 callgsubr
          -338 206 -105 callgsubr
        </CharString>
        <CharString name="Wcircumflex">
          28 callsubr
          65 -21 133 -76 callgsubr
          -317 86 -52 callgsubr
        </CharString>
        <CharString name="Wdieresis">
          28 callsubr
          44 73 hstemhm
          9 936 -582 72 84 72 hintmask 0010101000000000
          -33 callsubr
          -155 -494 -163 520 rlineto
          hintmask 0100100010000000
          -3 10 -1 4 4 vvcurveto
          28 44 0 19 66 callgsubr
          -50 0 -31 hhcurveto
          -25 -45 0 2 -23 -30 callsubr
          46 12 -3 -18 10 hvcurveto
          4 -9 16 -52 -3 vvcurveto
          -4 -2 -6 -1 -3 vhcurveto
          -147 -467 rlineto
          hintmask 0010101000000000
          -163 519 -25 callsubr
          hintmask 1001101000000000
          60 4 -6 -32 10 hvcurveto
          195 -618 rlineto
          -15 5 0 -2 9 hhcurveto
          8 3 2 14 4 hvcurveto
          170 542 170 -542 rlineto
          -14 4 3 -2 8 hhcurveto
          9 0 2 15 5 hvcurveto
          187 592 9 27 15 35 58 2 rlinecurve
          hintmask 0000010110000000
          -510 31 callsubr
        </CharString>
        <CharString name="Wgrave">
          28 callsubr
          75 -21 158 -76 callgsubr
          -402 93 -87 callsubr
        </CharString>
        <CharString name="X">
          -49 callgsubr
        </CharString>
        <CharString name="Xi">
          615 0 52 97 -20 180 -21 40 52 40 -20 163 -21 86 52 hstemhm
          33 18 -13 18 69 18 328 18 63 18 -12 18 -13 18 hintmask 0000011010010000
          576 542 rmoveto
          -6 119 -1 19 rlineto
          -524 hlineto
          -6 -119 -1 -19 rlineto
          18 hlineto
          1 18 2 47 9 12 rrcurveto
          9 6 57 0 10 hhcurveto
          332 hlineto
          24 45 0 -10 6 hvcurveto
          hintmask 0000010000001000
          7 -16 2 -41 1 -19 rrcurveto
          23 -393 rmoveto
          hintmask 0100000000000100
          -18 hlineto
          hintmask 1100000100010000
          -3 -45 -1 -26 -7 -14 rrcurveto
          -12 -6 -46 0 -26 hhcurveto
          -334 hlineto
          -36 -37 0 13 -6 hvcurveto
          -6 14 -2 30 -2 40 rrcurveto
          -18 hlineto
          7 -149 rlineto
          534 hlineto
          hintmask 0111100001100100
          -85 288 rmoveto
          132 -18 -40 -328 40 -18 -132 18 40 328 -40 vlineto
          endchar
        </CharString>
        <CharString name="Y">
          60 callgsubr
          hstem
          80 callgsubr
          vstem
          -94 callsubr
          endchar
        </CharString>
        <CharString name="Yacute">
          60 callgsubr
          75 -21 158 -20 hstemhm
          80 callgsubr
          hintmask 11100110
          -94 callsubr
          hintmask 00011000
          -214 206 -105 callgsubr
        </CharString>
        <CharString name="Ycircumflex">
          60 callgsubr
          39 callsubr
          80 callgsubr
          hintmask 11100110
          -94 callsubr
          hintmask 00011000
          -193 86 -52 callgsubr
        </CharString>
        <CharString name="Ydieresis">
          60 callgsubr
          44 73 hstemhm
          232 72 10 64 10 72 92 64 hintmask 11100101
          -94 callsubr
          hintmask 00011010
          -386 31 callsubr
        </CharString>
        <CharString name="Ydotbelow">
          693 10 callgsubr
          565 26 40 26 hstemhm
          306 81 -73 64 174 64 hintmask 01110110
          -94 callsubr
          hintmask 10001000
          -303 -816 -100 callsubr
        </CharString>
        <CharString name="Ygrave">
          60 callgsubr
          75 -21 158 -20 hstemhm
          80 callgsubr
          hintmask 11100110
          -94 callsubr
          hintmask 00011000
          -278 93 -87 callsubr
        </CharString>
        <CharString name="Yhookabove">
          60 callgsubr
          81 -21 214 -20 hstemhm
          80 callgsubr
          hintmask 11100110
          -94 callsubr
          hintmask 00011000
          -253 234 -107 callsubr
        </CharString>
        <CharString name="Ytilde">
          693 727 95 callgsubr
          80 callgsubr
          cntrmask 11100000
          -94 callsubr
          hintmask 11100000
          -187 145 -106 callsubr
        </CharString>
        <CharString name="Z">
          87 callsubr
          hstem
          46 475 vstem
          -71 callsubr
          endchar
        </CharString>
        <CharString name="Zacute">
          87 callsubr
          75 -21 158 -20 hstemhm
          46 475 hintmask 11001000
          -71 callsubr
          hintmask 00110000
          -96 863 -105 callgsubr
        </CharString>
        <CharString name="Zcaron">
          87 callsubr
          39 callsubr
          46 475 hintmask 11001000
          -71 callsubr
          hintmask 00110000
          -75 844 -58 callsubr
        </CharString>
        <CharString name="Zdotaccent">
          87 callsubr
          60 82 hstemhm
          46 475 -280 81 hintmask 11010000
          -71 callsubr
          hintmask 00101000
          -185 784 -100 callsubr
        </CharString>
        <CharString name="Zdotbelow">
          563 -200 82 118 28 629 26 hstemhm
          46 475 -280 81 hintmask 01110000
          -71 callsubr
          hintmask 10001000
          -185 -159 -100 callsubr
        </CharString>
        <CharString name="Zeta">
          87 callsubr
          hstem
          46 475 vstem
          -71 callsubr
          endchar
        </CharString>
        <CharString name="a">
          459 4 callsubr
          vstem
          -107 callgsubr
          endchar
        </CharString>
        <CharString name="aacute">
          459 533 -21 184 -104 callgsubr
          48 430 -94 callgsubr
        </CharString>
        <CharString name="abreve">
          459 517 28 146 -104 callgsubr
          47 callsubr
          endchar
        </CharString>
        <CharString name="abreveacute">
          121 callsubr
          324 -104 callgsubr
          71 452 1 callsubr
        </CharString>
        <CharString name="abrevedotbelow">
          459 -200 82 635 122 callsubr
          30 61 97 81 28 53 81 18 hintmask 01110110
          -107 callgsubr
          47 callsubr
          hintmask 10001000
          -99 -850 -100 callsubr
        </CharString>
        <CharString name="abrevegrave">
          459 517 28 146 -104 callgsubr
          47 callsubr
          -41 33 -81 callgsubr
        </CharString>
        <CharString name="abrevehookabove">
          121 callsubr
          360 -104 callgsubr
          47 callsubr
          -48 148 -107 callsubr
        </CharString>
        <CharString name="abrevetilde">
          459 731 34 -8 34 -8 34 5 callsubr
          cntrmask 11100000
          -107 callgsubr
          hintmask 11100000
          47 callsubr
          18 115 -106 callsubr
        </CharString>
        <CharString name="acaron">
          459 537 -21 176 -104 callgsubr
          84 439 -56 callgsubr
        </CharString>
        <CharString name="acircumflex">
          459 537 -21 176 -104 callgsubr
          84 291 -69 callgsubr
          endchar
        </CharString>
        <CharString name="acircumflexacute">
          123 callsubr
          311 -104 callgsubr
          83 293 -93 callsubr
          -42 279 -105 callgsubr
        </CharString>
        <CharString name="acircumflexdotbelow">
          459 -200 82 655 -21 176 -20 hstemhm
          30 61 97 81 28 53 81 18 hintmask 01110110
          -107 callgsubr
          84 291 -69 callgsubr
          hintmask 10001000
          -99 -675 -100 callsubr
        </CharString>
        <CharString name="acircumflexgrave">
          123 callsubr
          133 -104 callgsubr
          83 293 -93 callsubr
          -41 166 -81 callgsubr
        </CharString>
        <CharString name="acircumflexhookabove">
          123 callsubr
          347 -104 callgsubr
          83 293 -93 callsubr
          42 281 -107 callsubr
        </CharString>
        <CharString name="acircumflextilde">
          459 689 34 -8 34 -8 34 5 callsubr
          cntrmask 11100000
          -107 callgsubr
          hintmask 11100000
          83 293 -93 callsubr
          18 248 -106 callsubr
        </CharString>
        <CharString name="acute">
          459 533 121 callgsubr
          345 669 -94 callgsubr
        </CharString>
        <CharString name="acute.cap">
          459 505 -21 158 -20 hstem
          359 610 -105 callgsubr
        </CharString>
        <CharString name="acute.dup">
          459 533 121 callgsubr
          345 669 -94 callgsubr
        </CharString>
        <CharString name="acute.ts1">
          470 534 121 callgsubr
          367 670 rmoveto
          14 -14 13 -14 -12 -8 -9 -9 -6 vhcurveto
          -20 -25 -71 -92 -20 -25 rlineto
          -2 -3 -4 -4 -4 vvcurveto
          -1 vlineto
          -5 7 -4 3 -3 vhcurveto
          9 6 8 8 8 8 44 40 rcurveline
          33 30 59 42 23 vvcurveto
          endchar
        </CharString>
        <CharString name="adblgrave">
          459 534 -21 183 -104 callgsubr
          44 284 -98 callgsubr
        </CharString>
        <CharString name="adieresis">
          459 568 73 hstemhm
          30 61 36 72 60 72 -34 53 81 18 hintmask 01001100
          -107 callgsubr
          hintmask 10110000
          -98 366 -60 callgsubr
        </CharString>
        <CharString name="adotbelow">
          459 -200 82 hstemhm
          30 61 97 81 28 53 81 18 hintmask 01011000
          -107 callgsubr
          hintmask 10100000
          -28 -398 -100 callsubr
        </CharString>
        <CharString name="ae">
          -54 callsubr
        </CharString>
        <CharString name="ae.dup">
          -54 callsubr
        </CharString>
        <CharString name="aeacute">
          668 -8 16 110 15 99 16 -13 15 46 15 115 16 110 callsubr
          42 61 28 53 123 53 -53 54 232 53 -53 54 hintmask 1110110011101000
          647 253 rmoveto
          100 -51 89 -104 -46 -55 -20 -63 -43 vhcurveto
          48 -25 -55 35 -64 hhcurveto
          -79 -57 -62 -66 -37 30 -2 6 13 23 8 28 25 -19 11 -17 -4 -5 -1 -1 -3 hvcurveto
          64 21 56 17 33 hhcurveto
          48 57 -40 -90 hvcurveto
          -48 vlineto
          -57 -3 -56 -3 -63 -30 rrcurveto
          -55 -25 -34 -47 -51 vvcurveto
          -73 83 -24 59 81 58 46 49 20 vhcurveto
          -77 50 68 -18 42 hhcurveto
          106 37 111 15 6 -3 2 -5 -7 -1 -2 -11 -3 hvcurveto
          -72 -21 -50 -31 -47 hhcurveto
          -30 -51 13 61 -37 hvcurveto
          hintmask 0001000000100100
          -31 52 0 61 38 vvcurveto
          263 hlineto
          23 1 1 17 hvcurveto
          -54 -3 rmoveto
          hintmask 1001010010011000
          -232 hlineto
          143 10 79 33 40 hhcurveto
          98 4 -141 -35 1 hvcurveto
          -277 -117 rmoveto
          -70 -58 -55 -67 -52 -36 39 42 vhcurveto
          hintmask 0110000000100000
          57 44 82 160 4 vhcurveto
          -28 0 -14 6 -28 vhcurveto
          3 -14 0 -5 -10 vvcurveto
          hintmask 0000001100000000
          133 536 -94 callgsubr
        </CharString>
        <CharString name="agrave">
          459 533 -21 184 -104 callgsubr
          -10 285 -74 callsubr
        </CharString>
        <CharString name="ahookabove">
          459 518 -21 214 -104 callgsubr
          23 406 -107 callsubr
        </CharString>
        <CharString name="amacron">
          459 593 23 5 callsubr
          hintmask 01110000
          -107 callgsubr
          hintmask 10000000
          102 354 -26 callsubr
        </CharString>
        <CharString name="ampersand">
          720 -16 26 102 16 230 16 30 26 264 16 hstemhm
          33 64 56 48 12 18 102 18 240 64 0 18 hintmask 1111111010100000
          678 404 rmoveto
          26 vlineto
          -2 -19 -42 0 -20 hhcurveto
          -30 -47 0 2 -29 -30 callsubr
          33 27 -14 -27 -16 -23 -39 -43 -72 hvcurveto
          -15 -26 -35 -59 -35 -39 -15 19 -99 127 -49 129 rrcurveto
          103 124 11 45 32 vvcurveto
          40 -13 82 -65 -59 -61 -54 -97 -51 8 -63 30 -87 vhcurveto
          -124 -144 rlineto
          -22 -25 -12 -28 -33 vvcurveto
          -82 77 -62 94 94 60 58 19 20 vhcurveto
          -25 27 55 -52 80 hhcurveto
          71 60 54 83 2 hvcurveto
          -18 hlineto
          -78 -2 -65 -33 -44 hhcurveto
          -59 -49 59 28 -24 hvcurveto
          19 23 32 39 66 119 rrcurveto
          hintmask 1011111111000000
          19 33 28 50 15 13 14 12 23 17 50 1 rrcurveto
          -345 185 rmoveto
          -35 -18 -50 -84 -98 vhcurveto
          -19 52 -11 66 54 vvcurveto
          88 41 28 32 56 3 -90 -15 vhcurveto
          32 -514 rmoveto
          -46 -49 -54 -19 -49 hhcurveto
          -81 -35 83 65 41 13 41 26 30 hvcurveto
          62 71 49 -111 71 -101 47 -54 rlinecurve
          endchar
        </CharString>
        <CharString name="anglearc">
          720 -43 -21 628 -20 hstem
          521 34 vstem
          673 17 rmoveto
          7 -4 6 -7 3 vhcurveto
          -135 53 rlineto
          18 52 10 56 56 vvcurveto
          56 -10 56 -18 52 vhcurveto
          135 53 rlineto
          7 3 4 6 7 vvcurveto
          12 -12 8 -11 -4 vhcurveto
          -136 -53 -17 40 -23 37 -27 35 rlinecurve
          4 -3 -5 2 -5 hhcurveto
          -10 -7 -8 -9 -4 1 -4 2 -3 hvcurveto
          26 -31 21 -35 16 -37 -426 -167 rcurveline
          -7 -3 -4 -6 -7 vvcurveto
          -7 4 -6 7 -3 vhcurveto
          426 -167 -16 -37 -21 -35 -26 -31 rlinecurve
          -2 -3 -1 -4 -4 vvcurveto
          -9 7 -8 10 5 5 2 4 3 vhcurveto
          27 35 23 37 17 40 136 -53 rcurveline
          11 -4 12 8 12 vvcurveto
          -152 233 rmoveto
          -52 -9 -51 -17 -49 vhcurveto
          -386 152 386 152 rlineto
          17 -49 9 -51 -52 vvcurveto
          endchar
        </CharString>
        <CharString name="angleleft">
          116 callgsubr
          312 -231 rmoveto
          2 vlineto
          -3 14 -7 14 -4 13 -130 359 rcurveline
          -19 53 -3 8 -5 9 -1 9 rlinecurve
          10 7 11 3 9 vhcurveto
          158 438 rlineto
          2 5 2 6 6 vvcurveto
          8 -2 -7 7 -8 hhcurveto
          hintmask 11000000
          -5 -1 -15 -4 -3 -25 -7 -17 rlinecurve
          -152 -420 rlineto
          -3 -10 -7 -12 -11 vvcurveto
          -9 6 -10 3 -9 vhcurveto
          161 -446 rlineto
          -12 4 5 -13 13 hhcurveto
          9 8 10 8 hvcurveto
          endchar
        </CharString>
        <CharString name="angleright">
          116 callgsubr
          261 251 rmoveto
          10 -6 10 -3 9 vhcurveto
          -21 57 -131 364 -9 24 rlineto
          12 -4 -4 13 -14 hhcurveto
          hintmask 11000000
          -4 -1 rlineto
          -8 -2 -5 -8 -8 vvcurveto
          3 -13 5 -13 5 -12 150 -415 rcurveline
          3 -8 5 -10 1 -9 rrcurveto
          -10 -7 -11 -3 -9 vhcurveto
          -156 -431 rlineto
          -2 -6 -3 -9 -7 vvcurveto
          -7 4 -10 14 vhcurveto
          17 2 4 26 6 16 51 142 rcurveline
          102 281 rlineto
          3 10 7 12 11 vvcurveto
          endchar
        </CharString>
        <CharString name="aogonek">
          459 30 61 130 48 28 53 81 18 vstem
          -45 callsubr
          endchar
        </CharString>
        <CharString name="aogonekacute">
          459 533 61 callsubr
          30 61 130 48 28 53 81 18 hintmask 00111100
          -45 callsubr
          hintmask 11000000
          48 430 -94 callgsubr
        </CharString>
        <CharString name="aring">
          459 520 125 callgsubr
          hstemhm
          30 61 52 25 124 25 -20 53 81 18 hintmask 00100110
          -107 callgsubr
          hintmask 11011000
          -5 369 -53 callgsubr
        </CharString>
        <CharString name="aringacute">
          459 520 125 callgsubr
          20 23 135 -20 hstemhm
          30 61 52 25 124 25 -20 53 81 18 hintmask 0000100110000000
          -107 callgsubr
          hintmask 1111011000000000
          -5 369 -77 callgsubr
          10 234 -105 callgsubr
        </CharString>
        <CharString name="asciicircum">
          556 583 -21 123 59 hstem
          -5 566 vstem
          561 584 rmoveto
          -283 160 -283 -160 11 -22 271 123 272 -123 rlineto
          endchar
        </CharString>
        <CharString name="asciitilde">
          556 193 43 -25 43 -8 43 -25 43 hstemhm
          hintmask 10010000
          555 290 51 callgsubr
          hintmask 01000000
          32 callgsubr
          hintmask 00100000
          20 10 20 11 17 14 rrcurveto
          endchar
        </CharString>
        <CharString name="asciitilde.low">
          556 0 43 -25 43 -8 43 -25 43 hstemhm
          0 555 hintmask 10010000
          555 97 51 callgsubr
          hintmask 01001000
          32 callgsubr
          hintmask 00101000
          20 10 20 11 17 14 rrcurveto
          endchar
        </CharString>
        <CharString name="asterisk">
          459 340 -21 430 -20 hstem
          56 346 vstem
          402 438 rmoveto
          11 -6 4 -11 6 vhcurveto
          -141 75 141 76 rlineto
          12 7 5 2 11 vvcurveto
          21 -21 0 -6 vhcurveto
          -138 -102 13 180 rlineto
          12 -2 -8 8 -11 hhcurveto
          -12 -8 -10 -9 hvcurveto
          12 -181 -126 93 rlineto
          9 -11 -2 0 -5 hhcurveto
          -14 -7 -12 -9 -11 6 -4 11 -6 hvcurveto
          141 -75 -141 -76 rlineto
          -12 -7 -5 -2 -11 vvcurveto
          -21 21 0 6 vhcurveto
          138 102 -13 -181 rlineto
          -9 1 7 -10 13 hhcurveto
          12 8 9 11 hvcurveto
          -1 15 -11 165 126 -93 rlineto
          -9 11 2 0 5 hhcurveto
          14 7 12 9 hvcurveto
          endchar
        </CharString>
        <CharString name="asterisk.math">
          470 57 -21 430 -20 hstem
          62 181 -30 43 -30 181 cntrmask 00111000
          407 156 rmoveto
          20 -67 27 -31 17 vhcurveto
          -20 10 -20 14 -18 6 rrcurveto
          2 vlineto
          18 6 20 14 20 10 rrcurveto
          31 17 67 27 20 vvcurveto
          12 -8 10 -12 -13 -12 -12 -7 -9 vhcurveto
          -110 -82 rlineto
          4 57 9 60 57 vvcurveto
          11 -5 14 -16 -17 -5 -13 -12 -57 9 -60 4 -57 vhcurveto
          -110 82 rlineto
          7 -9 -12 12 -13 hhcurveto
          -12 -8 -10 -12 -20 67 -27 31 -17 hvcurveto
          20 -10 20 -14 18 -6 rrcurveto
          -2 vlineto
          -18 -6 -20 -14 -20 -10 rrcurveto
          -31 -17 -67 -27 -20 vvcurveto
          -12 8 -10 12 13 12 12 7 9 vhcurveto
          110 82 rlineto
          -4 -57 -9 -60 -57 vvcurveto
          -12 5 -13 17 16 5 14 11 57 -9 60 -4 57 vhcurveto
          110 -82 rlineto
          -7 9 12 -12 13 hhcurveto
          12 8 10 12 hvcurveto
          endchar
        </CharString>
        <CharString name="at">
          720 -8 16 123 16 400 16 123 16 hstemhm
          46 18 108 53 269 53 -21 53 76 18 hintmask 1101101010000000
          673 334 rmoveto
          251 -174 117 -139 -168 -146 -151 -204 -191 133 -164 186 163 144 68 8 5 -1 1 -20 -17 -2 0 -3 -5 vhcurveto
          -17 -36 -97 -46 -130 hhcurveto
          -177 -123 161 178 190 136 149 159 72 71 -29 -67 64 hvcurveto
          64 -70 25 -95 -95 vvcurveto
          -75 -2 -108 -70 -32 -4 41 27 vhcurveto
          242 vlineto
          hintmask 0110010110000000
          19 -1 1 -20 vhcurveto
          -28 hlineto
          0 -2 1 -5 7 vhcurveto
          62 -42 -52 16 -38 hhcurveto
          -96 -91 -88 -128 -128 92 -88 95 69 47 51 31 18 hvcurveto
          -56 1 46 -26 39 hhcurveto
          83 11 96 107 hvcurveto
          -179 -63 rmoveto
          -19 0 -1 -12 -21 vhcurveto
          -57 -31 -48 -26 -43 hhcurveto
          -74 -61 89 111 111 61 89 74 42 32 -24 -15 16 hvcurveto
          hintmask 0000001000000000
          24 -23 20 -29 -33 vvcurveto
          endchar
        </CharString>
        <CharString name="atilde">
          459 561 34 -8 34 -8 34 5 callsubr
          cntrmask 11100000
          -107 callgsubr
          hintmask 11100000
          89 397 -106 callsubr
        </CharString>
        <CharString name="b">
          511 -8 16 414 16 219 37 hstemhm
          99 51 -51 64 250 64 hintmask 11110100
          102 callgsubr
          328 78 callsubr
          -603 18 vlineto
          64 callgsubr
          hintmask 01001100
          40 callgsubr
        </CharString>
        <CharString name="backslash">
          500 106 callsubr
          56 387 vstem
          443 -230 rmoveto
          0 0 5 -5 13 vhcurveto
          -340 940 rlineto
          11 -4 -4 11 -14 hhcurveto
          -11 -9 -9 -11 0 0 -5 5 -13 hvcurveto
          340 -940 rlineto
          -11 4 4 -11 14 hhcurveto
          11 9 9 11 hvcurveto
          endchar
        </CharString>
        <CharString name="baht">
          654 -26 26 0 26 321 16 294 26 0 26 hstemhm
          132 63 111 26 -26 74 -41 26 5 26 112 73 -48 74 -26 26 hintmask 0000101001001000
          607 182 rmoveto
          90 -82 77 -107 7 vhcurveto
          96 19 67 64 76 vvcurveto
          83 -82 85 -129 vhcurveto
          -38 26 hlineto
          7 -6 6 -7 -7 -6 -6 -7 vhcurveto
          -26 -254 vlineto
          hintmask 0101011000000000
          -50 callgsubr
          -541 -67 callgsubr
          254 vlineto
          hintmask 1011001011001000
          -26 vlineto
          -7 6 -6 7 7 6 6 7 vhcurveto
          26 64 vlineto
          128 83 91 91 hvcurveto
          -99 333 rmoveto
          -76 -61 -76 -108 vhcurveto
          -7 294 33 hlineto
          hintmask 0111011000100000
          99 44 -80 -62 hvcurveto
          -202 -152 rmoveto
          -111 255 hlineto
          34 2 5 40 vhcurveto
          69 hlineto
          227 -474 rmoveto
          -73 -57 -84 -109 vhcurveto
          -35 321 hlineto
          hintmask 0110010100010000
          48 hlineto
          103 50 -91 -73 hvcurveto
          -227 -157 rmoveto
          -69 hlineto
          -40 -2 5 34 hvcurveto
          282 111 vlineto
          endchar
        </CharString>
        <CharString name="bar">
          278 144 callgsubr
          vstem
          159 -217 rmoveto
          26 callgsubr
          endchar
        </CharString>
        <CharString name="bigcircle">
          67 callgsubr
          615 34 vstem
          -64 callgsubr
          endchar
        </CharString>
        <CharString name="blanksymbol">
          511 -8 16 414 16 108 37 74 37 -27 16 hstemhm
          35 64 -46 64 -18 51 -51 64 62 51 -41 51 127 64 hintmask 0110100100100000
          102 callgsubr
          180 vlineto
          94 99 rlineto
          2 3 2 3 3 vvcurveto
          7 -6 6 -7 vhcurveto
          hintmask 0011000101000000
          -4 -4 -1 -3 -2 hvcurveto
          -75 -80 rlineto
          111 vlineto
          hintmask 0000100000000000
          -119 -11 rlineto
          hintmask 0001010000000000
          -65 callsubr
          -74 vlineto
          -64 -68 rlineto
          -3 -2 -1 -4 -3 vvcurveto
          -7 6 -6 7 vhcurveto
          hintmask 0000001000000000
          4 3 2 2 2 hvcurveto
          hintmask 0000010000000000
          46 48 rlineto
          -491 vlineto
          hintmask 1000001001010000
          18 hlineto
          64 callgsubr
          hintmask 0100000010010000
          40 callgsubr
        </CharString>
        <CharString name="braceleft">
          500 -229 -21 487 24 489 -20 hstem
          216 67 vstem
          427 -239 rmoveto
          10 -6 0 -10 1 vhcurveto
          -79 5 -37 45 -9 36 rrcurveto
          -3 11 0 2 35 vvcurveto
          150 vlineto
          30 0 51 -2 10 vhcurveto
          -13 66 -64 26 -39 11 rrcurveto
          118 34 0 71 28 vvcurveto
          180 vlineto
          72 0 22 24 25 vhcurveto
          18 18 23 24 70 4 rrcurveto
          5 1 4 4 6 vvcurveto
          11 -8 0 -12 -100 -89 -51 -72 -2 vhcurveto
          -183 vlineto
          -94 0 -16 -26 -28 vhcurveto
          -14 -14 -27 -27 -63 -4 rrcurveto
          -7 -7 -1 -10 -10 6 0 10 -1 hvcurveto
          43 -3 85 -21 -100 vvcurveto
          -198 vlineto
          -58 0 -34 52 -37 vhcurveto
          -30 43 65 -8 31 hhcurveto
          12 8 0 11 hvcurveto
          endchar
        </CharString>
        <CharString name="braceright">
          500 -229 -21 510 -21 511 -20 hstem
          216 67 vstem
          427 250 rmoveto
          10 -6 0 -10 1 vhcurveto
          -43 3 -85 21 100 vvcurveto
          198 vlineto
          58 0 34 -52 37 vhcurveto
          29 -43 -64 9 -32 hhcurveto
          -10 -10 0 -11 -10 6 0 10 -1 hvcurveto
          79 -5 37 -45 9 -36 rrcurveto
          3 -11 0 -2 -35 vvcurveto
          -150 vlineto
          -30 0 -51 2 -10 vhcurveto
          13 -66 64 -26 39 -11 rrcurveto
          -118 -34 0 -71 -28 vvcurveto
          -180 vlineto
          -72 0 -22 -24 -25 vhcurveto
          -18 -18 -23 -24 -70 -4 rrcurveto
          -5 -1 -4 -4 -6 vvcurveto
          -11 10 0 10 100 89 51 72 2 vhcurveto
          183 vlineto
          94 0 16 26 28 vhcurveto
          14 14 27 27 63 4 rrcurveto
          7 7 1 10 hvcurveto
          endchar
        </CharString>
        <CharString name="bracketleft">
          250 -249 35 928 35 hstem
          106 35 vstem
          235 -249 rmoveto
          35 -94 928 94 35 -129 -998 vlineto
          endchar
        </CharString>
        <CharString name="bracketright">
          250 -249 35 928 35 hstem
          108 35 vstem
          143 -249 rmoveto
          998 -129 -35 94 -928 -94 -35 vlineto
          endchar
        </CharString>
        <CharString name="breve">
          121 callsubr
          146 -20 hstem
          368 691 -98 callsubr
          endchar
        </CharString>
        <CharString name="breve.cap">
          459 484 140 callgsubr
          hstem
          368 658 -98 callsubr
          endchar
        </CharString>
        <CharString name="breve.ts1">
          574 521 140 callgsubr
          hstem
          477 695 rmoveto
          -16 hlineto
          -89 -91 -57 -83 -81 -94 50 96 vhcurveto
          -16 hlineto
          -104 96 -70 95 95 95 68 106 vhcurveto
          endchar
        </CharString>
        <CharString name="brokenbar">
          278 144 callgsubr
          vstem
          159 343 rmoveto
          374 vlineto
          14 0 19 -20 -20 0 -19 -14 vhcurveto
          -374 vlineto
          -8 10 -5 10 10 10 5 8 vhcurveto
          -560 vmoveto
          374 vlineto
          8 -10 5 -10 -10 -10 -5 -8 vhcurveto
          -374 35 callsubr
          endchar
        </CharString>
        <CharString name="bullet">
          720 154 224 hstem
          248 224 68 callsubr
          endchar
        </CharString>
        <CharString name="c">
          60 callsubr
          hstemhm
          33 64 133 72 -64 64 0 72 hintmask 10010100
          -29 callsubr
          -64 -77 59 148 hvcurveto
          hintmask 01101000
          152 74 55 59 39 58 -19 -55 22 vhcurveto
          -19 -28 0 -35 -28 23 -8 13 hvcurveto
          hintmask 10110010
          7 29 3 35 71 -68 54 -77 -106 -90 -98 -128 -133 94 -91 102 124 31 115 11 hvcurveto
          endchar
        </CharString>
        <CharString name="cacute">
          60 callsubr
          91 -21 184 -48 callgsubr
          -44 551 -94 callgsubr
        </CharString>
        <CharString name="caron">
          86 callsubr
          678 -56 callgsubr
        </CharString>
        <CharString name="caron.cap">
          123 callgsubr
          133 -20 hstem
          380 591 -58 callsubr
        </CharString>
        <CharString name="caron.ts1">
          574 576 -21 145 -20 hstem
          461 687 rmoveto
          -2 4 -3 7 -5 2 rrcurveto
          -1 hlineto
          -8 -17 -14 -8 -11 hvcurveto
          -84 -55 -14 -10 -17 -8 -12 -12 rlinecurve
          -153 102 rlineto
          2 -3 -4 3 -4 hhcurveto
          -1 hlineto
          -5 -2 -3 -7 -2 -4 159 -123 rcurveline
          15 -9 14 8 rlineto
          endchar
        </CharString>
        <CharString name="ccaron">
          60 callsubr
          95 -21 176 -48 callgsubr
          -8 560 -56 callgsubr
        </CharString>
        <CharString name="ccedilla">
          406 -200 18 116 18 40 18 269 71 74 18 hstemhm
          33 64 133 72 -64 64 -21 64 -43 72 hintmask 0010010100000000
          -29 callsubr
          -64 -77 59 148 hvcurveto
          hintmask 0001101000000000
          152 74 55 59 39 58 -19 -55 22 vhcurveto
          -19 -28 0 -35 -28 23 -8 13 hvcurveto
          hintmask 0100110001000000
          7 29 3 35 71 -68 54 -77 -106 -90 -98 -128 -123 80 -87 93 -12 hvcurveto
          -60 vlineto
          hintmask 1110000010000000
          38 37 96 callsubr
          -51 28 -52 hvcurveto
          40 vlineto
          113 8 29 107 11 vvcurveto
          endchar
        </CharString>
        <CharString name="ccircumflex">
          60 callsubr
          95 -21 176 -48 callgsubr
          -8 412 -69 callgsubr
          endchar
        </CharString>
        <CharString name="cdotaccent">
          60 callsubr
          121 82 hstemhm
          33 64 86 81 -34 72 -64 64 0 72 hintmask 1000100100000000
          -29 callsubr
          -64 -77 59 148 hvcurveto
          hintmask 0110001000000000
          152 74 55 59 39 58 -19 -55 22 vhcurveto
          -19 -28 0 -35 -28 23 -8 13 hvcurveto
          hintmask 1010100010000000
          7 29 3 35 71 -68 54 -77 -106 -90 -98 -128 -133 94 -91 102 124 31 115 11 hvcurveto
          hintmask 0001010000000000
          -120 486 -100 callsubr
        </CharString>
        <CharString name="cedilla">
          19 callsubr
        </CharString>
        <CharString name="cedilla.dup">
          19 callsubr
        </CharString>
        <CharString name="cent">
          406 -26 18 0 18 269 71 74 18 hstemhm
          33 64 114 26 1 64 0 72 -36 26 hintmask 0111011010000000
          -29 callsubr
          -1 414 hlineto
          38 -2 53 -20 21 -52 rrcurveto
          -19 -28 0 -35 -28 23 -8 13 hvcurveto
          hintmask 1001110100000000
          7 29 3 35 69 -64 52 -73 4 hvcurveto
          15 vlineto
          7 -6 6 -7 -8 -5 -6 -7 vhcurveto
          -16 vlineto
          -98 -11 -80 -94 -120 vvcurveto
          -125 83 -88 95 -10 vhcurveto
          -19 vlineto
          -7 5 -6 8 7 6 6 7 vhcurveto
          18 vlineto
          117 5 30 110 11 vvcurveto
          -173 -104 rmoveto
          -57 14 -57 62 127 vvcurveto
          136 59 58 55 11 vhcurveto
          endchar
        </CharString>
        <CharString name="cent.oldstyle">
          406 -8 18 269 71 69 18 -14 18 -17 18 -1 18 hstemhm
          33 64 84 64 -15 72 -64 64 -57 26 -22 26 27 72 -36 26 hintmask 1110000001000100
          -29 callsubr
          -17 -18 4 9 -17 hvcurveto
          81 396 33 -9 33 -21 16 -39 rlinecurve
          -19 -28 0 -35 -28 23 -8 13 hvcurveto
          hintmask 0010000000101000
          7 29 3 35 58 -45 46 -58 16 hvcurveto
          hintmask 0000010100010000
          4 17 rlineto
          8 1 -6 8 -8 hhcurveto
          -6 -6 -5 -6 -1 hvcurveto
          -4 -18 rlineto
          hintmask 1000101100000000
          1 -5 -5 0 -6 hhcurveto
          -106 -90 -98 -128 -100 53 -77 70 -31 hvcurveto
          -6 -31 rlineto
          -8 -2 6 -8 9 hhcurveto
          6 5 4 6 1 hvcurveto
          6 28 rlineto
          -5 16 16 -2 16 hhcurveto
          124 31 115 11 hvcurveto
          -142 305 rmoveto
          -79 -384 rlineto
          -37 31 -29 57 90 vvcurveto
          hintmask 0000100010000000
          152 74 55 59 vhcurveto
          hintmask 0001000000000000
          4 4 0 -1 4 hvcurveto
          endchar
        </CharString>
        <CharString name="centigrade">
          888 -15 26 464 35 139 35 -10 26 hstemhm
          261 76 hintmask 10011000
          835 237 rmoveto
          7 vlineto
          3 -1 -4 2 -4 hhcurveto
          -13 5 -16 -8 -2 hvcurveto
          -108 -8 -85 -106 -122 hhcurveto
          -73 -73 37 56 -46 hvcurveto
          -53 66 -19 85 84 vvcurveto
          66 9 68 31 59 vhcurveto
          84 43 85 58 96 hhcurveto
          122 70 -120 -101 18 hvcurveto
          -11 3 -6 -19 16 hhcurveto
          7 4 3 8 hvcurveto
          257 vlineto
          4 -1 5 -6 -9 -32 -66 -32 -15 vhcurveto
          60 -47 -63 38 -77 hhcurveto
          -189 -135 -177 -182 -180 134 -176 190 hvcurveto
          15 hlineto
          130 6 105 115 131 vvcurveto
          -626 342 rmoveto
          hintmask 01100000
          53 -40 52 -66 vhcurveto
          -9 hlineto
          -53 -7 -41 -43 -54 vvcurveto
          -53 40 -52 66 vhcurveto
          9 hlineto
          53 7 41 43 54 vvcurveto
          -35 hmoveto
          -37 -33 -32 -36 -36 -28 27 35 -6 vhcurveto
          8 vlineto
          37 33 32 36 36 28 -27 -35 6 vhcurveto
          endchar
        </CharString>
        <CharString name="circumflex">
          86 callsubr
          530 -69 callgsubr
          endchar
        </CharString>
        <CharString name="circumflex.cap">
          123 callgsubr
          133 -20 hstem
          380 490 -52 callgsubr
        </CharString>
        <CharString name="circumflex.dup">
          86 callsubr
          530 -69 callgsubr
          endchar
        </CharString>
        <CharString name="colon">
          250 0 82 266 82 hstem
          84 82 vstem
          166 389 21 callgsubr
          -348 vmoveto
          -23 callsubr
          endchar
        </CharString>
        <CharString name="colonmonetary">
          61 callgsubr
          hstem
          46 76 232 26 221 20 vstem
          621 234 rmoveto
          10 0 4 -9 -8 0 -3 -9 -1 vhcurveto
          -140 -8 -100 -86 -108 hhcurveto
          -7 663 5 hlineto
          -3 callsubr
          11 0 2 18 hvcurveto
          237 -2 callgsubr
          -12 -7 vhcurveto
          -44 -84 -47 60 -58 35 -73 3 rlinecurve
          10 vlineto
          7 -6 6 -7 -7 -6 -6 -7 vhcurveto
          -11 vlineto
          -164 -10 -144 -147 -199 vvcurveto
          -200 144 -147 164 -10 vhcurveto
          -11 vlineto
          -7 6 -6 7 7 6 6 7 vhcurveto
          10 vlineto
          149 4 92 133 113 vvcurveto
          -267 -222 rmoveto
          -101 15 -131 81 234 vvcurveto
          235 135 80 97 14 vhcurveto
          endchar
        </CharString>
        <CharString name="comma">
          250 -173 -21 194 82 hstem
          160 16 vstem
          176 -13 rmoveto
          33 -4 62 -47 -22 -19 -15 -26 -26 19 -15 22 12 13 5 11 8 vhcurveto
          2 -9 0 -3 -16 vvcurveto
          -60 -20 -55 -42 -50 vhcurveto
          -5 -5 0 -4 0 vvcurveto
          -4 4 -4 4 6 69 70 111 vhcurveto
          endchar
        </CharString>
        <CharString name="copyleft">
          67 callgsubr
          154 34 427 34 vstem
          -64 callgsubr
          -109 hmoveto
          128 -96 94 -106 -48 -37 -23 -38 -31 vhcurveto
          -27 52 rlineto
          8 -5 0 0 -3 hhcurveto
          -4 0 0 -12 hvcurveto
          -147 vlineto
          -11 0 -1 7 5 0 1 7 2 vhcurveto
          87 11 51 61 71 hhcurveto
          60 103 -44 -162 -162 -101 -44 -64 -67 -62 53 87 -5 hvcurveto
          6 -1 0 1 -5 hhcurveto
          -5 0 -2 -6 -72 59 -84 95 107 96 94 129 hvcurveto
          endchar
        </CharString>
        <CharString name="copyright">
          67 callgsubr
          427 34 154 34 vstem
          -64 callgsubr
          -149 -67 rmoveto
          6 0 2 -5 -5 0 -1 -6 -1 vhcurveto
          -87 -5 -62 -53 -67 hhcurveto
          -64 -101 44 162 162 103 44 61 70 51 -61 -87 12 hvcurveto
          -7 1 0 -1 5 hhcurveto
          7 0 1 11 hvcurveto
          147 vlineto
          12 0 0 -4 -3 0 0 -8 -5 vhcurveto
          -27 -52 rlineto
          38 -30 -38 23 -47 hhcurveto
          -107 -96 -94 -128 -129 96 -94 107 95 59 84 72 hvcurveto
          endchar
        </CharString>
        <CharString name="copyright.alt">
          646 -108 34 578 34 hstem
          0 34 417 34 127 34 vstem
          646 215 rmoveto
          198 -125 125 -198 -198 -125 -125 -198 -198 125 -125 198 198 125 125 198 vhcurveto
          -34 hmoveto
          -177 -112 -112 -177 -177 -112 112 177 177 112 112 177 177 112 -112 -177 vhcurveto
          -121 -68 rmoveto
          7 0 2 -6 -5 0 -2 -5 vhcurveto
          -89 -5 -63 -54 -68 hhcurveto
          -65 -102 46 164 164 104 44 61 72 51 -62 -87 12 hvcurveto
          -8 1 0 -1 6 hhcurveto
          7 0 1 12 hvcurveto
          149 vlineto
          11 -1 1 -3 -3 -1 -1 -7 -4 vhcurveto
          -28 -53 rlineto
          39 -31 -37 22 -49 hhcurveto
          -108 -97 -95 -129 -132 97 -94 109 96 60 85 72 hvcurveto
          endchar
        </CharString>
        <CharString name="currency">
          720 28 147 callgsubr
          hstemhm
          138 147 callgsubr
          hintmask 0001010001000000
          582 471 rmoveto
          -13 13 -12 -12 -10 -10 -74 -74 rcurveline
          25 -31 -39 15 -43 hhcurveto
          -43 -40 -15 -26 -30 hvcurveto
          -75 75 -10 10 -12 12 -12 -12 rlinecurve
          hintmask 1100111001000000
          -13 -13 12 -12 10 -10 75 -75 rcurveline
          -25 -30 -15 -39 -43 vvcurveto
          -43 15 -39 25 -31 vhcurveto
          -75 -75 -10 -10 -12 -12 12 -12 rlinecurve
          13 -13 12 12 10 10 75 75 rcurveline
          -25 31 39 -15 43 hhcurveto
          43 39 15 25 30 hvcurveto
          75 -75 10 -10 12 -12 12 12 rlinecurve
          hintmask 1110101010000000
          13 13 -12 12 -10 10 -75 75 rcurveline
          26 30 15 40 43 vvcurveto
          43 -15 39 -25 31 vhcurveto
          74 74 10 10 12 12 -12 12 rlinecurve
          -78 -221 rmoveto
          -80 -65 -64 -79 -80 -64 64 80 80 64 64 80 vhcurveto
          hintmask 0000000100000000
          79 65 -64 -80 hvcurveto
          endchar
        </CharString>
        <CharString name="cwm">
          0 endchar
        </CharString>
        <CharString name="cwmascender">
          0 endchar
        </CharString>
        <CharString name="cwmcapital">
          0 endchar
        </CharString>
        <CharString name="d">
          511 -8 101 callgsubr
          263 51 hintmask 01100101
          45 callgsubr
          hintmask 10011011
          -17 callsubr
          hintmask 01100000
          58 callsubr
          hintmask 10010010
          -16 callgsubr
          endchar
        </CharString>
        <CharString name="dagger">
          444 -195 -21 613 67 241 -20 hstem
          164 67 -43 67 -43 67 cntrmask 00011100
          387 430 91 callsubr
          20 1 28 11 65 rrcurveto
          5 37 6 37 37 vvcurveto
          8 0 33 -33 -34 0 -32 -9 -35 9 -58 4 -24 vhcurveto
          7 -46 3 -32 1 -29 43 callgsubr
          -2 -25 -3 -20 -5 -25 rrcurveto
          -14 -72 0 -8 -53 vvcurveto
          -151 11 -168 9 -95 vhcurveto
          -14 1 1 -6 11 hhcurveto
          12 0 5 13 2 hvcurveto
          6 50 3 53 2 51 rrcurveto
          4 63 5 103 96 vvcurveto
          54 0 7 -14 71 vhcurveto
          -5 23 -3 21 -2 27 92 callgsubr
          endchar
        </CharString>
        <CharString name="daggerdbl">
          444 -184 -21 194 66 389 67 194 -20 hstem
          164 67 -43 67 -43 67 cntrmask 00001110
          387 477 91 callsubr
          30 7 34 3 14 rrcurveto
          6 33 7 40 28 vvcurveto
          7 0 32 -34 -10 -23 -3 -36 -20 4 -29 7 -35 vhcurveto
          7 -41 5 -28 1 -26 43 callgsubr
          -1 -30 -7 -34 -3 -14 rrcurveto
          -6 -33 -7 -40 -28 vvcurveto
          -35 22 -4 11 30 4 25 14 20 -4 29 -7 35 vhcurveto
          -7 41 -5 28 -1 26 92 callgsubr
          -455 vmoveto
          17 -12 16 -21 -20 -17 -3 -8 -31 vhcurveto
          -26 -8 -7 -2 -22 -2 2 28 4 24 7 42 rrcurveto
          11 56 0 23 5 vvcurveto
          35 -22 4 -11 -30 -4 -25 -14 -29 8 -43 6 -34 vhcurveto
          3 -11 5 -31 2 -30 -23 2 -3 1 -40 11 rrcurveto
          9 -32 -17 0 -7 hhcurveto
          -25 -9 -20 -13 -15 10 -18 24 24 24 6 4 11 hvcurveto
          39 10 7 1 17 2 -2 -28 -4 -24 -7 -42 rrcurveto
          -11 -56 0 -23 -5 vvcurveto
          -35 22 -4 11 30 4 25 14 29 -8 43 -6 34 vhcurveto
          -3 11 -5 31 -2 30 23 -2 3 -1 40 -11 rrcurveto
          -9 33 18 0 5 hhcurveto
          24 10 18 15 hvcurveto
          endchar
        </CharString>
        <CharString name="dblbracketleft">
          378 -248 35 928 35 hstem
          111 35 82 35 vstem
          357 -248 rmoveto
          35 -94 928 94 35 -246 -998 vlineto
          117 35 rmoveto
          -82 928 82 hlineto
          endchar
        </CharString>
        <CharString name="dblbracketright">
          378 -248 35 928 35 hstem
          114 35 82 35 vstem
          266 -248 rmoveto
          998 -245 -35 93 -928 -93 -35 vlineto
          210 35 rmoveto
          -82 928 82 hlineto
          endchar
        </CharString>
        <CharString name="dblgrave.ts1">
          470 536 80 callsubr
          190 523 55 callsubr
          172 8 55 callsubr
          endchar
        </CharString>
        <CharString name="dblverticalbar">
          380 144 callgsubr
          62 40 vstem
          159 -217 rmoveto
          26 callgsubr
          102 hmoveto
          26 callgsubr
          endchar
        </CharString>
        <CharString name="dcaron">
          85 callsubr
          70 -21 146 61 -37 26 -26 37 hstemhm
          33 64 263 51 hintmask 0110000101000000
          45 callgsubr
          hintmask 1001001011000000
          -17 callsubr
          hintmask 0110000000000000
          58 callsubr
          hintmask 1001000110000000
          -16 callgsubr
          157 305 143 callgsubr
          hintmask 0000110000000000
          -19 14 -11 17 9 9 3 9 6 vhcurveto
          2 -7 0 -2 -12 vvcurveto
          -45 -15 -42 -32 -37 vhcurveto
          -3 -4 0 -3 0 vvcurveto
          42 callgsubr
          4 52 53 83 vhcurveto
          endchar
        </CharString>
        <CharString name="dcroat">
          85 callsubr
          98 26 95 26 -26 37 hstemhm
          33 64 263 51 hintmask 0110101010000000
          479 70 callgsubr
          456 68 26 -68 132 vlineto
          hintmask 1001110110000000
          -119 -78 callgsubr
          -41 -156 -26 156 -167 vlineto
          5 -4 -41 64 -81 hhcurveto
          -102 -99 -91 -132 -131 93 -92 98 85 44 66 7 5 hvcurveto
          -73 vlineto
          hintmask 0110000000000000
          58 callsubr
          hintmask 1001000100000000
          -16 callgsubr
          endchar
        </CharString>
        <CharString name="ddotbelow">
          511 124 callgsubr
          101 callgsubr
          118 81 64 51 hintmask 0011001001000000
          45 callgsubr
          hintmask 0100110101000000
          -17 callsubr
          hintmask 0011000000000000
          58 callsubr
          hintmask 0100100100000000
          -16 callgsubr
          hintmask 1000000010000000
          -62 -477 -100 callsubr
        </CharString>
        <CharString name="degree">
          344 422 34 193 34 hstem
          41 34 194 34 vstem
          303 553 rmoveto
          72 -59 58 -72 -72 -59 -58 -72 -73 59 -58 72 72 59 58 73 vhcurveto
          -34 hmoveto
          -54 -44 -43 -53 -53 -44 43 54 53 44 43 53 53 44 -43 -53 vhcurveto
          endchar
        </CharString>
        <CharString name="diameter">
          720 -48 34 528 34 hstem
          62 34 528 34 vstem
          673 546 rmoveto
          9 -8 8 -9 -5 -4 -2 -3 -3 vhcurveto
          -86 -86 rlineto
          47 -52 -70 29 -76 hhcurveto
          -165 -133 -133 -165 -76 29 -70 47 -52 hvcurveto
          -87 -87 rlineto
          -3 -3 -2 -4 -5 vvcurveto
          -9 8 -8 9 5 4 2 3 3 vhcurveto
          87 87 rlineto
          -47 52 70 -29 76 hhcurveto
          165 133 133 165 76 -29 70 -47 52 hvcurveto
          86 86 rlineto
          3 3 2 4 5 vvcurveto
          -49 -296 rmoveto
          -146 -118 -118 -146 -67 -61 25 41 -46 vhcurveto
          372 372 rlineto
          41 -46 25 -61 -67 vvcurveto
          -90 198 rmoveto
          -372 -372 rlineto
          -41 46 -25 61 67 vvcurveto
          146 118 118 146 67 61 -25 -41 46 vhcurveto
          endchar
        </CharString>
        <CharString name="died">
          470 -4 -21 370 30 -25 30 54 30 139 -20 hstemhm
          208 53 -43 35 hintmask 00100000
          423 359 rmoveto
          9 vlineto
          10 -4 2 -8 vhcurveto
          hintmask 01011100
          -53 -54 -5 -53 hhcurveto
          59 vlineto
          5 101 3 42 rlineto
          1 4 1 6 5 vvcurveto
          7 -3 4 -8 vhcurveto
          -31 hlineto
          -6 -5 -4 -6 -43 7 -43 2 -43 hvcurveto
          hintmask 01000010
          1 -89 rlineto
          -43 -44 0 3 -42 hvcurveto
          hintmask 00100000
          1 -10 -11 1 -10 hhcurveto
          -10 -2 -4 -9 hvcurveto
          -8 vlineto
          hintmask 01000000
          -9 3 -5 9 vhcurveto
          hintmask 00100010
          53 54 5 53 hhcurveto
          -5 -265 rlineto
          hintmask 10000100
          -1 -33 -4 -34 -32 vvcurveto
          -7 3 -4 8 vhcurveto
          30 hlineto
          8 4 3 8 hvcurveto
          26 -4 26 26 vvcurveto
          hintmask 00100010
          36 -3 36 -1 36 vhcurveto
          -2 178 rlineto
          hintmask 01000000
          54 52 -5 54 hhcurveto
          9 3 4 10 hvcurveto
          endchar
        </CharString>
        <CharString name="dieresis">
          459 568 73 hstem
          127 72 60 72 vstem
          -42 callsubr
          endchar
        </CharString>
        <CharString name="dieresis.cap">
          459 474 73 hstem
          115 72 84 72 vstem
          -4 callsubr
          endchar
        </CharString>
        <CharString name="dieresis.dup">
          459 568 73 hstem
          127 72 60 72 vstem
          -42 callsubr
          endchar
        </CharString>
        <CharString name="dieresis.ts1">
          470 579 78 1 -20 hstemhm
          hintmask 10000000
          183 618 rmoveto
          21 -18 18 -22 vhcurveto
          -6 hlineto
          -20 -13 -22 -17 -22 19 -17 26 hvcurveto
          18 4 16 17 18 vvcurveto
          181 hmoveto
          hintmask 01000000
          18 -13 22 -25 vhcurveto
          hintmask 10000000
          -3 -4 -1 0 hvcurveto
          -19 -4 -14 -17 -17 vvcurveto
          -21 18 -19 22 23 15 20 19 vhcurveto
          endchar
        </CharString>
        <CharString name="discount">
          470 22 -21 749 -20 hstem
          416 731 rmoveto
          10 -6 9 -10 vhcurveto
          0 -3 0 -2 -1 vhcurveto
          -12 -3 -7 -21 -5 -13 -255 -551 rcurveline
          -58 -125 rlineto
          -2 -5 -4 -6 -6 vvcurveto
          -10 9 -8 9 vhcurveto
          2 hlineto
          7 1 5 6 3 6 12 27 rcurveline
          262 566 17 39 20 38 17 39 rlinecurve
          1 2 0 3 3 vvcurveto
          -237 -39 65 callgsubr
          214 -632 65 callgsubr
          endchar
        </CharString>
        <CharString name="divide">
          720 86 82 0 82 -17 35 66 82 hstemhm
          319 82 hintmask 00100000
          673 250 rmoveto
          18 -17 0 -17 vhcurveto
          -559 hlineto
          hintmask 01000000
          -17 -17 0 -18 hvcurveto
          hintmask 00100000
          -17 15 0 15 vhcurveto
          567 hlineto
          hintmask 01011000
          15 15 0 17 hvcurveto
          -272 125 21 callgsubr
          -248 vmoveto
          25 -20 16 -21 -20 -21 -16 -25 vhcurveto
          hintmask 10001000
          -25 20 -16 21 20 21 16 25 vhcurveto
          endchar
        </CharString>
        <CharString name="divorced">
          470 -83 -21 139 36 360 36 139 -20 hstemhm
          -174 35 260 24 63 51 -41 35 -35 36 70 24 260 36 hintmask 0110111001100000
          644 251 rmoveto
          92 -57 124 -105 vhcurveto
          -4 -4 -1 -4 hhcurveto
          -97 -11 -49 -113 -92 vvcurveto
          -91 54 -124 103 105 58 119 97 vhcurveto
          -499 1 rmoveto
          92 -54 123 -104 vhcurveto
          -4 -3 -1 -4 hhcurveto
          -100 -11 -50 -110 -96 vvcurveto
          -92 55 -121 106 vhcurveto
          11 hlineto
          97 9 50 115 92 vvcurveto
          116 -345 rmoveto
          10 -1 11 -1 10 vhcurveto
          hintmask 0000000010000000
          -3 43 2 43 -4 43 rrcurveto
          hintmask 0001000100000000
          -1 11 0 11 11 vvcurveto
          33 vlineto
          -2 132 rlineto
          66 vlineto
          89 10 88 89 vvcurveto
          8 -6 1 -6 vhcurveto
          -31 hlineto
          0 -4 0 -2 -1 vhcurveto
          hintmask 0000001000000000
          -4 -2 0 -5 -4 vvcurveto
          hintmask 0000000100000000
          7 -74 3 -76 -75 vvcurveto
          -189 vlineto
          hintmask 1110111001100000
          -89 -1 -91 -9 -88 vhcurveto
          -5 vlineto
          -9 6 -2 7 vhcurveto
          28 hlineto
          8 4 3 8 hvcurveto
          347 343 rmoveto
          -74 -30 -105 -97 -89 -36 90 76 -8 vhcurveto
          10 vlineto
          68 27 116 106 90 37 -102 -79 vhcurveto
          -487 hmoveto
          -5 0 -4 -1 -5 vhcurveto
          -74 -6 -37 -91 -89 hhcurveto
          -90 -37 98 81 84 38 97 89 95 38 -105 -76 hvcurveto
          endchar
        </CharString>
        <CharString name="dlinebelow">
          511 -170 23 139 101 callgsubr
          263 51 hintmask 0011001010000000
          45 callgsubr
          hintmask 0100110110000000
          -17 callsubr
          hintmask 0011000000000000
          58 callsubr
          hintmask 0100100100000000
          -16 callgsubr
          hintmask 1000000000000000
          67 -488 -26 callsubr
        </CharString>
        <CharString name="dollar">
          459 -34 -21 48 25 129 72 108 72 90 72 115 27 46 -20 hstem
          46 40 130 26 130 40 cntrmask 0000000111000000
          412 191 rmoveto
          26 -4 57 -45 53 vhcurveto
          -37 43 -39 10 -45 11 rrcurveto
          285 vlineto
          55 -3 75 -22 19 -93 rrcurveto
          2 -4 -6 1 -5 hhcurveto
          -13 -23 -8 -28 -25 19 -11 17 21 15 12 29 82 -50 83 -120 7 hvcurveto
          47 -26 -47 vlineto
          -99 -9 -71 -80 -95 vvcurveto
          -66 32 -42 16 -18 vhcurveto
          37 -39 27 -7 58 -16 rrcurveto
          -312 vlineto
          -55 3 -77 28 -18 101 rrcurveto
          -2 4 7 -1 5 hhcurveto
          17 19 11 25 28 -23 8 -13 -17 -19 -8 -33 -100 61 -80 109 -6 hvcurveto
          -47 26 48 vlineto
          104 9 66 90 99 vvcurveto
          -196 208 rmoveto
          -27 6 -36 9 -28 29 rrcurveto
          -24 26 -15 32 37 vvcurveto
          60 45 69 85 8 vhcurveto
          156 -505 rmoveto
          -70 -49 -73 -81 -8 vhcurveto
          304 vlineto
          32 -7 29 -9 29 -31 rrcurveto
          14 -16 26 -37 -53 vvcurveto
          endchar
        </CharString>
        <CharString name="dollar.oldstyle">
          574 670 26 -23 25 -23 26 hstemhm
          52 40 -40 73 77 73 -52 26 0 26 2 73 -26 26 22 26 50 73 -40 40 cntrmask 1110000000000000
          hintmask 1110000101110000
          521 192 rmoveto
          3 vlineto
          -1 88 -71 63 -77 27 -22 7 rcurveline
          293 vlineto
          19 -5 19 -3 18 -6 44 -17 41 -34 8 -48 rrcurveto
          1 -5 -4 1 -5 hhcurveto
          -19 -18 -12 -24 -21 16 -16 21 hvcurveto
          28 7 8 10 25 vvcurveto
          11 -2 12 -2 10 vhcurveto
          -3 15 -19 58 -43 32 -54 18 rlinecurve
          -15 5 -17 5 -16 1 rrcurveto
          52 -26 -48 vlineto
          -49 1 -26 -2 rlineto
          49 vlineto
          hintmask 1110101000000000
          -26 -54 hlineto
          -99 -11 -72 -94 -71 vvcurveto
          -91 91 -73 80 -12 vhcurveto
          -320 vlineto
          -69 16 -58 25 -23 85 rrcurveto
          -1 5 5 -1 6 hhcurveto
          20 16 17 20 21 -17 14 -20 -23 -13 -15 -28 hvcurveto
          hintmask 1110010000000000
          -91 64 -61 86 -23 vhcurveto
          hintmask 1110001010000000
          9 -2 12 -2 0 vvcurveto
          -52 26 49 vlineto
          -2 9 10 0 9 hhcurveto
          hintmask 1111000101010000
          16 15 1 1 16 hvcurveto
          -49 26 53 vlineto
          34 11 rlineto
          81 32 56 66 84 vvcurveto
          -197 194 rmoveto
          -75 22 rlineto
          267 vlineto
          29 2 46 -1 rlineto
          -101 -263 rmoveto
          -60 17 -71 39 74 vvcurveto
          hintmask 1110001001001000
          73 78 38 53 16 vhcurveto
          258 -501 rmoveto
          -73 -64 -49 -67 -20 vhcurveto
          284 vlineto
          55 -20 76 -35 -87 vvcurveto
          -157 -148 rmoveto
          0 -25 -3 -12 -21 -17 3 0 vhcurveto
          317 vlineto
          75 -20 rlineto
          endchar
        </CharString>
        <CharString name="dong">
          511 -26 26 hstem
          455 35 rmoveto
          24 vlineto
          -56 -9 6 46 hvcurveto
          433 65 25 -65 125 vlineto
          -113 -10 rlineto
          -25 vlineto
          56 9 -6 -45 hvcurveto
          -39 -148 -25 148 -159 vlineto
          5 -4 -39 61 -77 hhcurveto
          -97 -94 -87 -125 -124 89 -88 93 81 41 63 6 5 hvcurveto
          -69 vlineto
          115 -40 rmoveto
          7 -6 6 -7 vhcurveto
          -398 hlineto
          46 callgsubr
          398 hlineto
          7 6 6 7 hvcurveto
          -115 162 rmoveto
          -29 -17 -25 -22 -19 vhcurveto
          -29 -32 -32 -5 -19 hhcurveto
          -27 -99 15 181 186 110 12 25 44 35 -25 -34 22 hvcurveto
          12 -20 0 -3 -17 vvcurveto
          endchar
        </CharString>
        <CharString name="dotaccent">
          250 563 107 callsubr
          604 -100 callsubr
        </CharString>
        <CharString name="dotaccent.alt">
          250 516 107 callsubr
          557 -100 callsubr
        </CharString>
        <CharString name="dotaccent.cap">
          250 474 107 callsubr
          515 -100 callsubr
        </CharString>
        <CharString name="dotlessi">
          1 callgsubr
          hstemhm
          102 51 hintmask 10110000
          -40 callgsubr
          hintmask 11010000
          -84 callsubr
          endchar
        </CharString>
        <CharString name="dotlessj">
          35 callgsubr
          hstem
          -33 72 92 51 vstem
          182 -68 callgsubr
          endchar
        </CharString>
        <CharString name="e">
          -32 callgsubr
          hstemhm
          27 64 240 53 hintmask 11011100
          -96 callsubr
          hintmask 00100000
          -28 callsubr
          hintmask 01010100
          -65 callgsubr
          endchar
        </CharString>
        <CharString name="eacute">
          -32 callgsubr
          91 -21 184 -89 callgsubr
          -12 419 -94 callgsubr
        </CharString>
        <CharString name="ebreve">
          -32 callgsubr
          75 28 146 -89 callgsubr
          11 441 -98 callsubr
          endchar
        </CharString>
        <CharString name="ecaron">
          -32 callgsubr
          95 -21 176 -89 callgsubr
          24 428 -56 callgsubr
        </CharString>
        <CharString name="ecircumflex">
          -32 callgsubr
          95 -21 176 -89 callgsubr
          24 280 -69 callgsubr
          endchar
        </CharString>
        <CharString name="ecircumflexacute">
          -32 callgsubr
          95 -21 311 -89 callgsubr
          23 282 -93 callsubr
          -42 279 -105 callgsubr
        </CharString>
        <CharString name="ecircumflexdotbelow">
          406 124 callgsubr
          18 225 15 -15 16 175 16 95 -21 176 -20 135 callgsubr
          hintmask 0110100101000000
          -96 callsubr
          hintmask 0001000000000000
          -28 callsubr
          hintmask 0010111001000000
          -65 callgsubr
          24 280 -69 callgsubr
          hintmask 1000000010000000
          -99 -675 -100 callsubr
        </CharString>
        <CharString name="ecircumflexgrave">
          -32 callgsubr
          95 -21 133 -89 callgsubr
          23 282 -93 callsubr
          -41 166 -81 callgsubr
        </CharString>
        <CharString name="ecircumflexhookabove">
          -32 callgsubr
          95 -21 347 -92 callsubr
          hintmask 00001101
          23 282 -93 callsubr
          42 281 -107 callsubr
        </CharString>
        <CharString name="ecircumflextilde">
          406 689 95 callgsubr
          27 64 240 53 cntrmask 11100000
          -96 callsubr
          -28 callsubr
          -65 callgsubr
          hintmask 11100000
          23 282 -93 callsubr
          18 248 -106 callsubr
        </CharString>
        <CharString name="edblgrave">
          -32 callgsubr
          92 -21 183 -89 callgsubr
          -16 273 -98 callgsubr
        </CharString>
        <CharString name="edieresis">
          -32 callgsubr
          126 73 hstemhm
          27 64 10 72 60 72 26 53 hintmask 1101010010000000
          -96 callsubr
          hintmask 0010000000000000
          -28 callsubr
          hintmask 0101000010000000
          -65 callgsubr
          hintmask 0000101100000000
          -158 355 -60 callgsubr
        </CharString>
        <CharString name="edotaccent">
          -32 callgsubr
          121 82 135 callgsubr
          hintmask 11010101
          -96 callsubr
          hintmask 00100000
          -28 callsubr
          hintmask 01010001
          -65 callgsubr
          hintmask 00001010
          -88 354 -100 callsubr
        </CharString>
        <CharString name="edotbelow">
          406 124 callgsubr
          18 225 15 -15 16 175 16 135 callgsubr
          hintmask 01101101
          -96 callsubr
          hintmask 00010000
          -28 callsubr
          hintmask 00101001
          -65 callgsubr
          hintmask 10000010
          -88 -409 -100 callsubr
        </CharString>
        <CharString name="egrave">
          -32 callgsubr
          91 -21 184 -89 callgsubr
          -70 274 -74 callsubr
        </CharString>
        <CharString name="ehookabove">
          -32 callgsubr
          76 -21 214 -89 callgsubr
          -37 395 -107 callsubr
        </CharString>
        <CharString name="eight">
          -31 callgsubr
        </CharString>
        <CharString name="eight.oldstyle">
          -37 callgsubr
        </CharString>
        <CharString name="eight.prop">
          -37 callgsubr
        </CharString>
        <CharString name="eight.taboldstyle">
          -31 callgsubr
        </CharString>
        <CharString name="ellipsis">
          584 0 82 hstem
          84 82 85 82 85 82 cntrmask 01110000
          166 41 21 callgsubr
          167 hmoveto
          -23 callsubr
          167 hmoveto
          -23 callsubr
          endchar
        </CharString>
        <CharString name="emacron">
          -32 callgsubr
          151 23 hstemhm
          27 64 240 53 hintmask 11010110
          -96 callsubr
          hintmask 00100000
          -28 callsubr
          hintmask 01010010
          -65 callgsubr
          hintmask 00001000
          42 343 -26 callsubr
        </CharString>
        <CharString name="emdash">
          917 258 16 hstem
          -12 940 vstem
          928 258 rmoveto
          16 -940 -16 vlineto
          endchar
        </CharString>
        <CharString name="emdash.alt">
          626 275 -20 25 -21 hstemhm
          hintmask 10000000
          625 259 rmoveto
          16 -625 vlineto
          hintmask 01000000
          -16 vlineto
          endchar
        </CharString>
        <CharString name="endash">
          459 258 16 hstem
          -6 470 vstem
          464 258 rmoveto
          16 -470 -16 vlineto
          endchar
        </CharString>
        <CharString name="eng">
          463 -211 54 157 26 321 54 0 26 -5 16 130 callsubr
          hintmask 00001010
          415 69 rmoveto
          235 vlineto
          51 -10 83 -118 72 callsubr
          vhcurveto
          -1 101 hlineto
          hintmask 00010000
          -118 -11 callgsubr
          hintmask 11101110
          -51 callgsubr
          -278 -91 callgsubr
          -72 callsubr
          192 vlineto
          92 56 69 70 74 8 -66 -48 vhcurveto
          -239 vlineto
          -103 0 -123 -54 -29 vhcurveto
          2 vlineto
          15 -12 12 -15 -15 -12 -12 -15 -14 12 -13 15 114 20 147 133 vhcurveto
          endchar
        </CharString>
        <CharString name="eogonek">
          91 callgsubr
          hstemhm
          27 64 60 48 132 54 hintmask 1110011100000000
          -10 callgsubr
          hintmask 0000100010000000
          -28 callsubr
          hintmask 0001010010000000
          -65 callgsubr
          endchar
        </CharString>
        <CharString name="eogonekacute">
          91 callgsubr
          110 callsubr
          27 64 60 48 132 54 hintmask 1110010011000000
          -10 callgsubr
          hintmask 0000100000100000
          -28 callsubr
          hintmask 0001010000100000
          -65 callgsubr
          hintmask 0000001100000000
          -12 419 -94 callgsubr
        </CharString>
        <CharString name="equal">
          720 143 35 143 35 hstem
          46 627 vstem
          673 338 62 callsubr
          -177 vmoveto
          17 -15 0 -15 vhcurveto
          -567 142 callgsubr
          559 hlineto
          17 17 0 18 hvcurveto
          endchar
        </CharString>
        <CharString name="ereversed">
          -32 callgsubr
          hstemhm
          28 53 240 64 hintmask 10111100
          385 218 rmoveto
          123 -84 101 -106 -114 -54 -89 -102 -10 0 -2 4 -4 vhcurveto
          290 hlineto
          -47 0 -59 -31 -51 vhcurveto
          -44 -27 -43 -24 -43 hhcurveto
          -52 -55 34 68 -22 hvcurveto
          12 -4 -1 2 -7 hhcurveto
          0 -8 0 -7 vvcurveto
          -21 44 -106 112 106 95 96 130 vhcurveto
          -65 32 rmoveto
          hintmask 01011000
          -239 hlineto
          112 1 46 64 68 hhcurveto
          40 77 -32 -144 7 hvcurveto
          endchar
        </CharString>
        <CharString name="estimated">
          626 14 -21 703 -20 hstem
          27 76 425 71 vstem
          599 360 rmoveto
          5 vlineto
          95 -22 105 -73 67 vhcurveto
          43 -47 -64 21 -63 hhcurveto
          -185 -118 -178 -171 -164 111 -190 199 89 115 18 90 49 hvcurveto
          2 4 6 8 6 vvcurveto
          5 -4 3 -4 -11 -8 -25 -11 -8 vhcurveto
          -60 -47 -88 -20 -70 hhcurveto
          -81 -73 39 72 -46 hvcurveto
          -41 66 -14 78 76 vvcurveto
          8 484 vlineto
          5 7 1 9 hvcurveto
          -71 6 rmoveto
          -425 hlineto
          3 61 7 62 27 56 34 70 63 62 82 3 rrcurveto
          8 hlineto
          154 47 -177 -137 hvcurveto
          endchar
        </CharString>
        <CharString name="eth">
          7 callgsubr
          hstem
          27 64 275 64 vstem
          430 231 rmoveto
          160 -80 145 -127 88 vhcurveto
          76 43 -13 23 -87 -51 -41 24 -44 19 -47 12 rlinecurve
          -6 -18 38 -13 36 -19 32 -23 rlinecurve
          -77 -44 13 -23 87 50 76 -61 55 -86 27 -96 rlinecurve
          42 -24 -42 39 -55 hhcurveto
          -104 -96 -97 -131 -128 95 -94 106 67 51 36 33 28 hvcurveto
          56 66 0 64 40 vvcurveto
          -64 -16 rmoveto
          -205 -131 0 -6 -36 -102 21 191 200 121 4 16 75 63 -88 -123 vhcurveto
          endchar
        </CharString>
        <CharString name="etilde">
          406 69 callsubr
          27 64 240 53 cntrmask 11100000
          -96 callsubr
          -28 callsubr
          -65 callgsubr
          hintmask 11100000
          29 386 -106 callsubr
        </CharString>
        <CharString name="eturned">
          -14 callgsubr
        </CharString>
        <CharString name="exclam">
          250 0 82 108 -21 541 -20 hstem
          84 82 vstem
          166 670 rmoveto
          29 -24 11 -17 -17 -24 -11 -29 vhcurveto
          31 -483 rlineto
          -13 1 0 -5 9 hhcurveto
          9 0 5 13 1 hvcurveto
          31 -146 -10 callsubr
          endchar
        </CharString>
        <CharString name="exclamdown">
          250 -190 -21 542 -20 107 82 hstem
          84 82 vstem
          166 459 -10 callsubr
          -630 vmoveto
          -1 9 -30 475 rlineto
          13 -1 0 5 -9 hhcurveto
          -9 0 -5 -13 -1 hvcurveto
          -31 -484 rlineto
          -29 24 -11 17 17 24 11 29 vhcurveto
          endchar
        </CharString>
        <CharString name="f">
          -16 callsubr
        </CharString>
        <CharString name="f_f">
          525 89 callgsubr
          229 16 11 16 hstem
          31 68 0 51 0 68 cntrmask 00001110
          559 641 rmoveto
          38 -36 23 -40 -39 -32 -19 -24 -25 vhcurveto
          33 -23 -38 10 -39 hhcurveto
          -78 -110 -45 -110 hvcurveto
          -117 -80 -26 80 73 callsubr
          26 vlineto
          -64 -4 4 39 hvcurveto
          335 198 -335 -87 callgsubr
          46 0 26 hhcurveto
          29 51 98 callgsubr
          -7 callsubr
          333 114 26 -116 121 vlineto
          83 42 52 43 13 15 -4 -7 10 vhcurveto
          -8 -2 -21 -7 -25 vvcurveto
          -26 20 -8 14 14 20 8 26 vhcurveto
          -196 20 rmoveto
          -18 -1 -17 -8 -25 vvcurveto
          -26 25 -7 0 vhcurveto
          -5 -18 0 -20 -7 vvcurveto
          -119 -200 117 vlineto
          91 70 48 67 15 39 -3 -22 24 vhcurveto
          endchar
        </CharString>
        <CharString name="f_f_i">
          749 89 callgsubr
          146 71 39 16 hstemhm
          99 51 199 51 147 51 0 51 hintmask 11111101
          717 hmoveto
          -72 callsubr
          370 vlineto
          -117 -8 rlineto
          65 callsubr
          127 callsubr
          -31 -65 -7 -49 -52 hvcurveto
          26 -13 -33 30 -57 hhcurveto
          -77 -111 -45 -110 hvcurveto
          -117 -80 -26 80 73 callsubr
          26 vlineto
          -64 -4 4 39 hvcurveto
          335 199 73 callsubr
          26 vlineto
          -64 -4 4 39 hvcurveto
          335 vlineto
          hintmask 11110110
          147 hlineto
          43 8 -9 -44 hvcurveto
          -282 -74 callgsubr
          -349 647 rmoveto
          -10 -33 0 -35 -18 10 -12 16 -5 hvcurveto
          -2 -9 0 -21 0 vvcurveto
          -117 -201 117 vlineto
          94 74 45 62 35 34 -15 -24 15 vhcurveto
          endchar
        </CharString>
        <CharString name="f_f_l">
          749 89 callgsubr
          164 16 31 26 -6 26 -1 16 hstemhm
          99 51 199 51 198 51 hintmask 1000100010000000
          717 0 callsubr
          -33 -7 rlineto
          hintmask 1110011110000000
          15 -29 -38 0 -10 hhcurveto
          -46 -55 -13 -39 -44 hvcurveto
          27 -12 -36 25 -58 hhcurveto
          -81 -108 -46 -109 hvcurveto
          -117 -80 -26 80 73 callsubr
          26 vlineto
          -64 -4 4 39 hvcurveto
          335 199 73 callsubr
          26 vlineto
          -64 -4 4 39 hvcurveto
          335 198 73 callsubr
          -353 661 rmoveto
          -24 -2 -11 -13 -19 vvcurveto
          -18 11 -11 16 -4 vhcurveto
          -7 -19 0 -17 -11 vvcurveto
          -117 -201 117 vlineto
          90 69 49 69 vhcurveto
          hintmask 0100100000000000
          10 41 -1 -24 27 hvcurveto
          234 -231 rmoveto
          -200 117 hlineto
          hintmask 0111010010000000
          38 callgsubr
          -14 7 -12 13 -5 vhcurveto
          endchar
        </CharString>
        <CharString name="f_i">
          499 89 callgsubr
          -26 35 137 71 -35 35 39 16 hstemhm
          99 51 147 51 0 51 hintmask 1010000010000000
          467 hmoveto
          -72 callsubr
          370 vlineto
          -117 -8 rlineto
          hintmask 0100110000000000
          65 callsubr
          hvcurveto
          hintmask 1101011100000000
          127 callsubr
          -79 -110 -45 -110 vhcurveto
          -117 -80 -26 80 73 callsubr
          26 vlineto
          -64 -4 4 39 hvcurveto
          335 147 vlineto
          43 8 -9 -44 hvcurveto
          -282 -74 callgsubr
          endchar
        </CharString>
</ttFont>
